Paribartan-Regular.ufo
<glyph name="exclam" format="2">
  <advance width="252"/>
  <unicode hex="0021"/>
  <outline>
    <contour>
      <point x="50" y="-2" type="line"/>
      <point x="50" y="140" type="line"/>
      <point x="202" y="140" type="line"/>
      <point x="202" y="-2" type="line"/>
    </contour>
    <contour>
      <point x="50" y="258" type="line"/>
      <point x="50" y="772" type="line"/>
      <point x="202" y="772" type="line"/>
      <point x="202" y="258" type="line"/>
    </contour>
  </outline>
</glyph>
<glyph name="quotedbl" format="2">
  <advance width="452"/>
  <unicode hex="0022"/>
  <outline>
    <contour>
      <point x="50" y="532" type="line"/>
      <point x="50" y="789" type="line"/>
      <point x="202" y="789" type="line"/>
      <point x="202" y="532" type="line"/>
    </contour>
    <contour>
      <point x="250" y="532" type="line"/>
      <point x="250" y="789" type="line"/>
      <point x="402" y="789" type="line"/>
      <point x="402" y="532" type="line"/>
    </contour>
  </outline>
</glyph>
<glyph name="numbersign" format="2">
  <advance width="648"/>
  <unicode hex="0023"/>
  <outline>
    <contour>
      <point x="406" y="466" type="line"/>
      <point x="258" y="466" type="line"/>
      <point x="241" y="368" type="line"/>
      <point x="389" y="368" type="line"/>
    </contour>
    <contour>
      <point x="146" y="692" type="line"/>
      <point x="298" y="692" type="line"/>
      <point x="285" y="618" type="line"/>
      <point x="433" y="618" type="line"/>
      <point x="446" y="692" type="line"/>
      <point x="598" y="692" type="line"/>
      <point x="585" y="618" type="line"/>
      <point x="596" y="618" type="line"/>
      <point x="596" y="466" type="line"/>
      <point x="558" y="466" type="line"/>
      <point x="541" y="368" type="line"/>
      <point x="596" y="368" type="line"/>
      <point x="596" y="216" type="line"/>
      <point x="514" y="216" type="line"/>
      <point x="502" y="149" type="line"/>
      <point x="350" y="149" type="line"/>
      <point x="362" y="216" type="line"/>
      <point x="214" y="216" type="line"/>
      <point x="202" y="149" type="line"/>
      <point x="50" y="149" type="line"/>
      <point x="62" y="216" type="line"/>
      <point x="52" y="216" type="line"/>
      <point x="52" y="368" type="line"/>
      <point x="89" y="368" type="line"/>
      <point x="106" y="466" type="line"/>
      <point x="52" y="466" type="line"/>
      <point x="52" y="618" type="line"/>
      <point x="133" y="618" type="line"/>
    </contour>
  </outline>
</glyph>
<glyph name="dollar" format="2">
  <advance width="519"/>
  <unicode hex="0024"/>
  <outline>
    <contour>
      <point x="243" y="586" type="line"/>
      <point x="237" y="580"/>
      <point x="231.667" y="573"/>
      <point x="227" y="565" type="curve"/>
      <point x="210.333" y="537.667"/>
      <point x="208.667" y="507.667"/>
      <point x="222" y="475" type="curve"/>
      <point x="228" y="462.333"/>
      <point x="235" y="451.667"/>
      <point x="243" y="443" type="curve"/>
    </contour>
    <contour>
      <point x="50" y="57" type="curve"/>
      <point x="125" y="182" type="line"/>
      <point x="130.333" y="178"/>
      <point x="137.667" y="173"/>
      <point x="147" y="167" type="curve"/>
      <point x="172.333" y="152.333"/>
      <point x="199.333" y="148.333"/>
      <point x="228" y="155" type="curve"/>
      <point x="233.333" y="156.333"/>
      <point x="238.333" y="158"/>
      <point x="243" y="160" type="curve"/>
      <point x="243" y="310" type="line"/>
      <point x="236.333" y="312"/>
      <point x="229.333" y="313.667"/>
      <point x="222" y="315" type="curve"/>
      <point x="189.333" y="333"/>
      <point x="161" y="353"/>
      <point x="137" y="375" type="curve" smooth="yes"/>
      <point x="113" y="397"/>
      <point x="94" y="421.667"/>
      <point x="80" y="449" type="curve" smooth="yes"/>
      <point x="66" y="476.333"/>
      <point x="60" y="506.333"/>
      <point x="62" y="539" type="curve" smooth="yes"/>
      <point x="64" y="571.667"/>
      <point x="75.3333" y="605"/>
      <point x="96" y="639" type="curve"/>
      <point x="130" y="695"/>
      <point x="179" y="734.667"/>
      <point x="243" y="758" type="curve"/>
      <point x="243" y="1030" type="line"/>
      <point x="322" y="1030" type="line"/>
      <point x="322" y="774" type="line"/>
      <point x="369.333" y="776"/>
      <point x="411.333" y="760.333"/>
      <point x="448" y="727" type="curve"/>
      <point x="450" y="725"/>
      <point x="453.5" y="722.5"/>
      <point x="458.5" y="719.5" type="curve" smooth="yes"/>
      <point x="463.5" y="716.5"/>
      <point x="467" y="714"/>
      <point x="469" y="712" type="curve"/>
      <point x="394" y="587" type="line"/>
      <point x="386" y="593.667"/>
      <point x="378.667" y="598.667"/>
      <point x="372" y="602" type="curve"/>
      <point x="356" y="610.667"/>
      <point x="339.333" y="615.333"/>
      <point x="322" y="616" type="curve"/>
      <point x="322" y="401" type="line"/>
      <point x="341.333" y="389"/>
      <point x="358.333" y="377.333"/>
      <point x="373" y="366" type="curve"/>
      <point x="395" y="348"/>
      <point x="414.167" y="327.333"/>
      <point x="430.5" y="304" type="curve" smooth="yes"/>
      <point x="446.833" y="280.667"/>
      <point x="454.5" y="254.333"/>
      <point x="453.5" y="225" type="curve" smooth="yes"/>
      <point x="452.5" y="195.667"/>
      <point x="442" y="164"/>
      <point x="422" y="130" type="curve"/>
      <point x="398.667" y="90.6667"/>
      <point x="365.333" y="58"/>
      <point x="322" y="32" type="curve"/>
      <point x="322" y="-182" type="line"/>
      <point x="243" y="-182" type="line"/>
      <point x="243" y="0" type="line"/>
      <point x="225.667" y="-4"/>
      <point x="208.667" y="-6"/>
      <point x="192" y="-6" type="curve"/>
      <point x="147.333" y="-6.66667"/>
      <point x="107" y="9.33333"/>
      <point x="71" y="42" type="curve"/>
      <point x="69" y="44"/>
      <point x="65.5" y="46.5"/>
      <point x="60.5" y="49.5" type="curve" smooth="yes"/>
      <point x="55.5" y="52.5"/>
      <point x="52" y="55"/>
    </contour>
  </outline>
</glyph>
<glyph name="percent" format="2">
  <advance width="691"/>
  <unicode hex="0025"/>
  <outline>
    <contour>
      <point x="535" y="818" type="line"/>
      <point x="641" y="757" type="line"/>
      <point x="156" y="-83" type="line"/>
      <point x="50" y="-22" type="line"/>
    </contour>
    <contour>
      <point x="498" y="262" type="curve"/>
      <point x="498" y="263" type="line"/>
      <point x="498" y="263" type="line"/>
      <point x="485.333" y="260.333"/>
      <point x="475.167" y="254.167"/>
      <point x="467.5" y="244.5" type="curve" smooth="yes"/>
      <point x="459.833" y="234.833"/>
      <point x="456" y="223.333"/>
      <point x="456" y="210" type="curve"/>
      <point x="456" y="197.333"/>
      <point x="459.833" y="186.167"/>
      <point x="467.5" y="176.5" type="curve" smooth="yes"/>
      <point x="475.167" y="166.833"/>
      <point x="485.333" y="160.667"/>
      <point x="498" y="158" type="curve"/>
      <point x="498" y="159" type="line"/>
      <point x="503.333" y="157.667"/>
      <point x="507.333" y="157"/>
      <point x="510" y="157" type="curve" smooth="yes"/>
      <point x="512.667" y="157"/>
      <point x="516.667" y="157.667"/>
      <point x="522" y="159" type="curve"/>
      <point x="522" y="158" type="line"/>
      <point x="534.667" y="160.667"/>
      <point x="544.833" y="166.833"/>
      <point x="552.5" y="176.5" type="curve" smooth="yes"/>
      <point x="560.167" y="186.167"/>
      <point x="564" y="197.333"/>
      <point x="564" y="210" type="curve"/>
      <point x="564" y="223.333"/>
      <point x="560.167" y="234.833"/>
      <point x="552.5" y="244.5" type="curve" smooth="yes"/>
      <point x="544.833" y="254.167"/>
      <point x="534.667" y="260.333"/>
      <point x="522" y="263" type="curve"/>
      <point x="522" y="262" type="line"/>
      <point x="516.667" y="263.333"/>
      <point x="512.667" y="264"/>
      <point x="510" y="264" type="curve" smooth="yes"/>
      <point x="507.333" y="264"/>
      <point x="503.333" y="263.333"/>
    </contour>
    <contour>
      <point x="509" y="82" type="line"/>
      <point x="507" y="82" type="line"/>
      <point x="500" y="82" type="line"/>
      <point x="466" y="84.6667"/>
      <point x="437.5" y="98.1667"/>
      <point x="414.5" y="122.5" type="curve" smooth="yes"/>
      <point x="391.5" y="146.833"/>
      <point x="380" y="176"/>
      <point x="380" y="210" type="curve" smooth="yes"/>
      <point x="380" y="244"/>
      <point x="391.667" y="273.333"/>
      <point x="415" y="298" type="curve" smooth="yes"/>
      <point x="438.333" y="322.667"/>
      <point x="466.667" y="336.333"/>
      <point x="500" y="339" type="curve"/>
      <point x="507" y="339" type="line"/>
      <point x="509" y="339" type="line"/>
      <point x="511" y="339" type="line"/>
      <point x="547" y="339"/>
      <point x="577.5" y="326.5"/>
      <point x="602.5" y="301.5" type="curve" smooth="yes"/>
      <point x="627.5" y="276.5"/>
      <point x="640" y="246"/>
      <point x="640" y="210" type="curve"/>
      <point x="640" y="174.667"/>
      <point x="627.5" y="144.5"/>
      <point x="602.5" y="119.5" type="curve" smooth="yes"/>
      <point x="577.5" y="94.5"/>
      <point x="547" y="82"/>
      <point x="511" y="82" type="curve"/>
    </contour>
    <contour>
      <point x="193" y="663" type="curve"/>
      <point x="193" y="664" type="line"/>
      <point x="193" y="664" type="line"/>
      <point x="180.333" y="661.333"/>
      <point x="170.167" y="655.167"/>
      <point x="162.5" y="645.5" type="curve" smooth="yes"/>
      <point x="154.833" y="635.833"/>
      <point x="151" y="624.333"/>
      <point x="151" y="611" type="curve"/>
      <point x="151" y="598.333"/>
      <point x="154.833" y="587.167"/>
      <point x="162.5" y="577.5" type="curve" smooth="yes"/>
      <point x="170.167" y="567.833"/>
      <point x="180.333" y="561.667"/>
      <point x="193" y="559" type="curve"/>
      <point x="193" y="560" type="line"/>
      <point x="198.333" y="558.667"/>
      <point x="202.333" y="558"/>
      <point x="205" y="558" type="curve" smooth="yes"/>
      <point x="207.667" y="558"/>
      <point x="211.667" y="558.667"/>
      <point x="217" y="560" type="curve"/>
      <point x="217" y="559" type="line"/>
      <point x="229.667" y="561.667"/>
      <point x="239.833" y="567.833"/>
      <point x="247.5" y="577.5" type="curve" smooth="yes"/>
      <point x="255.167" y="587.167"/>
      <point x="259" y="598.333"/>
      <point x="259" y="611" type="curve"/>
      <point x="259" y="624.333"/>
      <point x="255.167" y="635.833"/>
      <point x="247.5" y="645.5" type="curve" smooth="yes"/>
      <point x="239.833" y="655.167"/>
      <point x="229.667" y="661.333"/>
      <point x="217" y="664" type="curve"/>
      <point x="217" y="663" type="line"/>
      <point x="211.667" y="664.333"/>
      <point x="207.667" y="665"/>
      <point x="205" y="665" type="curve" smooth="yes"/>
      <point x="202.333" y="665"/>
      <point x="198.333" y="664.333"/>
    </contour>
    <contour>
      <point x="204" y="483" type="line"/>
      <point x="202" y="483" type="line"/>
      <point x="195" y="483" type="line"/>
      <point x="161" y="485.667"/>
      <point x="132.5" y="499.167"/>
      <point x="109.5" y="523.5" type="curve" smooth="yes"/>
      <point x="86.5" y="547.833"/>
      <point x="75" y="577"/>
      <point x="75" y="611" type="curve" smooth="yes"/>
      <point x="75" y="645"/>
      <point x="86.6667" y="674.333"/>
      <point x="110" y="699" type="curve" smooth="yes"/>
      <point x="133.333" y="723.667"/>
      <point x="161.667" y="737.333"/>
      <point x="195" y="740" type="curve"/>
      <point x="202" y="740" type="line"/>
      <point x="204" y="740" type="line"/>
      <point x="206" y="740" type="line"/>
      <point x="242" y="740"/>
      <point x="272.5" y="727.5"/>
      <point x="297.5" y="702.5" type="curve" smooth="yes"/>
      <point x="322.5" y="677.5"/>
      <point x="335" y="647"/>
      <point x="335" y="611" type="curve"/>
      <point x="335" y="575.667"/>
      <point x="322.5" y="545.5"/>
      <point x="297.5" y="520.5" type="curve" smooth="yes"/>
      <point x="272.5" y="495.5"/>
      <point x="242" y="483"/>
      <point x="206" y="483" type="curve"/>
    </contour>
  </outline>
</glyph>
<glyph name="ampersand" format="2">
  <advance width="650"/>
  <unicode hex="0026"/>
  <outline>
    <contour>
      <point x="322.667" y="158" type="curve"/>
      <point x="209.667" y="272" type="line"/>
      <point x="209" y="268"/>
      <point x="208.667" y="264"/>
      <point x="208.667" y="260" type="curve"/>
      <point x="208.667" y="230.667"/>
      <point x="219" y="205.667"/>
      <point x="239.667" y="185" type="curve" smooth="yes"/>
      <point x="260.334" y="164.333"/>
      <point x="285.667" y="154"/>
      <point x="315.667" y="154" type="curve"/>
      <point x="316.334" y="154"/>
      <point x="318.667" y="155.333"/>
    </contour>
    <contour>
      <point x="389.667" y="810" type="curve"/>
      <point x="386.667" y="691" type="line"/>
      <point x="374.667" y="690.333"/>
      <point x="347.167" y="678.333"/>
      <point x="304.167" y="655" type="curve" smooth="yes"/>
      <point x="261.167" y="631.667"/>
      <point x="234.667" y="615"/>
      <point x="224.667" y="605" type="curve"/>
      <point x="202" y="582.333"/>
      <point x="191.667" y="554.333"/>
      <point x="193.667" y="521" type="curve"/>
      <point x="216.667" y="498" type="line"/>
      <point x="248" y="511.333"/>
      <point x="281" y="518"/>
      <point x="315.667" y="518" type="curve"/>
      <point x="324.334" y="518"/>
      <point x="333" y="517.667"/>
      <point x="341.667" y="517" type="curve"/>
      <point x="341.667" y="373" type="line"/>
      <point x="452.667" y="262" type="line"/>
      <point x="528" y="323.333"/>
      <point x="567" y="354.333"/>
      <point x="569.667" y="355" type="curve"/>
      <point x="569.667" y="202" type="line"/>
      <point x="567.667" y="202"/>
      <point x="556.667" y="194"/>
      <point x="536.667" y="178" type="curve"/>
      <point x="600.667" y="114" type="line"/>
      <point x="482.667" y="-4" type="line"/>
      <point x="406.667" y="73" type="line"/>
      <point x="348.667" y="26.3333"/>
      <point x="318.334" y="3"/>
      <point x="315.667" y="3" type="curve"/>
      <point x="244.334" y="3"/>
      <point x="183.5" y="28"/>
      <point x="133.167" y="78" type="curve" smooth="yes"/>
      <point x="82.8337" y="128"/>
      <point x="57.667" y="188.667"/>
      <point x="57.667" y="260" type="curve"/>
      <point x="57.667" y="306.667"/>
      <point x="69.3337" y="350"/>
      <point x="92.667" y="390" type="curve"/>
      <point x="76.667" y="406" type="line"/>
      <point x="63.3337" y="430"/>
      <point x="55.0003" y="454.667"/>
      <point x="51.667" y="480" type="curve" smooth="yes"/>
      <point x="48.3337" y="505.333"/>
      <point x="50.0003" y="531.5"/>
      <point x="56.667" y="558.5" type="curve" smooth="yes"/>
      <point x="63.3337" y="585.5"/>
      <point x="71.167" y="610.333"/>
      <point x="80.167" y="633" type="curve" smooth="yes"/>
      <point x="89.167" y="655.667"/>
      <point x="101.667" y="682"/>
      <point x="117.667" y="712" type="curve"/>
      <point x="126.334" y="728"/>
      <point x="150.834" y="745.333"/>
      <point x="191.167" y="764" type="curve" smooth="yes"/>
      <point x="231.5" y="782.667"/>
      <point x="272" y="796.667"/>
      <point x="312.667" y="806" type="curve" smooth="yes"/>
      <point x="353.334" y="815.333"/>
      <point x="379" y="816.667"/>
    </contour>
  </outline>
</glyph>
<glyph name="quotesingle" format="2">
  <advance width="252"/>
  <unicode hex="0027"/>
  <outline>
    <contour>
      <point x="50" y="532" type="line"/>
      <point x="50" y="789" type="line"/>
      <point x="202" y="789" type="line"/>
      <point x="202" y="532" type="line"/>
    </contour>
  </outline>
</glyph>
<glyph name="parenleft" format="2">
  <advance width="555"/>
  <unicode hex="0028"/>
  <outline>
    <contour>
      <point x="432" y="744" type="line"/>
      <point x="365.333" y="744"/>
      <point x="302.333" y="707.167"/>
      <point x="243" y="633.5" type="curve" smooth="yes"/>
      <point x="183.667" y="559.833"/>
      <point x="154" y="474.667"/>
      <point x="154" y="378" type="curve"/>
      <point x="154" y="280.667"/>
      <point x="183.667" y="195.167"/>
      <point x="243" y="121.5" type="curve" smooth="yes"/>
      <point x="302.333" y="47.8333"/>
      <point x="365.333" y="11"/>
      <point x="432" y="11" type="curve"/>
      <point x="505" y="-7" type="line"/>
      <point x="482.333" y="-11.6667"/>
      <point x="458" y="-14"/>
      <point x="432" y="-14" type="curve"/>
      <point x="326.667" y="-14"/>
      <point x="236.667" y="24.5"/>
      <point x="162" y="101.5" type="curve" smooth="yes"/>
      <point x="87.3333" y="178.5"/>
      <point x="50" y="271.333"/>
      <point x="50" y="380" type="curve" smooth="yes"/>
      <point x="50" y="488.667"/>
      <point x="87.3333" y="581.333"/>
      <point x="162" y="658" type="curve" smooth="yes"/>
      <point x="236.667" y="734.667"/>
      <point x="326.667" y="773"/>
      <point x="432" y="773" type="curve"/>
      <point x="458" y="773"/>
      <point x="482.333" y="770.667"/>
      <point x="505" y="766" type="curve"/>
    </contour>
  </outline>
</glyph>
<glyph name="parenright" format="2">
  <advance width="555"/>
  <unicode hex="0029"/>
  <outline>
    <contour>
      <point x="123" y="744" type="curve"/>
      <point x="50" y="766" type="line"/>
      <point x="72.6667" y="770.667"/>
      <point x="97" y="773"/>
      <point x="123" y="773" type="curve"/>
      <point x="228.333" y="773"/>
      <point x="318.333" y="734.667"/>
      <point x="393" y="658" type="curve" smooth="yes"/>
      <point x="467.667" y="581.333"/>
      <point x="505" y="488.667"/>
      <point x="505" y="380" type="curve" smooth="yes"/>
      <point x="505" y="271.333"/>
      <point x="467.667" y="178.5"/>
      <point x="393" y="101.5" type="curve" smooth="yes"/>
      <point x="318.333" y="24.5"/>
      <point x="228.333" y="-14"/>
      <point x="123" y="-14" type="curve"/>
      <point x="97" y="-14"/>
      <point x="72.6667" y="-11.6667"/>
      <point x="50" y="-7" type="curve"/>
      <point x="123" y="11" type="line"/>
      <point x="189.667" y="11"/>
      <point x="252.667" y="47.8333"/>
      <point x="312" y="121.5" type="curve" smooth="yes"/>
      <point x="371.333" y="195.167"/>
      <point x="401" y="280.667"/>
      <point x="401" y="378" type="curve"/>
      <point x="401" y="474.667"/>
      <point x="371.333" y="559.833"/>
      <point x="312" y="633.5" type="curve" smooth="yes"/>
      <point x="252.667" y="707.167"/>
      <point x="189.667" y="744"/>
    </contour>
  </outline>
</glyph>
<glyph name="asterisk" format="2">
  <advance width="644"/>
  <unicode hex="002A"/>
  <outline>
    <contour>
      <point x="594" y="496" type="line"/>
      <point x="594" y="344" type="line"/>
      <point x="505" y="344" type="line"/>
      <point x="568" y="281" type="line"/>
      <point x="461" y="174" type="line"/>
      <point x="398" y="237" type="line"/>
      <point x="398" y="149" type="line"/>
      <point x="246" y="149" type="line"/>
      <point x="246" y="237" type="line"/>
      <point x="183" y="174" type="line"/>
      <point x="76" y="281" type="line"/>
      <point x="139" y="344" type="line"/>
      <point x="50" y="344" type="line"/>
      <point x="50" y="496" type="line"/>
      <point x="139" y="496" type="line"/>
      <point x="76" y="559" type="line"/>
      <point x="183" y="666" type="line"/>
      <point x="246" y="603" type="line"/>
      <point x="246" y="692" type="line"/>
      <point x="398" y="692" type="line"/>
      <point x="398" y="603" type="line"/>
      <point x="461" y="666" type="line"/>
      <point x="568" y="559" type="line"/>
      <point x="505" y="496" type="line"/>
    </contour>
  </outline>
</glyph>
<glyph name="plus" format="2">
  <advance width="644"/>
  <unicode hex="002B"/>
  <outline>
    <contour>
      <point x="246" y="692" type="line"/>
      <point x="398" y="692" type="line"/>
      <point x="398" y="496" type="line"/>
      <point x="594" y="496" type="line"/>
      <point x="594" y="344" type="line"/>
      <point x="398" y="344" type="line"/>
      <point x="398" y="149" type="line"/>
      <point x="246" y="149" type="line"/>
      <point x="246" y="344" type="line"/>
      <point x="50" y="344" type="line"/>
      <point x="50" y="496" type="line"/>
      <point x="246" y="496" type="line"/>
    </contour>
  </outline>
</glyph>
<glyph name="comma" format="2">
  <advance width="252"/>
  <unicode hex="002C"/>
  <outline>
    <contour>
      <point x="50" y="-2" type="line"/>
      <point x="50" y="140" type="line"/>
      <point x="202" y="140" type="line"/>
      <point x="202" y="-2" type="line"/>
      <point x="142" y="-134" type="line"/>
      <point x="84" y="-130" type="line"/>
      <point x="93" y="-2" type="line"/>
    </contour>
  </outline>
</glyph>
<glyph name="slash" format="2">
  <advance width="691"/>
  <unicode hex="002F"/>
  <outline>
    <contour>
      <point x="535" y="818" type="line"/>
      <point x="641" y="757" type="line"/>
      <point x="156" y="-83" type="line"/>
      <point x="50" y="-22" type="line"/>
    </contour>
  </outline>
</glyph>
<glyph name="zero" format="2">
  <advance width="864"/>
  <unicode hex="0030"/>
  <outline>
    <contour>
      <point x="566" y="378" type="curve"/>
      <point x="566" y="442.667"/>
      <point x="548.167" y="497.833"/>
      <point x="512.5" y="543.5" type="curve" smooth="yes"/>
      <point x="476.833" y="589.167"/>
      <point x="433.5" y="612"/>
      <point x="382.5" y="612" type="curve" smooth="yes"/>
      <point x="331.5" y="612"/>
      <point x="288" y="589.167"/>
      <point x="252" y="543.5" type="curve" smooth="yes"/>
      <point x="216" y="497.833"/>
      <point x="198" y="442.667"/>
      <point x="198" y="378" type="curve"/>
      <point x="198" y="312.667"/>
      <point x="216" y="257.167"/>
      <point x="252" y="211.5" type="curve" smooth="yes"/>
      <point x="288" y="165.833"/>
      <point x="331.5" y="143"/>
      <point x="382.5" y="143" type="curve" smooth="yes"/>
      <point x="433.5" y="143"/>
      <point x="476.833" y="165.833"/>
      <point x="512.5" y="211.5" type="curve" smooth="yes"/>
      <point x="548.167" y="257.167"/>
      <point x="566" y="312.667"/>
    </contour>
    <contour>
      <point x="688" y="380" type="curve"/>
      <point x="688" y="308.667"/>
      <point x="674.333" y="242.667"/>
      <point x="647" y="182" type="curve" smooth="yes"/>
      <point x="619.667" y="121.333"/>
      <point x="582.667" y="73.5"/>
      <point x="536" y="38.5" type="curve" smooth="yes"/>
      <point x="489.333" y="3.5"/>
      <point x="438.167" y="-14"/>
      <point x="382.5" y="-14" type="curve" smooth="yes"/>
      <point x="326.833" y="-14"/>
      <point x="275.5" y="3.5"/>
      <point x="228.5" y="38.5" type="curve" smooth="yes"/>
      <point x="181.5" y="73.5"/>
      <point x="144.333" y="121.333"/>
      <point x="117" y="182" type="curve" smooth="yes"/>
      <point x="89.6667" y="242.667"/>
      <point x="76" y="308.667"/>
      <point x="76" y="380" type="curve"/>
      <point x="76" y="451.333"/>
      <point x="89.6667" y="517.167"/>
      <point x="117" y="577.5" type="curve" smooth="yes"/>
      <point x="144.333" y="637.833"/>
      <point x="181.5" y="685.5"/>
      <point x="228.5" y="720.5" type="curve" smooth="yes"/>
      <point x="275.5" y="755.5"/>
      <point x="326.833" y="773"/>
      <point x="382.5" y="773" type="curve" smooth="yes"/>
      <point x="438.167" y="773"/>
      <point x="489.333" y="755.5"/>
      <point x="536" y="720.5" type="curve" smooth="yes"/>
      <point x="582.667" y="685.5"/>
      <point x="619.667" y="637.833"/>
      <point x="647" y="577.5" type="curve" smooth="yes"/>
      <point x="674.333" y="517.167"/>
      <point x="688" y="451.333"/>
    </contour>
  </outline>
</glyph>
<glyph name="one" format="2">
  <advance width="436"/>
  <unicode hex="0031"/>
  <outline>
    <contour>
      <point x="158" y="487" type="line"/>
      <point x="50" y="594" type="line"/>
      <point x="232" y="776" type="line"/>
      <point x="234" y="774" type="line"/>
      <point x="386" y="774" type="line"/>
      <point x="386" y="-2" type="line"/>
      <point x="234" y="-2" type="line"/>
      <point x="234" y="563" type="line"/>
    </contour>
  </outline>
</glyph>
<glyph name="two" format="2">
  <advance width="603"/>
  <unicode hex="0032"/>
  <outline>
    <contour>
      <point x="126" y="586" type="curve"/>
      <point x="100.667" y="586"/>
      <point x="76.3333" y="582.667"/>
      <point x="53" y="576" type="curve"/>
      <point x="53" y="709" type="line"/>
      <point x="77" y="713"/>
      <point x="101.333" y="715"/>
      <point x="126" y="715" type="curve"/>
      <point x="195.333" y="715"/>
      <point x="259.333" y="701"/>
      <point x="318" y="673" type="curve" smooth="yes"/>
      <point x="376.667" y="645"/>
      <point x="423" y="606.833"/>
      <point x="457" y="558.5" type="curve" smooth="yes"/>
      <point x="491" y="510.167"/>
      <point x="508" y="457.333"/>
      <point x="508" y="400" type="curve"/>
      <point x="508" y="336.667"/>
      <point x="487" y="280.5"/>
      <point x="445" y="231.5" type="curve" smooth="yes"/>
      <point x="403" y="182.5"/>
      <point x="347.333" y="146.667"/>
      <point x="278" y="124" type="curve"/>
      <point x="553" y="126" type="line"/>
      <point x="553" y="5" type="line"/>
      <point x="50" y="0" type="line"/>
      <point x="53" y="236" type="line"/>
      <point x="76.3333" y="229.333"/>
      <point x="100.667" y="226"/>
      <point x="126" y="226" type="curve"/>
      <point x="190.667" y="226"/>
      <point x="245" y="242"/>
      <point x="289" y="274" type="curve" smooth="yes"/>
      <point x="333" y="306"/>
      <point x="355" y="347.667"/>
      <point x="355" y="399" type="curve"/>
      <point x="355" y="450.333"/>
      <point x="332.667" y="494.333"/>
      <point x="288" y="531" type="curve" smooth="yes"/>
      <point x="243.333" y="567.667"/>
      <point x="189.333" y="586"/>
    </contour>
  </outline>
</glyph>
<glyph name="three" format="2">
  <advance width="435"/>
  <unicode hex="0033"/>
  <outline>
    <contour>
      <point x="50" y="-5" type="curve"/>
      <point x="50" y="119" type="line"/>
      <point x="58.6667" y="117"/>
      <point x="67.3333" y="116"/>
      <point x="76" y="116" type="curve"/>
      <point x="120" y="116"/>
      <point x="157.333" y="124.333"/>
      <point x="188" y="141" type="curve" smooth="yes"/>
      <point x="218.667" y="157.667"/>
      <point x="234" y="178"/>
      <point x="234" y="202" type="curve"/>
      <point x="234" y="224.667"/>
      <point x="225" y="244"/>
      <point x="207" y="260" type="curve" smooth="yes"/>
      <point x="189" y="276"/>
      <point x="166.667" y="285.333"/>
      <point x="140" y="288" type="curve"/>
      <point x="133" y="288"/>
      <point x="133" y="288"/>
      <point x="127" y="288" type="curve" smooth="yes"/>
      <point x="121" y="288"/>
      <point x="121" y="288"/>
      <point x="115" y="288" type="curve"/>
      <point x="110.333" y="288"/>
      <point x="105.667" y="287.333"/>
      <point x="101" y="286" type="curve"/>
      <point x="101" y="289" type="line"/>
      <point x="101" y="410" type="line"/>
      <point x="101" y="413" type="line"/>
      <point x="105.667" y="411.667"/>
      <point x="110.333" y="411"/>
      <point x="115" y="411" type="curve"/>
      <point x="121" y="411"/>
      <point x="121" y="411"/>
      <point x="127" y="411" type="curve" smooth="yes"/>
      <point x="133" y="411"/>
      <point x="133" y="411"/>
      <point x="140" y="411" type="curve"/>
      <point x="166.667" y="413"/>
      <point x="189" y="422.167"/>
      <point x="207" y="438.5" type="curve" smooth="yes"/>
      <point x="225" y="454.833"/>
      <point x="234" y="474"/>
      <point x="234" y="496" type="curve"/>
      <point x="234" y="520.667"/>
      <point x="219.333" y="541.333"/>
      <point x="190" y="558" type="curve" smooth="yes"/>
      <point x="160.667" y="574.667"/>
      <point x="124.667" y="583"/>
      <point x="82" y="583" type="curve"/>
      <point x="73.3333" y="583"/>
      <point x="64.6667" y="582"/>
      <point x="56" y="580" type="curve"/>
      <point x="56" y="704" type="line"/>
      <point x="64.6667" y="704.667"/>
      <point x="73.3333" y="705"/>
      <point x="82" y="705" type="curve"/>
      <point x="166" y="705"/>
      <point x="237.5" y="684.667"/>
      <point x="296.5" y="644" type="curve" smooth="yes"/>
      <point x="355.5" y="603.333"/>
      <point x="385" y="554"/>
      <point x="385" y="496" type="curve"/>
      <point x="385" y="438.667"/>
      <point x="360" y="389.667"/>
      <point x="310" y="349" type="curve"/>
      <point x="360" y="308.333"/>
      <point x="385" y="259.333"/>
      <point x="385" y="202" type="curve" smooth="yes"/>
      <point x="385" y="144.667"/>
      <point x="354.833" y="95.6667"/>
      <point x="294.5" y="55" type="curve" smooth="yes"/>
      <point x="234.167" y="14.3333"/>
      <point x="161.333" y="-6"/>
      <point x="76" y="-6" type="curve"/>
      <point x="67.3333" y="-6"/>
      <point x="58.6667" y="-5.66667"/>
    </contour>
  </outline>
</glyph>
<glyph name="four" format="2">
  <advance width="565"/>
  <unicode hex="0034"/>
  <outline>
    <contour>
      <point x="378" y="341" type="line"/>
      <point x="378" y="521" type="line"/>
      <point x="280" y="344" type="line"/>
    </contour>
    <contour>
      <point x="386" y="0" type="line"/>
      <point x="386" y="192" type="line"/>
      <point x="385" y="191" type="line"/>
      <point x="50" y="191" type="line"/>
      <point x="372" y="774" type="line"/>
      <point x="515" y="774" type="line"/>
      <point x="515" y="0" type="line"/>
    </contour>
  </outline>
</glyph>
<glyph name="five" format="2">
  <advance width="418"/>
  <unicode hex="0035"/>
  <outline>
    <contour>
      <point x="50" y="4" type="curve"/>
      <point x="50" y="157" type="line"/>
      <point x="58" y="155"/>
      <point x="66.6667" y="154"/>
      <point x="76" y="154" type="curve"/>
      <point x="106" y="154"/>
      <point x="131.333" y="164.333"/>
      <point x="152" y="185" type="curve" smooth="yes"/>
      <point x="172.667" y="205.667"/>
      <point x="183" y="230.667"/>
      <point x="183" y="260" type="curve"/>
      <point x="183" y="290"/>
      <point x="172.667" y="315.333"/>
      <point x="152" y="336" type="curve" smooth="yes"/>
      <point x="131.333" y="356.667"/>
      <point x="106" y="367"/>
      <point x="76" y="367" type="curve"/>
      <point x="66.6667" y="367"/>
      <point x="58" y="366"/>
      <point x="50" y="364" type="curve"/>
      <point x="50" y="397" type="line"/>
      <point x="50" y="517" type="line"/>
      <point x="50" y="773" type="line"/>
      <point x="51" y="773" type="line"/>
      <point x="51" y="774" type="line"/>
      <point x="368" y="774" type="line"/>
      <point x="367" y="622" type="line"/>
      <point x="202" y="622" type="line"/>
      <point x="202" y="485" type="line"/>
      <point x="242" y="462.333"/>
      <point x="274" y="431.167"/>
      <point x="298" y="391.5" type="curve" smooth="yes"/>
      <point x="322" y="351.833"/>
      <point x="334" y="308"/>
      <point x="334" y="260" type="curve"/>
      <point x="334" y="188.667"/>
      <point x="308.833" y="128"/>
      <point x="258.5" y="78" type="curve" smooth="yes"/>
      <point x="208.167" y="28"/>
      <point x="147.333" y="3"/>
      <point x="76" y="3" type="curve"/>
      <point x="64.6667" y="3"/>
      <point x="56" y="3.33333"/>
    </contour>
  </outline>
</glyph>
<glyph name="six" format="2">
  <advance width="709"/>
  <unicode hex="0036"/>
  <outline>
    <contour>
      <point x="383" y="367" type="curve"/>
      <point x="375.667" y="367"/>
      <point x="367.667" y="366"/>
      <point x="359" y="364" type="curve"/>
      <point x="359" y="365" type="line"/>
      <point x="334.333" y="359.667"/>
      <point x="314" y="347.333"/>
      <point x="298" y="328" type="curve" smooth="yes"/>
      <point x="282" y="308.667"/>
      <point x="274" y="286"/>
      <point x="274" y="260" type="curve"/>
      <point x="274" y="224"/>
      <point x="288.667" y="195.333"/>
      <point x="318" y="174" type="curve"/>
      <point x="328" y="168"/>
      <point x="338.667" y="162.667"/>
      <point x="350" y="158" type="curve"/>
      <point x="353.333" y="157.333"/>
      <point x="356.333" y="156.667"/>
      <point x="359" y="156" type="curve"/>
      <point x="359" y="157" type="line"/>
      <point x="366.333" y="155"/>
      <point x="374.333" y="154"/>
      <point x="383" y="154" type="curve"/>
      <point x="391" y="154"/>
      <point x="399" y="155"/>
      <point x="407" y="157" type="curve"/>
      <point x="407" y="156" type="line"/>
      <point x="431.667" y="161.333"/>
      <point x="452" y="173.667"/>
      <point x="468" y="193" type="curve" smooth="yes"/>
      <point x="484" y="212.333"/>
      <point x="492" y="234.667"/>
      <point x="492" y="260" type="curve"/>
      <point x="492" y="286"/>
      <point x="484" y="308.667"/>
      <point x="468" y="328" type="curve" smooth="yes"/>
      <point x="452" y="347.333"/>
      <point x="431.667" y="359.667"/>
      <point x="407" y="365" type="curve"/>
      <point x="407" y="364" type="line"/>
      <point x="399" y="366"/>
      <point x="391" y="367"/>
    </contour>
    <contour>
      <point x="432" y="612" type="curve"/>
      <point x="375.333" y="612"/>
      <point x="325.667" y="593.333"/>
      <point x="283" y="556" type="curve" smooth="yes"/>
      <point x="240.333" y="518.667"/>
      <point x="214.667" y="472"/>
      <point x="206" y="416" type="curve"/>
      <point x="252.667" y="466.667"/>
      <point x="310.333" y="494.333"/>
      <point x="379" y="499" type="curve"/>
      <point x="384.333" y="499.667"/>
      <point x="389" y="500"/>
      <point x="393" y="500" type="curve"/>
      <point x="396" y="500"/>
      <point x="396" y="500"/>
      <point x="397" y="500" type="curve"/>
      <point x="398" y="500" type="line"/>
      <point x="399" y="500"/>
      <point x="399" y="500"/>
      <point x="401" y="500" type="curve"/>
      <point x="461.667" y="500"/>
      <point x="515.5" y="481.167"/>
      <point x="562.5" y="443.5" type="curve" smooth="yes"/>
      <point x="609.5" y="405.833"/>
      <point x="639.667" y="358"/>
      <point x="653" y="300" type="curve"/>
      <point x="657" y="281.333"/>
      <point x="659" y="262"/>
      <point x="659" y="242" type="curve"/>
      <point x="659" y="215.333"/>
      <point x="655" y="189.333"/>
      <point x="647" y="164" type="curve"/>
      <point x="627" y="101.333"/>
      <point x="588.333" y="53.3333"/>
      <point x="531" y="20" type="curve"/>
      <point x="498.333" y="-2.66667"/>
      <point x="465.333" y="-14"/>
      <point x="432" y="-14" type="curve"/>
      <point x="428" y="-14"/>
      <point x="428" y="-14"/>
      <point x="425" y="-14" type="curve"/>
      <point x="417" y="-14.6667"/>
      <point x="409" y="-15"/>
      <point x="401" y="-15" type="curve"/>
      <point x="400" y="-15"/>
      <point x="400" y="-15"/>
      <point x="399" y="-15" type="curve" smooth="yes"/>
      <point x="398" y="-15" type="line"/>
      <point x="397" y="-15" type="line"/>
      <point x="395" y="-15"/>
      <point x="395" y="-15"/>
      <point x="393" y="-15" type="curve"/>
      <point x="387.667" y="-15"/>
      <point x="383" y="-14.6667"/>
      <point x="379" y="-14" type="curve"/>
      <point x="325.667" y="-10"/>
      <point x="278.333" y="8.33333"/>
      <point x="237" y="41" type="curve"/>
      <point x="180.333" y="75.6667"/>
      <point x="135" y="123"/>
      <point x="101" y="183" type="curve" smooth="yes"/>
      <point x="67" y="243"/>
      <point x="50" y="308.667"/>
      <point x="50" y="380" type="curve"/>
      <point x="50" y="488.667"/>
      <point x="87.3333" y="581.333"/>
      <point x="162" y="658" type="curve" smooth="yes"/>
      <point x="236.667" y="734.667"/>
      <point x="326.667" y="773"/>
      <point x="432" y="773" type="curve"/>
      <point x="487.333" y="773"/>
      <point x="527" y="770.667"/>
      <point x="551" y="766" type="curve"/>
      <point x="551" y="600" type="line"/>
      <point x="541" y="603.333"/>
      <point x="522.667" y="606.167"/>
      <point x="496" y="608.5" type="curve" smooth="yes"/>
      <point x="469.333" y="610.833"/>
      <point x="448" y="612"/>
    </contour>
  </outline>
</glyph>
<glyph name="seven" format="2">
  <advance width="610"/>
  <unicode hex="0037"/>
  <outline>
    <contour>
      <point x="213" y="0" type="line"/>
      <point x="51" y="0" type="line"/>
      <point x="389" y="610" type="line"/>
      <point x="50" y="610" type="line"/>
      <point x="50" y="762" type="line"/>
      <point x="560" y="762" type="line"/>
      <point x="560" y="610" type="line"/>
    </contour>
  </outline>
</glyph>
<glyph name="eight" format="2">
  <advance width="558"/>
  <unicode hex="0038"/>
  <outline>
    <contour>
      <point x="278" y="3" type="line"/>
      <point x="277" y="3" type="line"/>
      <point x="276" y="3"/>
      <point x="276" y="3"/>
      <point x="274" y="3" type="curve"/>
      <point x="269.333" y="3"/>
      <point x="265.333" y="3.33333"/>
      <point x="262" y="4" type="curve"/>
      <point x="202" y="8"/>
      <point x="151.667" y="31.6667"/>
      <point x="111" y="75" type="curve" smooth="yes"/>
      <point x="70.3333" y="118.333"/>
      <point x="50" y="169.667"/>
      <point x="50" y="229" type="curve"/>
      <point x="50" y="279"/>
      <point x="64.6667" y="324"/>
      <point x="94" y="364" type="curve"/>
      <point x="64.6667" y="403.333"/>
      <point x="50" y="448"/>
      <point x="50" y="498" type="curve"/>
      <point x="50" y="558"/>
      <point x="70.3333" y="609.667"/>
      <point x="111" y="653" type="curve" smooth="yes"/>
      <point x="151.667" y="696.333"/>
      <point x="202" y="720"/>
      <point x="262" y="724" type="curve"/>
      <point x="265.333" y="724.667"/>
      <point x="269.333" y="725"/>
      <point x="274" y="725" type="curve"/>
      <point x="276" y="725"/>
      <point x="276" y="725"/>
      <point x="277" y="725" type="curve"/>
      <point x="278" y="725" type="line"/>
      <point x="279" y="725"/>
      <point x="279" y="725"/>
      <point x="281" y="725" type="curve"/>
      <point x="343.667" y="725"/>
      <point x="397.167" y="702.833"/>
      <point x="441.5" y="658.5" type="curve" smooth="yes"/>
      <point x="485.833" y="614.167"/>
      <point x="508" y="560.667"/>
      <point x="508" y="498" type="curve"/>
      <point x="508" y="448"/>
      <point x="493.333" y="403.333"/>
      <point x="464" y="364" type="curve"/>
      <point x="493.333" y="324"/>
      <point x="508" y="279"/>
      <point x="508" y="229" type="curve"/>
      <point x="508" y="167"/>
      <point x="485.833" y="113.833"/>
      <point x="441.5" y="69.5" type="curve" smooth="yes"/>
      <point x="397.167" y="25.1667"/>
      <point x="343.667" y="3"/>
      <point x="281" y="3" type="curve"/>
      <point x="280" y="3"/>
      <point x="280" y="3"/>
      <point x="279" y="3" type="curve" smooth="yes"/>
    </contour>
    <contour>
      <point x="279" y="592" type="curve"/>
      <point x="271.667" y="592"/>
      <point x="264.667" y="591"/>
      <point x="258" y="589" type="curve"/>
      <point x="258" y="590" type="line"/>
      <point x="236" y="585.333"/>
      <point x="218" y="574.5"/>
      <point x="204" y="557.5" type="curve" smooth="yes"/>
      <point x="190" y="540.5"/>
      <point x="183" y="520.667"/>
      <point x="183" y="498" type="curve"/>
      <point x="183" y="475.333"/>
      <point x="190" y="455.5"/>
      <point x="204" y="438.5" type="curve" smooth="yes"/>
      <point x="218" y="421.5"/>
      <point x="236" y="410.667"/>
      <point x="258" y="406" type="curve"/>
      <point x="258" y="407" type="line"/>
      <point x="264.667" y="405.667"/>
      <point x="271.667" y="404.667"/>
      <point x="279" y="404" type="curve"/>
      <point x="286.333" y="404.667"/>
      <point x="293.333" y="405.667"/>
      <point x="300" y="407" type="curve"/>
      <point x="300" y="406" type="line"/>
      <point x="322" y="410.667"/>
      <point x="340" y="421.5"/>
      <point x="354" y="438.5" type="curve" smooth="yes"/>
      <point x="368" y="455.5"/>
      <point x="375" y="475.333"/>
      <point x="375" y="498" type="curve"/>
      <point x="375" y="520.667"/>
      <point x="368" y="540.5"/>
      <point x="354" y="557.5" type="curve" smooth="yes"/>
      <point x="340" y="574.5"/>
      <point x="322" y="585.333"/>
      <point x="300" y="590" type="curve"/>
      <point x="300" y="589" type="line"/>
      <point x="293.333" y="591"/>
      <point x="286.333" y="592"/>
    </contour>
    <contour>
      <point x="279" y="324" type="curve"/>
      <point x="271.667" y="323.333"/>
      <point x="264.667" y="322.333"/>
      <point x="258" y="321" type="curve"/>
      <point x="258" y="322" type="line"/>
      <point x="236" y="317.333"/>
      <point x="218" y="306.5"/>
      <point x="204" y="289.5" type="curve" smooth="yes"/>
      <point x="190" y="272.5"/>
      <point x="183" y="252.333"/>
      <point x="183" y="229" type="curve"/>
      <point x="183" y="207"/>
      <point x="190" y="187.5"/>
      <point x="204" y="170.5" type="curve" smooth="yes"/>
      <point x="218" y="153.5"/>
      <point x="236" y="142.667"/>
      <point x="258" y="138" type="curve"/>
      <point x="258" y="139" type="line"/>
      <point x="264.667" y="137"/>
      <point x="271.667" y="136"/>
      <point x="279" y="136" type="curve"/>
      <point x="286.333" y="136"/>
      <point x="293.333" y="137"/>
      <point x="300" y="139" type="curve"/>
      <point x="300" y="138" type="line"/>
      <point x="322" y="142.667"/>
      <point x="340" y="153.5"/>
      <point x="354" y="170.5" type="curve" smooth="yes"/>
      <point x="368" y="187.5"/>
      <point x="375" y="207"/>
      <point x="375" y="229" type="curve"/>
      <point x="375" y="252.333"/>
      <point x="368" y="272.5"/>
      <point x="354" y="289.5" type="curve" smooth="yes"/>
      <point x="340" y="306.5"/>
      <point x="322" y="317.333"/>
      <point x="300" y="322" type="curve"/>
      <point x="300" y="321" type="line"/>
      <point x="293.333" y="322.333"/>
      <point x="286.333" y="323.333"/>
    </contour>
  </outline>
</glyph>
<glyph name="nine" format="2">
  <advance width="709"/>
  <unicode hex="0039"/>
  <outline>
    <contour>
      <point x="326" y="391" type="curve"/>
      <point x="333.333" y="391"/>
      <point x="341.333" y="392"/>
      <point x="350" y="394" type="curve"/>
      <point x="350" y="393" type="line"/>
      <point x="374.667" y="398.333"/>
      <point x="395" y="410.667"/>
      <point x="411" y="430" type="curve" smooth="yes"/>
      <point x="427" y="449.333"/>
      <point x="435" y="472"/>
      <point x="435" y="498" type="curve"/>
      <point x="435" y="534"/>
      <point x="420.333" y="562.667"/>
      <point x="391" y="584" type="curve"/>
      <point x="381" y="590"/>
      <point x="370.333" y="595.333"/>
      <point x="359" y="600" type="curve"/>
      <point x="355.667" y="600.667"/>
      <point x="352.667" y="601.333"/>
      <point x="350" y="602" type="curve"/>
      <point x="350" y="601" type="line"/>
      <point x="342.667" y="603"/>
      <point x="334.667" y="604"/>
      <point x="326" y="604" type="curve"/>
      <point x="318" y="604"/>
      <point x="310" y="603"/>
      <point x="302" y="601" type="curve"/>
      <point x="302" y="602" type="line"/>
      <point x="277.333" y="596.667"/>
      <point x="257" y="584.333"/>
      <point x="241" y="565" type="curve" smooth="yes"/>
      <point x="225" y="545.667"/>
      <point x="217" y="523.333"/>
      <point x="217" y="498" type="curve"/>
      <point x="217" y="472"/>
      <point x="225" y="449.333"/>
      <point x="241" y="430" type="curve" smooth="yes"/>
      <point x="257" y="410.667"/>
      <point x="277.333" y="398.333"/>
      <point x="302" y="393" type="curve"/>
      <point x="302" y="394" type="line"/>
      <point x="310" y="392"/>
      <point x="318" y="391"/>
    </contour>
    <contour>
      <point x="277" y="146" type="curve"/>
      <point x="333.667" y="146"/>
      <point x="383.333" y="164.667"/>
      <point x="426" y="202" type="curve" smooth="yes"/>
      <point x="468.667" y="239.333"/>
      <point x="494.333" y="286"/>
      <point x="503" y="342" type="curve"/>
      <point x="456.333" y="291.333"/>
      <point x="398.667" y="263.667"/>
      <point x="330" y="259" type="curve"/>
      <point x="324.667" y="258.333"/>
      <point x="320" y="258"/>
      <point x="316" y="258" type="curve"/>
      <point x="313" y="258"/>
      <point x="313" y="258"/>
      <point x="312" y="258" type="curve"/>
      <point x="311" y="258" type="line"/>
      <point x="310" y="258"/>
      <point x="310" y="258"/>
      <point x="308" y="258" type="curve"/>
      <point x="247.333" y="258"/>
      <point x="193.5" y="276.833"/>
      <point x="146.5" y="314.5" type="curve" smooth="yes"/>
      <point x="99.5" y="352.167"/>
      <point x="69.3333" y="400"/>
      <point x="56" y="458" type="curve"/>
      <point x="52" y="476.667"/>
      <point x="50" y="496"/>
      <point x="50" y="516" type="curve"/>
      <point x="50" y="542.667"/>
      <point x="54" y="568.667"/>
      <point x="62" y="594" type="curve"/>
      <point x="82" y="656.667"/>
      <point x="120.667" y="704.667"/>
      <point x="178" y="738" type="curve"/>
      <point x="210.667" y="760.667"/>
      <point x="243.667" y="772"/>
      <point x="277" y="772" type="curve"/>
      <point x="281" y="772"/>
      <point x="281" y="772"/>
      <point x="284" y="772" type="curve"/>
      <point x="292" y="772.667"/>
      <point x="300" y="773"/>
      <point x="308" y="773" type="curve"/>
      <point x="309" y="773"/>
      <point x="309" y="773"/>
      <point x="310" y="773" type="curve" smooth="yes"/>
      <point x="311" y="773" type="line"/>
      <point x="312" y="773" type="line"/>
      <point x="314" y="773"/>
      <point x="314" y="773"/>
      <point x="316" y="773" type="curve"/>
      <point x="321.333" y="773"/>
      <point x="326" y="772.667"/>
      <point x="330" y="772" type="curve"/>
      <point x="383.333" y="768"/>
      <point x="430.667" y="749.667"/>
      <point x="472" y="717" type="curve"/>
      <point x="528.667" y="682.333"/>
      <point x="574" y="635"/>
      <point x="608" y="575" type="curve" smooth="yes"/>
      <point x="642" y="515"/>
      <point x="659" y="449.333"/>
      <point x="659" y="378" type="curve"/>
      <point x="659" y="269.333"/>
      <point x="621.667" y="176.667"/>
      <point x="547" y="100" type="curve" smooth="yes"/>
      <point x="472.333" y="23.3333"/>
      <point x="382.333" y="-15"/>
      <point x="277" y="-15" type="curve"/>
      <point x="221.667" y="-15"/>
      <point x="182" y="-12.6667"/>
      <point x="158" y="-8" type="curve"/>
      <point x="158" y="158" type="line"/>
      <point x="168" y="154.667"/>
      <point x="186.333" y="151.833"/>
      <point x="213" y="149.5" type="curve" smooth="yes"/>
      <point x="239.667" y="147.167"/>
      <point x="261" y="146"/>
    </contour>
  </outline>
</glyph>
<glyph name="colon" format="2">
  <advance width="252"/>
  <unicode hex="003A"/>
  <outline>
    <contour>
      <point x="50" y="-2" type="line"/>
      <point x="50" y="140" type="line"/>
      <point x="202" y="140" type="line"/>
      <point x="202" y="-2" type="line"/>
    </contour>
    <contour>
      <point x="50" y="398" type="line"/>
      <point x="50" y="540" type="line"/>
      <point x="202" y="540" type="line"/>
      <point x="202" y="398" type="line"/>
    </contour>
  </outline>
</glyph>
<glyph name="semicolon" format="2">
  <advance width="252"/>
  <unicode hex="003B"/>
  <outline>
    <contour>
      <point x="50" y="398" type="line"/>
      <point x="50" y="540" type="line"/>
      <point x="202" y="540" type="line"/>
      <point x="202" y="398" type="line"/>
    </contour>
    <contour>
      <point x="50" y="-2" type="line"/>
      <point x="50" y="140" type="line"/>
      <point x="202" y="140" type="line"/>
      <point x="202" y="-2" type="line"/>
      <point x="142" y="-134" type="line"/>
      <point x="84" y="-130" type="line"/>
      <point x="93" y="-2" type="line"/>
    </contour>
  </outline>
</glyph>
<glyph name="less" format="2">
  <advance width="644"/>
  <unicode hex="003C"/>
  <outline>
    <contour>
      <point x="594" y="546" type="line"/>
      <point x="594" y="394" type="line"/>
      <point x="380" y="338" type="line"/>
      <point x="594" y="296" type="line"/>
      <point x="594" y="144" type="line"/>
      <point x="50" y="250" type="line"/>
      <point x="50" y="251" type="line"/>
      <point x="50" y="402" type="line"/>
      <point x="50" y="403" type="line"/>
    </contour>
  </outline>
</glyph>
<glyph name="equal" format="2">
  <advance width="644"/>
  <unicode hex="003D"/>
  <outline>
    <contour>
      <point x="594" y="546" type="line"/>
      <point x="594" y="394" type="line"/>
      <point x="50" y="394" type="line"/>
      <point x="50" y="546" type="line"/>
    </contour>
    <contour>
      <point x="594" y="296" type="line"/>
      <point x="594" y="144" type="line"/>
      <point x="50" y="144" type="line"/>
      <point x="50" y="296" type="line"/>
    </contour>
  </outline>
</glyph>
<glyph name="greater" format="2">
  <advance width="644"/>
  <unicode hex="003E"/>
  <outline>
    <contour>
      <point x="50" y="546" type="line"/>
      <point x="594" y="403" type="line"/>
      <point x="594" y="402" type="line"/>
      <point x="594" y="251" type="line"/>
      <point x="594" y="250" type="line"/>
      <point x="50" y="144" type="line"/>
      <point x="50" y="296" type="line"/>
      <point x="264" y="338" type="line"/>
      <point x="50" y="394" type="line"/>
    </contour>
  </outline>
</glyph>
<glyph name="question" format="2">
  <advance width="384"/>
  <unicode hex="003F"/>
  <outline>
    <contour>
      <point x="50" y="828" type="line"/>
      <point x="56" y="828.667"/>
      <point x="64.6667" y="829"/>
      <point x="76" y="829" type="curve"/>
      <point x="147.333" y="829"/>
      <point x="208.167" y="804"/>
      <point x="258.5" y="754" type="curve" smooth="yes"/>
      <point x="308.833" y="704"/>
      <point x="334" y="643.333"/>
      <point x="334" y="572" type="curve"/>
      <point x="334" y="524"/>
      <point x="322" y="480"/>
      <point x="298" y="440" type="curve" smooth="yes"/>
      <point x="274" y="400"/>
      <point x="242" y="369"/>
      <point x="202" y="347" type="curve"/>
      <point x="202" y="230" type="line"/>
      <point x="50" y="230" type="line"/>
      <point x="50" y="315" type="line"/>
      <point x="50" y="440" type="line"/>
      <point x="50" y="468" type="line"/>
      <point x="58" y="466"/>
      <point x="66.6667" y="465"/>
      <point x="76" y="465" type="curve"/>
      <point x="106" y="465"/>
      <point x="131.333" y="475.333"/>
      <point x="152" y="496" type="curve" smooth="yes"/>
      <point x="172.667" y="516.667"/>
      <point x="183" y="542"/>
      <point x="183" y="572" type="curve"/>
      <point x="183" y="601.333"/>
      <point x="172.667" y="626.333"/>
      <point x="152" y="647" type="curve" smooth="yes"/>
      <point x="131.333" y="667.667"/>
      <point x="106" y="678"/>
      <point x="76" y="678" type="curve"/>
      <point x="66.6667" y="678"/>
      <point x="58" y="677"/>
      <point x="50" y="675" type="curve"/>
    </contour>
    <contour>
      <point x="50" y="-2" type="line"/>
      <point x="50" y="140" type="line"/>
      <point x="202" y="140" type="line"/>
      <point x="202" y="-2" type="line"/>
    </contour>
  </outline>
</glyph>
<glyph name="at" format="2">
  <advance width="876"/>
  <unicode hex="0040"/>
  <outline>
    <contour>
      <point x="567.555" y="236" type="line"/>
    </contour>
    <contour>
      <point x="530.555" y="166" type="line"/>
    </contour>
    <contour>
      <point x="493.555" y="228" type="curve"/>
      <point x="479.555" y="239" type="line"/>
      <point x="443.555" y="239"/>
      <point x="412.888" y="251.5"/>
      <point x="387.555" y="276.5" type="curve" smooth="yes"/>
      <point x="362.222" y="301.5"/>
      <point x="349.555" y="332"/>
      <point x="349.555" y="368" type="curve"/>
      <point x="349.555" y="403.333"/>
      <point x="362.222" y="432.833"/>
      <point x="387.555" y="456.5" type="curve" smooth="yes"/>
      <point x="412.888" y="480.167"/>
      <point x="443.555" y="492"/>
      <point x="479.555" y="492" type="curve"/>
      <point x="491.555" y="492" type="line"/>
      <point x="567.555" y="492" type="line"/>
      <point x="574.555" y="318" type="line"/>
      <point x="575.888" y="310"/>
      <point x="581.055" y="301.333"/>
      <point x="590.055" y="292" type="curve" smooth="yes"/>
      <point x="599.055" y="282.667"/>
      <point x="609.055" y="275.5"/>
      <point x="620.055" y="270.5" type="curve" smooth="yes"/>
      <point x="631.055" y="265.5"/>
      <point x="641.388" y="267.333"/>
      <point x="651.055" y="276" type="curve" smooth="yes"/>
      <point x="660.722" y="284.667"/>
      <point x="666.555" y="301.333"/>
      <point x="668.555" y="326" type="curve"/>
      <point x="668.555" y="326.667"/>
      <point x="667.888" y="329.333"/>
      <point x="666.555" y="334" type="curve" smooth="yes"/>
      <point x="665.222" y="338.667"/>
      <point x="664.555" y="341.333"/>
      <point x="664.555" y="342" type="curve"/>
      <point x="670.555" y="378"/>
      <point x="668.222" y="413.5"/>
      <point x="657.555" y="448.5" type="curve" smooth="yes"/>
      <point x="646.888" y="483.5"/>
      <point x="628.222" y="514.333"/>
      <point x="601.555" y="541" type="curve"/>
      <point x="556.222" y="585.667"/>
      <point x="501.722" y="607.5"/>
      <point x="438.055" y="606.5" type="curve" smooth="yes"/>
      <point x="374.388" y="605.5"/>
      <point x="319.888" y="582.333"/>
      <point x="274.555" y="537" type="curve"/>
      <point x="228.555" y="491"/>
      <point x="205.222" y="436.167"/>
      <point x="204.555" y="372.5" type="curve" smooth="yes"/>
      <point x="203.888" y="308.833"/>
      <point x="225.888" y="254.333"/>
      <point x="270.555" y="209" type="curve"/>
      <point x="305.222" y="174.333"/>
      <point x="346.555" y="153.333"/>
      <point x="394.555" y="146" type="curve" smooth="yes"/>
      <point x="442.555" y="138.667"/>
      <point x="487.888" y="145.333"/>
      <point x="530.555" y="166" type="curve"/>
      <point x="537.888" y="169.333"/>
      <point x="550.888" y="161.667"/>
      <point x="569.555" y="143" type="curve" smooth="yes"/>
      <point x="588.222" y="124.333"/>
      <point x="605.222" y="104.667"/>
      <point x="620.555" y="84" type="curve"/>
      <point x="643.555" y="54" type="line"/>
      <point x="568.222" y="3.33333"/>
      <point x="484.888" y="-18.1667"/>
      <point x="393.555" y="-10.5" type="curve" smooth="yes"/>
      <point x="302.222" y="-2.83333"/>
      <point x="224.222" y="33.3333"/>
      <point x="159.555" y="98" type="curve"/>
      <point x="84.8881" y="172.667"/>
      <point x="48.388" y="263.667"/>
      <point x="50.0547" y="371" type="curve" smooth="yes"/>
      <point x="51.7214" y="478.333"/>
      <point x="90.8881" y="570.333"/>
      <point x="167.555" y="647" type="curve" smooth="yes"/>
      <point x="244.222" y="723.667"/>
      <point x="336.055" y="762.833"/>
      <point x="443.055" y="764.5" type="curve" smooth="yes"/>
      <point x="550.055" y="766.167"/>
      <point x="640.888" y="729.667"/>
      <point x="715.555" y="655" type="curve"/>
      <point x="771.555" y="599"/>
      <point x="806.555" y="530"/>
      <point x="820.555" y="448" type="curve" smooth="yes"/>
      <point x="834.555" y="366"/>
      <point x="825.555" y="290"/>
      <point x="793.555" y="220" type="curve"/>
      <point x="778.888" y="211.333"/>
      <point x="764.222" y="204.333"/>
      <point x="749.555" y="199" type="curve" smooth="yes"/>
      <point x="734.888" y="193.667"/>
      <point x="719.388" y="190.5"/>
      <point x="703.055" y="189.5" type="curve" smooth="yes"/>
      <point x="686.722" y="188.5"/>
      <point x="672.888" y="187.833"/>
      <point x="661.555" y="187.5" type="curve" smooth="yes"/>
      <point x="650.222" y="187.167"/>
      <point x="635.555" y="189.167"/>
      <point x="617.555" y="193.5" type="curve" smooth="yes"/>
      <point x="599.555" y="197.833"/>
      <point x="586.388" y="201"/>
      <point x="578.055" y="203" type="curve" smooth="yes"/>
      <point x="569.722" y="205"/>
      <point x="555.055" y="209.167"/>
      <point x="534.055" y="215.5" type="curve" smooth="yes"/>
      <point x="513.055" y="221.833"/>
      <point x="499.555" y="226"/>
    </contour>
    <contour>
      <point x="491.555" y="420" type="line"/>
      <point x="488.888" y="420.667"/>
      <point x="484.888" y="421"/>
      <point x="479.555" y="421" type="curve"/>
      <point x="464.222" y="421"/>
      <point x="451.388" y="415.833"/>
      <point x="441.055" y="405.5" type="curve" smooth="yes"/>
      <point x="430.722" y="395.167"/>
      <point x="425.555" y="382.667"/>
      <point x="425.555" y="368" type="curve" smooth="yes"/>
      <point x="425.555" y="353.333"/>
      <point x="430.722" y="340.667"/>
      <point x="441.055" y="330" type="curve" smooth="yes"/>
      <point x="451.388" y="319.333"/>
      <point x="464.222" y="314"/>
      <point x="479.555" y="314" type="curve"/>
      <point x="482.222" y="314"/>
      <point x="486.222" y="314.667"/>
      <point x="491.555" y="316" type="curve"/>
    </contour>
  </outline>
</glyph>
<glyph name="A" format="2">
  <advance width="752"/>
  <unicode hex="0041"/>
  <outline>
    <contour>
      <point x="407" y="367" type="line"/>
      <point x="357" y="535" type="line"/>
      <point x="297" y="367" type="line"/>
    </contour>
    <contour>
      <point x="550" y="0" type="line"/>
      <point x="461" y="228" type="line"/>
      <point x="461" y="227" type="line"/>
      <point x="261" y="227" type="line"/>
      <point x="202" y="0" type="line"/>
      <point x="50" y="0" type="line"/>
      <point x="266" y="769" type="line"/>
      <point x="418" y="769" type="line"/>
      <point x="702" y="0" type="line"/>
    </contour>
  </outline>
</glyph>
<glyph name="B" format="2">
  <advance width="534"/>
  <unicode hex="0042"/>
  <outline>
    <contour>
      <point x="202" y="454" type="line"/>
      <point x="210" y="452"/>
      <point x="218" y="451"/>
      <point x="226" y="451" type="curve"/>
      <point x="256" y="451"/>
      <point x="281.333" y="461.333"/>
      <point x="302" y="482" type="curve" smooth="yes"/>
      <point x="322.667" y="502.667"/>
      <point x="333" y="527.667"/>
      <point x="333" y="557" type="curve"/>
      <point x="333" y="587"/>
      <point x="322.667" y="612.333"/>
      <point x="302" y="633" type="curve" smooth="yes"/>
      <point x="281.333" y="653.667"/>
      <point x="256" y="664"/>
      <point x="226" y="664" type="curve"/>
      <point x="218" y="664"/>
      <point x="210" y="663"/>
      <point x="202" y="661" type="curve"/>
    </contour>
    <contour>
      <point x="202" y="136" type="line"/>
      <point x="210" y="134"/>
      <point x="218" y="133"/>
      <point x="226" y="133" type="curve"/>
      <point x="256" y="133"/>
      <point x="281.333" y="143.333"/>
      <point x="302" y="164" type="curve" smooth="yes"/>
      <point x="322.667" y="184.667"/>
      <point x="333" y="209.667"/>
      <point x="333" y="239" type="curve"/>
      <point x="333" y="269"/>
      <point x="322.667" y="294.333"/>
      <point x="302" y="315" type="curve" smooth="yes"/>
      <point x="281.333" y="335.667"/>
      <point x="256" y="346"/>
      <point x="226" y="346" type="curve"/>
      <point x="218" y="346"/>
      <point x="210" y="345"/>
      <point x="202" y="343" type="curve"/>
    </contour>
    <contour>
      <point x="202" y="780" type="line"/>
      <point x="208" y="780"/>
      <point x="208" y="780"/>
      <point x="220" y="780" type="curve"/>
      <point x="291.333" y="780"/>
      <point x="352.167" y="754.833"/>
      <point x="402.5" y="704.5" type="curve" smooth="yes"/>
      <point x="452.833" y="654.167"/>
      <point x="478" y="593.333"/>
      <point x="478" y="522" type="curve"/>
      <point x="478" y="506.667"/>
      <point x="473.333" y="491.667"/>
      <point x="464" y="477" type="curve" smooth="yes"/>
      <point x="454.667" y="462.333"/>
      <point x="441.833" y="446.333"/>
      <point x="425.5" y="429" type="curve" smooth="yes"/>
      <point x="409.167" y="411.667"/>
      <point x="399" y="400.667"/>
      <point x="395" y="396" type="curve"/>
      <point x="396.333" y="394.667"/>
      <point x="407.167" y="383.333"/>
      <point x="427.5" y="362" type="curve" smooth="yes"/>
      <point x="447.833" y="340.667"/>
      <point x="462.333" y="322.5"/>
      <point x="471" y="307.5" type="curve" smooth="yes"/>
      <point x="479.667" y="292.5"/>
      <point x="484" y="276.667"/>
      <point x="484" y="260" type="curve"/>
      <point x="484" y="188.667"/>
      <point x="458.833" y="128"/>
      <point x="408.5" y="78" type="curve" smooth="yes"/>
      <point x="358.167" y="28"/>
      <point x="297.333" y="3"/>
      <point x="226" y="3" type="curve"/>
      <point x="215.333" y="3"/>
      <point x="207.333" y="3.33333"/>
      <point x="202" y="4" type="curve"/>
      <point x="50" y="4" type="line"/>
      <point x="50" y="780" type="line"/>
    </contour>
  </outline>
</glyph>
<glyph name="D" format="2">
  <advance width="630"/>
  <unicode hex="0044"/>
  <outline>
    <contour>
      <point x="202" y="143" type="line"/>
      <point x="264.667" y="144.333"/>
      <point x="317.833" y="167.833"/>
      <point x="361.5" y="213.5" type="curve" smooth="yes"/>
      <point x="405.167" y="259.167"/>
      <point x="427" y="314"/>
      <point x="427" y="378" type="curve"/>
      <point x="427" y="442"/>
      <point x="405.167" y="496.667"/>
      <point x="361.5" y="542" type="curve" smooth="yes"/>
      <point x="317.833" y="587.333"/>
      <point x="264.667" y="610.667"/>
      <point x="202" y="612" type="curve"/>
    </contour>
    <contour>
      <point x="50" y="768" type="line"/>
      <point x="60" y="764.667"/>
      <point x="84.6667" y="764.667"/>
      <point x="124" y="768" type="curve" smooth="yes"/>
      <point x="163.333" y="771.333"/>
      <point x="188" y="773"/>
      <point x="198" y="773" type="curve"/>
      <point x="303.333" y="773"/>
      <point x="393.333" y="734.667"/>
      <point x="468" y="658" type="curve" smooth="yes"/>
      <point x="542.667" y="581.333"/>
      <point x="580" y="488.667"/>
      <point x="580" y="380" type="curve"/>
      <point x="580" y="308.667"/>
      <point x="563.167" y="243"/>
      <point x="529.5" y="183" type="curve" smooth="yes"/>
      <point x="495.833" y="123"/>
      <point x="450" y="75.3333"/>
      <point x="392" y="40" type="curve" smooth="yes"/>
      <point x="334" y="4.66667"/>
      <point x="270.667" y="-13.3333"/>
      <point x="202" y="-14" type="curve"/>
      <point x="50" y="-14" type="line"/>
    </contour>
  </outline>
</glyph>
<glyph name="E" format="2">
  <advance width="668"/>
  <unicode hex="0045"/>
  <outline>
    <contour>
      <point x="509" y="485" type="line"/>
      <point x="510" y="333" type="line"/>
      <point x="202" y="333" type="line"/>
      <point x="202" y="149" type="line"/>
      <point x="617" y="149" type="line"/>
      <point x="618" y="-3" type="line"/>
      <point x="51" y="-3" type="line"/>
      <point x="51" y="-2" type="line"/>
      <point x="50" y="-2" type="line"/>
      <point x="50" y="774" type="line"/>
      <point x="50" y="778" type="line"/>
      <point x="617" y="778" type="line"/>
      <point x="618" y="626" type="line"/>
      <point x="202" y="626" type="line"/>
      <point x="202" y="485" type="line"/>
    </contour>
  </outline>
</glyph>
<glyph name="F" format="2">
  <advance width="668"/>
  <unicode hex="0046"/>
  <outline>
    <contour>
      <point x="509" y="485" type="line"/>
      <point x="510" y="333" type="line"/>
      <point x="202" y="333" type="line"/>
      <point x="202" y="-2" type="line"/>
      <point x="50" y="-2" type="line"/>
      <point x="50" y="774" type="line"/>
      <point x="50" y="778" type="line"/>
      <point x="617" y="778" type="line"/>
      <point x="618" y="626" type="line"/>
      <point x="202" y="626" type="line"/>
      <point x="202" y="485" type="line"/>
    </contour>
  </outline>
</glyph>
<glyph name="G" format="2">
  <advance width="651"/>
  <unicode hex="0047"/>
  <outline>
    <contour>
      <point x="432" y="612" type="curve"/>
      <point x="368.667" y="612"/>
      <point x="314.667" y="589.167"/>
      <point x="270" y="543.5" type="curve" smooth="yes"/>
      <point x="225.333" y="497.833"/>
      <point x="203" y="442.667"/>
      <point x="203" y="378" type="curve"/>
      <point x="203" y="312.667"/>
      <point x="225.333" y="257.167"/>
      <point x="270" y="211.5" type="curve" smooth="yes"/>
      <point x="314.667" y="165.833"/>
      <point x="368.667" y="143"/>
      <point x="432" y="143" type="curve"/>
      <point x="438" y="143"/>
      <point x="443.667" y="143.333"/>
      <point x="449" y="144" type="curve"/>
      <point x="449" y="313" type="line"/>
      <point x="601" y="313" type="line"/>
      <point x="601" y="-14" type="line"/>
      <point x="449" y="-14" type="line"/>
      <point x="441" y="-14"/>
      <point x="441" y="-14"/>
      <point x="432" y="-14" type="curve"/>
      <point x="326.667" y="-14"/>
      <point x="236.667" y="24.5"/>
      <point x="162" y="101.5" type="curve" smooth="yes"/>
      <point x="87.3333" y="178.5"/>
      <point x="50" y="271.333"/>
      <point x="50" y="380" type="curve" smooth="yes"/>
      <point x="50" y="488.667"/>
      <point x="87.3333" y="581.333"/>
      <point x="162" y="658" type="curve" smooth="yes"/>
      <point x="236.667" y="734.667"/>
      <point x="326.667" y="773"/>
      <point x="432" y="773" type="curve"/>
      <point x="456.667" y="773"/>
      <point x="481" y="770.667"/>
      <point x="505" y="766" type="curve"/>
      <point x="505" y="600" type="line"/>
      <point x="481.667" y="608"/>
      <point x="457.333" y="612"/>
    </contour>
  </outline>
</glyph>
<glyph name="H" format="2">
  <advance width="652"/>
  <unicode hex="0048"/>
  <outline>
    <contour>
      <point x="450" y="774" type="line"/>
      <point x="602" y="774" type="line"/>
      <point x="602" y="-2" type="line"/>
      <point x="450" y="-2" type="line"/>
      <point x="450" y="333" type="line"/>
      <point x="202" y="333" type="line"/>
      <point x="202" y="-2" type="line"/>
      <point x="50" y="-2" type="line"/>
      <point x="50" y="774" type="line"/>
      <point x="202" y="774" type="line"/>
      <point x="202" y="485" type="line"/>
      <point x="450" y="485" type="line"/>
    </contour>
  </outline>
</glyph>
<glyph name="I" format="2">
  <advance width="252"/>
  <unicode hex="0049"/>
  <outline>
    <contour>
      <point x="50" y="774" type="line"/>
      <point x="202" y="774" type="line"/>
      <point x="202" y="-2" type="line"/>
      <point x="50" y="-2" type="line"/>
    </contour>
  </outline>
</glyph>
<glyph name="J" format="2">
  <advance width="419"/>
  <unicode hex="004A"/>
  <outline>
    <contour>
      <point x="50" y="6" type="curve"/>
      <point x="50" y="174" type="line"/>
      <point x="70.6667" y="156.667"/>
      <point x="94.3333" y="148"/>
      <point x="121" y="148" type="curve"/>
      <point x="153.667" y="148"/>
      <point x="180.667" y="160.333"/>
      <point x="202" y="185" type="curve"/>
      <point x="202" y="761" type="line"/>
      <point x="369" y="761" type="line"/>
      <point x="366" y="184" type="line"/>
      <point x="350" y="128.667"/>
      <point x="319.667" y="83.6667"/>
      <point x="275" y="49" type="curve" smooth="yes"/>
      <point x="230.333" y="14.3333"/>
      <point x="179" y="-3"/>
      <point x="121" y="-3" type="curve"/>
      <point x="96.3333" y="-3"/>
      <point x="72.6667" y="0"/>
    </contour>
  </outline>
</glyph>
<glyph name="K" format="2">
  <advance width="753"/>
  <unicode hex="004B"/>
  <outline>
    <contour>
      <point x="50" y="774" type="line"/>
      <point x="202" y="774" type="line"/>
      <point x="202" y="433" type="line"/>
      <point x="447" y="770" type="line"/>
      <point x="633" y="768" type="line"/>
      <point x="372" y="387" type="line"/>
      <point x="703" y="-3" type="line"/>
      <point x="511" y="-2" type="line"/>
      <point x="259" y="302" type="line"/>
      <point x="202" y="219" type="line"/>
      <point x="202" y="-2" type="line"/>
      <point x="50" y="-2" type="line"/>
    </contour>
  </outline>
</glyph>
<glyph name="L" format="2">
  <advance width="718"/>
  <unicode hex="004C"/>
  <outline>
    <contour>
      <point x="50" y="774" type="line"/>
      <point x="202" y="774" type="line"/>
      <point x="202" y="149" type="line"/>
      <point x="667" y="149" type="line"/>
      <point x="668" y="-3" type="line"/>
      <point x="51" y="-3" type="line"/>
      <point x="51" y="-2" type="line"/>
      <point x="50" y="-2" type="line"/>
    </contour>
  </outline>
</glyph>
<glyph name="M" format="2">
  <advance width="1052"/>
  <unicode hex="004D"/>
  <outline>
    <contour>
      <point x="50" y="768" type="line"/>
      <point x="202" y="768" type="line"/>
      <point x="526" y="146" type="line"/>
      <point x="850" y="768" type="line"/>
      <point x="1002" y="768" type="line"/>
      <point x="1002" y="-2" type="line"/>
      <point x="850" y="-2" type="line"/>
      <point x="850" y="476" type="line"/>
      <point x="602" y="0" type="line"/>
      <point x="450" y="0" type="line"/>
      <point x="202" y="476" type="line"/>
      <point x="202" y="-2" type="line"/>
      <point x="50" y="-2" type="line"/>
    </contour>
  </outline>
</glyph>
<glyph name="N" format="2">
  <advance width="852"/>
  <unicode hex="004E"/>
  <outline>
    <contour>
      <point x="50" y="774" type="line"/>
      <point x="202" y="774" type="line"/>
      <point x="650" y="251" type="line"/>
      <point x="650" y="774" type="line"/>
      <point x="802" y="774" type="line"/>
      <point x="802" y="-2" type="line"/>
      <point x="650" y="-2" type="line"/>
      <point x="202" y="523" type="line"/>
      <point x="202" y="-2" type="line"/>
      <point x="50" y="-2" type="line"/>
    </contour>
  </outline>
</glyph>
<glyph name="O" format="2">
  <advance width="864"/>
  <unicode hex="004F"/>
  <outline>
    <contour>
      <point x="661" y="378" type="curve"/>
      <point x="661" y="442.667"/>
      <point x="638.667" y="497.833"/>
      <point x="594" y="543.5" type="curve" smooth="yes"/>
      <point x="549.333" y="589.167"/>
      <point x="495.333" y="612"/>
      <point x="432" y="612" type="curve" smooth="yes"/>
      <point x="368.667" y="612"/>
      <point x="314.667" y="589.167"/>
      <point x="270" y="543.5" type="curve" smooth="yes"/>
      <point x="225.333" y="497.833"/>
      <point x="203" y="442.667"/>
      <point x="203" y="378" type="curve"/>
      <point x="203" y="312.667"/>
      <point x="225.333" y="257.167"/>
      <point x="270" y="211.5" type="curve" smooth="yes"/>
      <point x="314.667" y="165.833"/>
      <point x="368.667" y="143"/>
      <point x="432" y="143" type="curve" smooth="yes"/>
      <point x="495.333" y="143"/>
      <point x="549.333" y="165.833"/>
      <point x="594" y="211.5" type="curve" smooth="yes"/>
      <point x="638.667" y="257.167"/>
      <point x="661" y="312.667"/>
    </contour>
    <contour>
      <point x="814" y="380" type="curve" smooth="yes"/>
      <point x="814" y="271.333"/>
      <point x="776.667" y="178.5"/>
      <point x="702" y="101.5" type="curve" smooth="yes"/>
      <point x="627.333" y="24.5"/>
      <point x="537.333" y="-14"/>
      <point x="432" y="-14" type="curve" smooth="yes"/>
      <point x="326.667" y="-14"/>
      <point x="236.667" y="24.5"/>
      <point x="162" y="101.5" type="curve" smooth="yes"/>
      <point x="87.3333" y="178.5"/>
      <point x="50" y="271.333"/>
      <point x="50" y="380" type="curve" smooth="yes"/>
      <point x="50" y="488.667"/>
      <point x="87.3333" y="581.333"/>
      <point x="162" y="658" type="curve" smooth="yes"/>
      <point x="236.667" y="734.667"/>
      <point x="326.667" y="773"/>
      <point x="432" y="773" type="curve" smooth="yes"/>
      <point x="537.333" y="773"/>
      <point x="627.333" y="734.667"/>
      <point x="702" y="658" type="curve" smooth="yes"/>
      <point x="776.667" y="581.333"/>
      <point x="814" y="488.667"/>
    </contour>
  </outline>
</glyph>
<glyph name="P" format="2">
  <advance width="534"/>
  <unicode hex="0050"/>
  <outline>
    <contour>
      <point x="202" y="626" type="curve"/>
      <point x="202" y="419" type="line"/>
      <point x="210" y="417"/>
      <point x="218" y="416"/>
      <point x="226" y="416" type="curve"/>
      <point x="256" y="416"/>
      <point x="281.333" y="426.333"/>
      <point x="302" y="447" type="curve" smooth="yes"/>
      <point x="322.667" y="467.667"/>
      <point x="333" y="493"/>
      <point x="333" y="523" type="curve"/>
      <point x="333" y="552.333"/>
      <point x="322.667" y="577.333"/>
      <point x="302" y="598" type="curve" smooth="yes"/>
      <point x="281.333" y="618.667"/>
      <point x="256" y="629"/>
      <point x="226" y="629" type="curve"/>
      <point x="218" y="629"/>
      <point x="210" y="628"/>
    </contour>
    <contour>
      <point x="202" y="3" type="line"/>
      <point x="50" y="3" type="line"/>
      <point x="50" y="779" type="line"/>
      <point x="202" y="779" type="line"/>
      <point x="207.333" y="779.667"/>
      <point x="215.333" y="780"/>
      <point x="226" y="780" type="curve"/>
      <point x="297.333" y="780"/>
      <point x="358.167" y="755"/>
      <point x="408.5" y="705" type="curve" smooth="yes"/>
      <point x="458.833" y="655"/>
      <point x="484" y="594.333"/>
      <point x="484" y="523" type="curve" smooth="yes"/>
      <point x="484" y="451.667"/>
      <point x="458.833" y="390.833"/>
      <point x="408.5" y="340.5" type="curve" smooth="yes"/>
      <point x="358.167" y="290.167"/>
      <point x="297.333" y="265"/>
      <point x="226" y="265" type="curve"/>
      <point x="215.333" y="265"/>
      <point x="207.333" y="265.333"/>
      <point x="202" y="266" type="curve"/>
    </contour>
  </outline>
</glyph>
<glyph name="Q" format="2">
  <advance width="872"/>
  <unicode hex="0051"/>
  <outline>
    <contour>
      <point x="814" y="380" type="curve"/>
      <point x="814" y="322"/>
      <point x="802.667" y="267.5"/>
      <point x="780" y="216.5" type="curve" smooth="yes"/>
      <point x="757.333" y="165.5"/>
      <point x="725.667" y="121.667"/>
      <point x="685" y="85" type="curve"/>
      <point x="822" y="-52" type="line"/>
      <point x="684" y="-191" type="line"/>
      <point x="501" y="-8" type="line"/>
      <point x="478.333" y="-12"/>
      <point x="455.333" y="-14"/>
      <point x="432" y="-14" type="curve"/>
      <point x="326.667" y="-14"/>
      <point x="236.667" y="24.5"/>
      <point x="162" y="101.5" type="curve" smooth="yes"/>
      <point x="87.3333" y="178.5"/>
      <point x="50" y="271.333"/>
      <point x="50" y="380" type="curve" smooth="yes"/>
      <point x="50" y="488.667"/>
      <point x="87.3333" y="581.333"/>
      <point x="162" y="658" type="curve" smooth="yes"/>
      <point x="236.667" y="734.667"/>
      <point x="326.667" y="773"/>
      <point x="432" y="773" type="curve" smooth="yes"/>
      <point x="537.333" y="773"/>
      <point x="627.333" y="734.667"/>
      <point x="702" y="658" type="curve" smooth="yes"/>
      <point x="776.667" y="581.333"/>
      <point x="814" y="488.667"/>
    </contour>
    <contour>
      <point x="661" y="378" type="curve"/>
      <point x="661" y="442.667"/>
      <point x="638.667" y="497.833"/>
      <point x="594" y="543.5" type="curve" smooth="yes"/>
      <point x="549.333" y="589.167"/>
      <point x="495.333" y="612"/>
      <point x="432" y="612" type="curve" smooth="yes"/>
      <point x="368.667" y="612"/>
      <point x="314.667" y="589.167"/>
      <point x="270" y="543.5" type="curve" smooth="yes"/>
      <point x="225.333" y="497.833"/>
      <point x="203" y="442.667"/>
      <point x="203" y="378" type="curve"/>
      <point x="203" y="312.667"/>
      <point x="225.333" y="257.167"/>
      <point x="270" y="211.5" type="curve" smooth="yes"/>
      <point x="314.667" y="165.833"/>
      <point x="368.667" y="143"/>
      <point x="432" y="143" type="curve" smooth="yes"/>
      <point x="495.333" y="143"/>
      <point x="549.333" y="165.833"/>
      <point x="594" y="211.5" type="curve" smooth="yes"/>
      <point x="638.667" y="257.167"/>
      <point x="661" y="312.667"/>
    </contour>
  </outline>
</glyph>
<glyph name="R" format="2">
  <advance width="562"/>
  <unicode hex="0052"/>
  <outline>
    <contour>
      <point x="202" y="3" type="line"/>
      <point x="50" y="3" type="line"/>
      <point x="50" y="779" type="line"/>
      <point x="202" y="779" type="line"/>
      <point x="207.333" y="779.667"/>
      <point x="215.333" y="780"/>
      <point x="226" y="780" type="curve"/>
      <point x="297.333" y="780"/>
      <point x="358.167" y="755"/>
      <point x="408.5" y="705" type="curve" smooth="yes"/>
      <point x="458.833" y="655"/>
      <point x="484" y="594.333"/>
      <point x="484" y="523" type="curve"/>
      <point x="484" y="467.667"/>
      <point x="468.167" y="417.833"/>
      <point x="436.5" y="373.5" type="curve" smooth="yes"/>
      <point x="404.833" y="329.167"/>
      <point x="363.667" y="298"/>
      <point x="313" y="280" type="curve"/>
      <point x="512" y="-3" type="line"/>
      <point x="372" y="-3" type="line"/>
      <point x="207" y="266" type="line"/>
      <point x="204" y="266"/>
      <point x="204" y="266"/>
      <point x="202" y="266" type="curve"/>
    </contour>
    <contour>
      <point x="202" y="626" type="curve"/>
      <point x="202" y="419" type="line"/>
      <point x="210" y="417"/>
      <point x="218" y="416"/>
      <point x="226" y="416" type="curve"/>
      <point x="256" y="416"/>
      <point x="281.333" y="426.333"/>
      <point x="302" y="447" type="curve" smooth="yes"/>
      <point x="322.667" y="467.667"/>
      <point x="333" y="493"/>
      <point x="333" y="523" type="curve"/>
      <point x="333" y="552.333"/>
      <point x="322.667" y="577.333"/>
      <point x="302" y="598" type="curve" smooth="yes"/>
      <point x="281.333" y="618.667"/>
      <point x="256" y="629"/>
      <point x="226" y="629" type="curve"/>
      <point x="218" y="629"/>
      <point x="210" y="628"/>
    </contour>
  </outline>
</glyph>
<glyph name="S" format="2">
  <advance width="519"/>
  <unicode hex="0053"/>
  <outline>
    <contour>
      <point x="50" y="57" type="curve"/>
      <point x="125" y="182" type="line"/>
      <point x="133" y="175.333"/>
      <point x="140.333" y="170.333"/>
      <point x="147" y="167" type="curve"/>
      <point x="172.333" y="152.333"/>
      <point x="199" y="148.5"/>
      <point x="227" y="155.5" type="curve" smooth="yes"/>
      <point x="255" y="162.5"/>
      <point x="276.667" y="178"/>
      <point x="292" y="202" type="curve"/>
      <point x="306.667" y="228"/>
      <point x="305.833" y="252.167"/>
      <point x="289.5" y="274.5" type="curve" smooth="yes"/>
      <point x="273.167" y="296.833"/>
      <point x="250.667" y="310.333"/>
      <point x="222" y="315" type="curve"/>
      <point x="177.333" y="339"/>
      <point x="141.5" y="366.667"/>
      <point x="114.5" y="398" type="curve" smooth="yes"/>
      <point x="87.5" y="429.333"/>
      <point x="70.5" y="465.833"/>
      <point x="63.5" y="507.5" type="curve" smooth="yes"/>
      <point x="56.5" y="549.167"/>
      <point x="67.3333" y="593"/>
      <point x="96" y="639" type="curve"/>
      <point x="130.667" y="697"/>
      <point x="182.333" y="734.5"/>
      <point x="251" y="751.5" type="curve" smooth="yes"/>
      <point x="319.667" y="768.5"/>
      <point x="385.333" y="760.333"/>
      <point x="448" y="727" type="curve"/>
      <point x="450" y="725"/>
      <point x="453.5" y="722.5"/>
      <point x="458.5" y="719.5" type="curve" smooth="yes"/>
      <point x="463.5" y="716.5"/>
      <point x="467" y="714"/>
      <point x="469" y="712" type="curve"/>
      <point x="394" y="587" type="line"/>
      <point x="386" y="593.667"/>
      <point x="378.667" y="598.667"/>
      <point x="372" y="602" type="curve"/>
      <point x="346.667" y="616"/>
      <point x="319.833" y="619.5"/>
      <point x="291.5" y="612.5" type="curve" smooth="yes"/>
      <point x="263.167" y="605.5"/>
      <point x="241.667" y="589.667"/>
      <point x="227" y="565" type="curve"/>
      <point x="210.333" y="537.667"/>
      <point x="208.833" y="507.667"/>
      <point x="222.5" y="475" type="curve" smooth="yes"/>
      <point x="236.167" y="442.333"/>
      <point x="259" y="423.333"/>
      <point x="291" y="418" type="curve"/>
      <point x="323.667" y="400.667"/>
      <point x="351.167" y="383.167"/>
      <point x="373.5" y="365.5" type="curve" smooth="yes"/>
      <point x="395.833" y="347.833"/>
      <point x="415.167" y="327.167"/>
      <point x="431.5" y="303.5" type="curve" smooth="yes"/>
      <point x="447.833" y="279.833"/>
      <point x="455.5" y="253.333"/>
      <point x="454.5" y="224" type="curve" smooth="yes"/>
      <point x="453.5" y="194.667"/>
      <point x="442.667" y="163.333"/>
      <point x="422" y="130" type="curve"/>
      <point x="387.333" y="71.3333"/>
      <point x="335.833" y="33.5"/>
      <point x="267.5" y="16.5" type="curve" smooth="yes"/>
      <point x="199.167" y="-0.5"/>
      <point x="133.667" y="8"/>
      <point x="71" y="42" type="curve"/>
      <point x="69" y="44"/>
      <point x="65.5" y="46.5"/>
      <point x="60.5" y="49.5" type="curve" smooth="yes"/>
      <point x="55.5" y="52.5"/>
      <point x="52" y="55"/>
    </contour>
  </outline>
</glyph>
<glyph name="T" format="2">
  <advance width="676"/>
  <unicode hex="0054"/>
  <outline>
    <contour>
      <point x="50" y="614" type="line"/>
      <point x="50" y="766" type="line"/>
      <point x="626" y="766" type="line"/>
      <point x="626" y="614" type="line"/>
      <point x="414" y="614" type="line"/>
      <point x="414" y="-2" type="line"/>
      <point x="262" y="-2" type="line"/>
      <point x="262" y="614" type="line"/>
    </contour>
  </outline>
</glyph>
<glyph name="U" format="2">
  <advance width="669"/>
  <unicode hex="0055"/>
  <outline>
    <contour>
      <point x="616" y="184" type="line"/>
      <point x="605.333" y="145.333"/>
      <point x="585.167" y="112.167"/>
      <point x="555.5" y="84.5" type="curve" smooth="yes"/>
      <point x="525.833" y="56.8333"/>
      <point x="492.333" y="36.5"/>
      <point x="455" y="23.5" type="curve" smooth="yes"/>
      <point x="417.667" y="10.5"/>
      <point x="377.667" y="3.83333"/>
      <point x="335" y="3.5" type="curve" smooth="yes"/>
      <point x="292.333" y="3.16667"/>
      <point x="252.167" y="9.33333"/>
      <point x="214.5" y="22" type="curve" smooth="yes"/>
      <point x="176.833" y="34.6667"/>
      <point x="143.333" y="55"/>
      <point x="114" y="83" type="curve" smooth="yes"/>
      <point x="84.6667" y="111"/>
      <point x="64.3333" y="144.667"/>
      <point x="53" y="184" type="curve"/>
      <point x="50" y="761" type="line"/>
      <point x="217" y="761" type="line"/>
      <point x="217" y="185" type="line"/>
      <point x="236.333" y="163"/>
      <point x="275.667" y="151.833"/>
      <point x="335" y="151.5" type="curve" smooth="yes"/>
      <point x="394.333" y="151.167"/>
      <point x="433.333" y="162.333"/>
      <point x="452" y="185" type="curve"/>
      <point x="452" y="761" type="line"/>
      <point x="619" y="761" type="line"/>
    </contour>
  </outline>
</glyph>
<glyph name="V" format="2">
  <advance width="652"/>
  <unicode hex="0056"/>
  <outline>
    <contour>
      <point x="50" y="769" type="line"/>
      <point x="202" y="769" type="line"/>
      <point x="326" y="292" type="line"/>
      <point x="450" y="769" type="line"/>
      <point x="602" y="769" type="line"/>
      <point x="402" y="0" type="line"/>
      <point x="250" y="0" type="line"/>
    </contour>
  </outline>
</glyph>
<glyph name="W" format="2">
  <advance width="1053"/>
  <unicode hex="0057"/>
  <outline>
    <contour>
      <point x="50" y="769" type="line"/>
      <point x="202" y="769" type="line"/>
      <point x="326" y="292" type="line"/>
      <point x="450" y="769" type="line"/>
      <point x="451" y="769" type="line"/>
      <point x="602" y="769" type="line"/>
      <point x="603" y="769" type="line"/>
      <point x="727" y="292" type="line"/>
      <point x="851" y="769" type="line"/>
      <point x="1003" y="769" type="line"/>
      <point x="803" y="0" type="line"/>
      <point x="651" y="0" type="line"/>
      <point x="526" y="479" type="line"/>
      <point x="402" y="0" type="line"/>
      <point x="250" y="0" type="line"/>
    </contour>
  </outline>
</glyph>
<glyph name="X" format="2">
  <advance width="724"/>
  <unicode hex="0058"/>
  <outline>
    <contour>
      <point x="50" y="770" type="line"/>
      <point x="236" y="768" type="line"/>
      <point x="366" y="541" type="line"/>
      <point x="498" y="769" type="line"/>
      <point x="673" y="768" type="line"/>
      <point x="453" y="388" type="line"/>
      <point x="674" y="0" type="line"/>
      <point x="499" y="-2" type="line"/>
      <point x="363" y="233" type="line"/>
      <point x="229" y="2" type="line"/>
      <point x="51" y="-1" type="line"/>
      <point x="274" y="384" type="line"/>
    </contour>
  </outline>
</glyph>
<glyph name="Y" format="2">
  <advance width="652"/>
  <unicode hex="0059"/>
  <outline>
    <contour>
      <point x="249" y="451" type="line"/>
      <point x="50" y="765" type="line"/>
      <point x="202" y="765" type="line"/>
      <point x="326" y="594" type="line"/>
      <point x="450" y="765" type="line"/>
      <point x="602" y="765" type="line"/>
      <point x="402" y="450" type="line"/>
      <point x="401" y="450" type="line"/>
      <point x="401" y="1" type="line"/>
      <point x="249" y="1" type="line"/>
    </contour>
  </outline>
</glyph>
<glyph name="Z" format="2">
  <advance width="783"/>
  <unicode hex="005A"/>
  <outline>
    <contour>
      <point x="50" y="10" type="line"/>
      <point x="50" y="162" type="line"/>
      <point x="480" y="610" type="line"/>
      <point x="50" y="610" type="line"/>
      <point x="50" y="762" type="line"/>
      <point x="733" y="762" type="line"/>
      <point x="733" y="610" type="line"/>
      <point x="301" y="162" type="line"/>
      <point x="733" y="162" type="line"/>
      <point x="733" y="10" type="line"/>
    </contour>
  </outline>
</glyph>
<glyph name="bracketleft" format="2">
  <advance width="362"/>
  <unicode hex="005B"/>
  <outline>
    <contour>
      <point x="51" y="-80" type="line"/>
      <point x="50" y="-80" type="line"/>
      <point x="50" y="-79" type="line"/>
      <point x="50" y="773" type="line"/>
      <point x="50" y="774" type="line"/>
      <point x="51" y="774" type="line"/>
      <point x="312" y="774" type="line"/>
      <point x="311" y="689" type="line"/>
      <point x="144" y="689" type="line"/>
      <point x="144" y="5" type="line"/>
      <point x="311" y="5" type="line"/>
      <point x="312" y="-80" type="line"/>
    </contour>
  </outline>
</glyph>
<glyph name="backslash" format="2">
  <advance width="691"/>
  <unicode hex="005C"/>
  <outline>
    <contour>
      <point x="156" y="818" type="line"/>
      <point x="641" y="-22" type="line"/>
      <point x="535" y="-83" type="line"/>
      <point x="50" y="757" type="line"/>
    </contour>
  </outline>
</glyph>
<glyph name="bracketright" format="2">
  <advance width="362"/>
  <unicode hex="005D"/>
  <outline>
    <contour>
      <point x="311" y="-81" type="line"/>
      <point x="50" y="-81" type="line"/>
      <point x="51" y="4" type="line"/>
      <point x="218" y="4" type="line"/>
      <point x="218" y="689" type="line"/>
      <point x="51" y="689" type="line"/>
      <point x="50" y="774" type="line"/>
      <point x="311" y="774" type="line"/>
      <point x="312" y="774" type="line"/>
      <point x="312" y="773" type="line"/>
      <point x="312" y="-80" type="line"/>
      <point x="312" y="-81" type="line"/>
    </contour>
  </outline>
</glyph>
<glyph name="asciicircum" format="2">
  <advance width="502"/>
  <unicode hex="005E"/>
  <outline>
    <contour>
      <point x="50" y="283" type="line"/>
      <point x="193" y="617" type="line"/>
      <point x="194" y="617" type="line"/>
      <point x="345" y="617" type="line"/>
      <point x="346" y="617" type="line"/>
      <point x="452" y="283" type="line"/>
      <point x="300" y="283" type="line"/>
      <point x="258" y="497" type="line"/>
      <point x="202" y="283" type="line"/>
    </contour>
  </outline>
</glyph>
<glyph name="underscore" format="2">
  <advance width="644"/>
  <unicode hex="005F"/>
  <outline>
    <contour>
      <point x="594" y="196" type="line"/>
      <point x="594" y="44" type="line"/>
      <point x="50" y="44" type="line"/>
      <point x="50" y="196" type="line"/>
    </contour>
  </outline>
</glyph>
<glyph name="grave" format="2">
  <advance width="390"/>
  <unicode hex="0060"/>
  <outline>
    <contour>
      <point x="232" y="516" type="line"/>
      <point x="50" y="698" type="line"/>
      <point x="158" y="805" type="line"/>
      <point x="340" y="623" type="line"/>
    </contour>
  </outline>
</glyph>
<glyph name="a" format="2">
  <advance width="534"/>
  <unicode hex="0061"/>
  <outline>
    <contour>
      <point x="332" y="369" type="line"/>
      <point x="324" y="371"/>
      <point x="316" y="372"/>
      <point x="308" y="372" type="curve"/>
      <point x="278" y="372"/>
      <point x="252.667" y="361.667"/>
      <point x="232" y="341" type="curve" smooth="yes"/>
      <point x="211.333" y="320.333"/>
      <point x="201" y="295.333"/>
      <point x="201" y="266" type="curve"/>
      <point x="201" y="236"/>
      <point x="211.333" y="210.667"/>
      <point x="232" y="190" type="curve" smooth="yes"/>
      <point x="252.667" y="169.333"/>
      <point x="278" y="159"/>
      <point x="308" y="159" type="curve"/>
      <point x="316" y="159"/>
      <point x="324" y="160"/>
      <point x="332" y="162" type="curve"/>
    </contour>
    <contour>
      <point x="332" y="1" type="line"/>
      <point x="332" y="9" type="line"/>
      <point x="326.667" y="8.33333"/>
      <point x="318.667" y="8"/>
      <point x="308" y="8" type="curve"/>
      <point x="236.667" y="8"/>
      <point x="175.833" y="33.1667"/>
      <point x="125.5" y="83.5" type="curve" smooth="yes"/>
      <point x="75.1667" y="133.833"/>
      <point x="50" y="194.667"/>
      <point x="50" y="266" type="curve"/>
      <point x="50" y="336.667"/>
      <point x="75" y="395.833"/>
      <point x="125" y="443.5" type="curve" smooth="yes"/>
      <point x="175" y="491.167"/>
      <point x="236" y="515"/>
      <point x="308" y="515" type="curve"/>
      <point x="318.667" y="515"/>
      <point x="326.667" y="514.667"/>
      <point x="332" y="514" type="curve"/>
      <point x="484" y="514" type="line"/>
      <point x="484" y="1" type="line"/>
    </contour>
  </outline>
</glyph>
<glyph name="b" format="2">
  <advance width="534"/>
  <unicode hex="0062"/>
  <outline>
    <contour>
      <point x="202" y="157" type="line"/>
      <point x="210" y="155"/>
      <point x="218" y="154"/>
      <point x="226" y="154" type="curve"/>
      <point x="256" y="154"/>
      <point x="281.333" y="164.333"/>
      <point x="302" y="185" type="curve" smooth="yes"/>
      <point x="322.667" y="205.667"/>
      <point x="333" y="230.667"/>
      <point x="333" y="260" type="curve"/>
      <point x="333" y="290"/>
      <point x="322.667" y="315.333"/>
      <point x="302" y="336" type="curve" smooth="yes"/>
      <point x="281.333" y="356.667"/>
      <point x="256" y="367"/>
      <point x="226" y="367" type="curve"/>
      <point x="218" y="367"/>
      <point x="210" y="366"/>
      <point x="202" y="364" type="curve"/>
    </contour>
    <contour>
      <point x="202" y="780" type="line"/>
      <point x="202" y="517" type="line"/>
      <point x="207.333" y="517.667"/>
      <point x="215.333" y="518"/>
      <point x="226" y="518" type="curve"/>
      <point x="297.333" y="518"/>
      <point x="358.167" y="492.833"/>
      <point x="408.5" y="442.5" type="curve" smooth="yes"/>
      <point x="458.833" y="392.167"/>
      <point x="484" y="331.333"/>
      <point x="484" y="260" type="curve" smooth="yes"/>
      <point x="484" y="188.667"/>
      <point x="458.833" y="128"/>
      <point x="408.5" y="78" type="curve" smooth="yes"/>
      <point x="358.167" y="28"/>
      <point x="297.333" y="3"/>
      <point x="226" y="3" type="curve"/>
      <point x="215.333" y="3"/>
      <point x="207.333" y="3.33333"/>
      <point x="202" y="4" type="curve"/>
      <point x="50" y="4" type="line"/>
      <point x="50" y="780" type="line"/>
    </contour>
  </outline>
</glyph>
<glyph name="c" format="2">
  <advance width="384"/>
  <unicode hex="0063"/>
  <outline>
    <contour>
      <point x="334" y="4" type="line"/>
      <point x="325.333" y="3.33333"/>
      <point x="316.667" y="3"/>
      <point x="308" y="3" type="curve"/>
      <point x="236.667" y="3"/>
      <point x="175.833" y="28"/>
      <point x="125.5" y="78" type="curve" smooth="yes"/>
      <point x="75.1667" y="128"/>
      <point x="50" y="188.667"/>
      <point x="50" y="260" type="curve" smooth="yes"/>
      <point x="50" y="331.333"/>
      <point x="75.1667" y="392.167"/>
      <point x="125.5" y="442.5" type="curve" smooth="yes"/>
      <point x="175.833" y="492.833"/>
      <point x="236.667" y="518"/>
      <point x="308" y="518" type="curve"/>
      <point x="316.667" y="518"/>
      <point x="325.333" y="517.667"/>
      <point x="334" y="517" type="curve"/>
      <point x="334" y="364" type="line"/>
      <point x="325.333" y="366"/>
      <point x="316.667" y="367"/>
      <point x="308" y="367" type="curve"/>
      <point x="278" y="367"/>
      <point x="252.667" y="356.667"/>
      <point x="232" y="336" type="curve" smooth="yes"/>
      <point x="211.333" y="315.333"/>
      <point x="201" y="290"/>
      <point x="201" y="260" type="curve"/>
      <point x="201" y="230.667"/>
      <point x="211.333" y="205.667"/>
      <point x="232" y="185" type="curve" smooth="yes"/>
      <point x="252.667" y="164.333"/>
      <point x="278" y="154"/>
      <point x="308" y="154" type="curve"/>
      <point x="316.667" y="154"/>
      <point x="325.333" y="155"/>
      <point x="334" y="157" type="curve"/>
    </contour>
  </outline>
</glyph>
<glyph name="e" format="2">
  <advance width="617"/>
  <unicode hex="0065"/>
  <outline>
    <contour>
      <point x="211" y="297" type="curve"/>
      <point x="407" y="294" type="line"/>
      <point x="404.333" y="296.667"/>
      <point x="397.667" y="304.333"/>
      <point x="387" y="317" type="curve" smooth="yes"/>
      <point x="376.333" y="329.667"/>
      <point x="368" y="339.167"/>
      <point x="362" y="345.5" type="curve" smooth="yes"/>
      <point x="356" y="351.833"/>
      <point x="347.833" y="358.333"/>
      <point x="337.5" y="365" type="curve" smooth="yes"/>
      <point x="327.167" y="371.667"/>
      <point x="317.333" y="375"/>
      <point x="308" y="375" type="curve"/>
      <point x="298.667" y="375"/>
      <point x="289" y="371.833"/>
      <point x="279" y="365.5" type="curve" smooth="yes"/>
      <point x="269" y="359.167"/>
      <point x="260.833" y="352.667"/>
      <point x="254.5" y="346" type="curve" smooth="yes"/>
      <point x="248.167" y="339.333"/>
      <point x="240" y="330.333"/>
      <point x="230" y="319" type="curve" smooth="yes"/>
      <point x="220" y="307.667"/>
      <point x="213.667" y="300.333"/>
    </contour>
    <contour>
      <point x="566" y="260" type="curve"/>
      <point x="566" y="253.333"/>
      <point x="566.167" y="244.167"/>
      <point x="566.5" y="232.5" type="curve" smooth="yes"/>
      <point x="566.833" y="220.833"/>
      <point x="567" y="212.667"/>
      <point x="567" y="208" type="curve"/>
      <point x="216" y="205" type="line"/>
      <point x="225.333" y="189.667"/>
      <point x="238.167" y="177.333"/>
      <point x="254.5" y="168" type="curve" smooth="yes"/>
      <point x="270.833" y="158.667"/>
      <point x="288.667" y="154"/>
      <point x="308" y="154" type="curve"/>
      <point x="330.667" y="154"/>
      <point x="376.5" y="154.833"/>
      <point x="445.5" y="156.5" type="curve" smooth="yes"/>
      <point x="514.5" y="158.167"/>
      <point x="551.667" y="160"/>
      <point x="557" y="162" type="curve"/>
      <point x="557" y="6" type="line"/>
      <point x="544.333" y="4"/>
      <point x="461.333" y="3"/>
      <point x="308" y="3" type="curve"/>
      <point x="236.667" y="3"/>
      <point x="175.833" y="28"/>
      <point x="125.5" y="78" type="curve" smooth="yes"/>
      <point x="75.1667" y="128"/>
      <point x="50" y="188.667"/>
      <point x="50" y="260" type="curve" smooth="yes"/>
      <point x="50" y="331.333"/>
      <point x="75.1667" y="392.167"/>
      <point x="125.5" y="442.5" type="curve" smooth="yes"/>
      <point x="175.833" y="492.833"/>
      <point x="236.667" y="518"/>
      <point x="308" y="518" type="curve" smooth="yes"/>
      <point x="379.333" y="518"/>
      <point x="440.167" y="492.833"/>
      <point x="490.5" y="442.5" type="curve" smooth="yes"/>
      <point x="540.833" y="392.167"/>
      <point x="566" y="331.333"/>
    </contour>
  </outline>
</glyph>
<glyph name="f" format="2">
  <advance width="514"/>
  <unicode hex="0066"/>
  <outline>
    <contour>
      <point x="464" y="752" type="curve"/>
      <point x="464" y="584" type="line"/>
      <point x="443.333" y="601.333"/>
      <point x="419.667" y="610"/>
      <point x="393" y="610" type="curve"/>
      <point x="360.333" y="610"/>
      <point x="333.333" y="597.667"/>
      <point x="312" y="573" type="curve"/>
      <point x="312" y="511" type="line"/>
      <point x="409" y="511" type="line"/>
      <point x="409" y="359" type="line"/>
      <point x="312" y="359" type="line"/>
      <point x="312" y="-3" type="line"/>
      <point x="145" y="-3" type="line"/>
      <point x="147" y="359" type="line"/>
      <point x="50" y="359" type="line"/>
      <point x="50" y="511" type="line"/>
      <point x="148" y="511" type="line"/>
      <point x="148" y="574" type="line"/>
      <point x="164" y="629.333"/>
      <point x="194.333" y="674.333"/>
      <point x="239" y="709" type="curve" smooth="yes"/>
      <point x="283.667" y="743.667"/>
      <point x="335" y="761"/>
      <point x="393" y="761" type="curve"/>
      <point x="417.667" y="761"/>
      <point x="441.333" y="758"/>
    </contour>
  </outline>
</glyph>
<glyph name="g" format="2">
  <advance width="620"/>
  <unicode hex="0067"/>
  <outline>
    <contour>
      <point x="309" y="3" type="line"/>
      <point x="308" y="3" type="line"/>
      <point x="306" y="3"/>
      <point x="306" y="3"/>
      <point x="304" y="3" type="curve"/>
      <point x="300" y="3" type="line"/>
      <point x="275.333" y="3"/>
      <point x="261.667" y="3.33333"/>
      <point x="259" y="4" type="curve"/>
      <point x="193.667" y="8.66667"/>
      <point x="142.5" y="34.8333"/>
      <point x="105.5" y="82.5" type="curve" smooth="yes"/>
      <point x="68.5" y="130.167"/>
      <point x="50" y="189.333"/>
      <point x="50" y="260" type="curve"/>
      <point x="50" y="328"/>
      <point x="73.1667" y="386.833"/>
      <point x="119.5" y="436.5" type="curve" smooth="yes"/>
      <point x="165.833" y="486.167"/>
      <point x="222.667" y="513"/>
      <point x="290" y="517" type="curve"/>
      <point x="294" y="517.667"/>
      <point x="298.667" y="518"/>
      <point x="304" y="518" type="curve"/>
      <point x="306" y="518"/>
      <point x="306" y="518"/>
      <point x="308" y="518" type="curve"/>
      <point x="309" y="518" type="line"/>
      <point x="310" y="518"/>
      <point x="310" y="518"/>
      <point x="312" y="518" type="curve"/>
      <point x="383.333" y="518"/>
      <point x="444.167" y="493"/>
      <point x="494.5" y="443" type="curve" smooth="yes"/>
      <point x="544.833" y="393"/>
      <point x="570" y="332.333"/>
      <point x="570" y="261" type="curve"/>
      <point x="570" y="260" type="line"/>
      <point x="570" y="257"/>
      <point x="570" y="257"/>
      <point x="570" y="253" type="curve"/>
      <point x="567" y="-18" type="line"/>
      <point x="551" y="-73.3333"/>
      <point x="521.167" y="-118.333"/>
      <point x="477.5" y="-153" type="curve" smooth="yes"/>
      <point x="433.833" y="-187.667"/>
      <point x="383" y="-205"/>
      <point x="325" y="-205" type="curve"/>
      <point x="211" y="-205"/>
      <point x="142.667" y="-202"/>
      <point x="120" y="-196" type="curve"/>
      <point x="120" y="-28" type="line"/>
      <point x="128" y="-34.6667"/>
      <point x="158.333" y="-40.6667"/>
      <point x="211" y="-46" type="curve" smooth="yes"/>
      <point x="263.667" y="-51.3333"/>
      <point x="301.667" y="-54"/>
      <point x="325" y="-54" type="curve"/>
      <point x="342.333" y="-54"/>
      <point x="359.833" y="-50.6667"/>
      <point x="377.5" y="-44" type="curve" smooth="yes"/>
      <point x="395.167" y="-37.3333"/>
      <point x="409" y="-28.3333"/>
      <point x="419" y="-17" type="curve"/>
      <point x="419" y="26" type="line"/>
      <point x="385" y="10.6667"/>
      <point x="349.333" y="3"/>
      <point x="312" y="3" type="curve"/>
      <point x="311" y="3"/>
      <point x="311" y="3"/>
      <point x="310" y="3" type="curve" smooth="yes"/>
    </contour>
    <contour>
      <point x="310" y="367" type="curve"/>
      <point x="301.333" y="367"/>
      <point x="293.333" y="366"/>
      <point x="286" y="364" type="curve"/>
      <point x="286" y="365" type="line"/>
      <point x="261.333" y="359.667"/>
      <point x="241" y="347.333"/>
      <point x="225" y="328" type="curve" smooth="yes"/>
      <point x="209" y="308.667"/>
      <point x="201" y="286"/>
      <point x="201" y="260" type="curve"/>
      <point x="201" y="234.667"/>
      <point x="209" y="212.333"/>
      <point x="225" y="193" type="curve" smooth="yes"/>
      <point x="241" y="173.667"/>
      <point x="261.333" y="161.333"/>
      <point x="286" y="156" type="curve"/>
      <point x="286" y="157" type="line"/>
      <point x="293.333" y="155"/>
      <point x="301.333" y="154"/>
      <point x="310" y="154" type="curve"/>
      <point x="318" y="154"/>
      <point x="326" y="155"/>
      <point x="334" y="157" type="curve"/>
      <point x="334" y="156" type="line"/>
      <point x="358.667" y="161.333"/>
      <point x="379" y="173.667"/>
      <point x="395" y="193" type="curve" smooth="yes"/>
      <point x="411" y="212.333"/>
      <point x="419" y="234.667"/>
      <point x="419" y="260" type="curve"/>
      <point x="419" y="286"/>
      <point x="411" y="308.667"/>
      <point x="395" y="328" type="curve" smooth="yes"/>
      <point x="379" y="347.333"/>
      <point x="358.667" y="359.667"/>
      <point x="334" y="365" type="curve"/>
      <point x="334" y="364" type="line"/>
      <point x="326" y="366"/>
      <point x="318" y="367"/>
    </contour>
  </outline>
</glyph>
<glyph name="h" format="2">
  <advance width="597"/>
  <unicode hex="0068"/>
  <outline>
    <contour>
      <point x="50" y="768" type="line"/>
      <point x="219" y="768" type="line"/>
      <point x="219" y="512" type="line"/>
      <point x="245" y="520"/>
      <point x="271.667" y="524"/>
      <point x="299" y="524" type="curve"/>
      <point x="357" y="524"/>
      <point x="408.333" y="506.667"/>
      <point x="453" y="472" type="curve" smooth="yes"/>
      <point x="497.667" y="437.333"/>
      <point x="528" y="392.333"/>
      <point x="544" y="337" type="curve"/>
      <point x="547" y="6" type="line"/>
      <point x="380" y="6" type="line"/>
      <point x="380" y="336" type="line"/>
      <point x="358.667" y="360.667"/>
      <point x="331.667" y="373"/>
      <point x="299" y="373" type="curve"/>
      <point x="267" y="373"/>
      <point x="240.333" y="361.333"/>
      <point x="219" y="338" type="curve"/>
      <point x="219" y="6" type="line"/>
      <point x="50" y="6" type="line"/>
    </contour>
  </outline>
</glyph>
<glyph name="k" format="2">
  <advance width="688"/>
  <unicode hex="006B"/>
  <outline>
    <contour>
      <point x="50" y="752" type="line"/>
      <point x="191" y="752" type="line"/>
      <point x="191" y="317" type="line"/>
      <point x="436" y="514" type="line"/>
      <point x="629" y="512" type="line"/>
      <point x="368" y="284" type="line"/>
      <point x="638" y="-3" type="line"/>
      <point x="452" y="-2" type="line"/>
      <point x="248" y="226" type="line"/>
      <point x="191" y="154" type="line"/>
      <point x="191" y="-2" type="line"/>
      <point x="50" y="-2" type="line"/>
    </contour>
  </outline>
</glyph>
<glyph name="l" format="2">
  <advance width="419"/>
  <unicode hex="006C"/>
  <outline>
    <contour>
      <point x="369" y="6" type="line"/>
      <point x="346.333" y="0"/>
      <point x="322.667" y="-3"/>
      <point x="298" y="-3" type="curve"/>
      <point x="240" y="-3"/>
      <point x="188.667" y="14.3333"/>
      <point x="144" y="49" type="curve" smooth="yes"/>
      <point x="99.3333" y="83.6667"/>
      <point x="69" y="128.667"/>
      <point x="53" y="184" type="curve"/>
      <point x="50" y="761" type="line"/>
      <point x="217" y="761" type="line"/>
      <point x="217" y="185" type="line"/>
      <point x="238.333" y="160.333"/>
      <point x="265.333" y="148"/>
      <point x="298" y="148" type="curve"/>
      <point x="324.667" y="148"/>
      <point x="348.333" y="156.667"/>
      <point x="369" y="174" type="curve"/>
    </contour>
  </outline>
</glyph>
<glyph name="m" format="2">
  <advance width="924"/>
  <unicode hex="006D"/>
  <outline>
    <contour>
      <point x="50" y="522" type="line"/>
      <point x="219" y="522" type="line"/>
      <point x="219" y="512" type="line"/>
      <point x="245" y="520"/>
      <point x="271.667" y="524"/>
      <point x="299" y="524" type="curve"/>
      <point x="359" y="524"/>
      <point x="412" y="505.333"/>
      <point x="458" y="468" type="curve"/>
      <point x="546" y="512" type="line"/>
      <point x="572" y="520"/>
      <point x="598.667" y="524"/>
      <point x="626" y="524" type="curve"/>
      <point x="684" y="524"/>
      <point x="735.333" y="506.667"/>
      <point x="780" y="472" type="curve" smooth="yes"/>
      <point x="824.667" y="437.333"/>
      <point x="855" y="392.333"/>
      <point x="871" y="337" type="curve"/>
      <point x="874" y="6" type="line"/>
      <point x="707" y="6" type="line"/>
      <point x="707" y="336" type="line"/>
      <point x="685.667" y="360.667"/>
      <point x="658.667" y="373"/>
      <point x="626" y="373" type="curve"/>
      <point x="594" y="373"/>
      <point x="567.333" y="361.333"/>
      <point x="546" y="338" type="curve"/>
      <point x="546" y="116" type="line"/>
      <point x="547" y="6" type="line"/>
      <point x="546" y="6" type="line"/>
      <point x="380" y="6" type="line"/>
      <point x="377" y="6" type="line"/>
      <point x="380" y="323" type="line"/>
      <point x="380" y="336" type="line"/>
      <point x="358.667" y="360.667"/>
      <point x="331.667" y="373"/>
      <point x="299" y="373" type="curve"/>
      <point x="267" y="373"/>
      <point x="240.333" y="361.333"/>
      <point x="219" y="338" type="curve"/>
      <point x="219" y="6" type="line"/>
      <point x="50" y="6" type="line"/>
    </contour>
  </outline>
</glyph>
<glyph name="o" format="2">
  <advance width="620"/>
  <unicode hex="006F"/>
  <outline>
    <contour>
      <point x="310" y="367" type="curve"/>
      <point x="301.333" y="367"/>
      <point x="293.333" y="366"/>
      <point x="286" y="364" type="curve"/>
      <point x="286" y="365" type="line"/>
      <point x="261.333" y="359.667"/>
      <point x="241" y="347.333"/>
      <point x="225" y="328" type="curve" smooth="yes"/>
      <point x="209" y="308.667"/>
      <point x="201" y="286"/>
      <point x="201" y="260" type="curve"/>
      <point x="201" y="234.667"/>
      <point x="209" y="212.333"/>
      <point x="225" y="193" type="curve" smooth="yes"/>
      <point x="241" y="173.667"/>
      <point x="261.333" y="161.333"/>
      <point x="286" y="156" type="curve"/>
      <point x="286" y="157" type="line"/>
      <point x="293.333" y="155"/>
      <point x="301.333" y="154"/>
      <point x="310" y="154" type="curve"/>
      <point x="318" y="154"/>
      <point x="326" y="155"/>
      <point x="334" y="157" type="curve"/>
      <point x="334" y="156" type="line"/>
      <point x="358.667" y="161.333"/>
      <point x="379" y="173.667"/>
      <point x="395" y="193" type="curve" smooth="yes"/>
      <point x="411" y="212.333"/>
      <point x="419" y="234.667"/>
      <point x="419" y="260" type="curve"/>
      <point x="419" y="286"/>
      <point x="411" y="308.667"/>
      <point x="395" y="328" type="curve" smooth="yes"/>
      <point x="379" y="347.333"/>
      <point x="358.667" y="359.667"/>
      <point x="334" y="365" type="curve"/>
      <point x="334" y="364" type="line"/>
      <point x="326" y="366"/>
      <point x="318" y="367"/>
    </contour>
    <contour>
      <point x="309" y="3" type="line"/>
      <point x="308" y="3" type="line"/>
      <point x="306" y="3"/>
      <point x="306" y="3"/>
      <point x="304" y="3" type="curve"/>
      <point x="298.667" y="3"/>
      <point x="294" y="3.33333"/>
      <point x="290" y="4" type="curve"/>
      <point x="222.667" y="8"/>
      <point x="165.833" y="34.6667"/>
      <point x="119.5" y="84" type="curve" smooth="yes"/>
      <point x="73.1667" y="133.333"/>
      <point x="50" y="192"/>
      <point x="50" y="260" type="curve"/>
      <point x="50" y="328"/>
      <point x="73.1667" y="386.833"/>
      <point x="119.5" y="436.5" type="curve" smooth="yes"/>
      <point x="165.833" y="486.167"/>
      <point x="222.667" y="513"/>
      <point x="290" y="517" type="curve"/>
      <point x="294" y="517.667"/>
      <point x="298.667" y="518"/>
      <point x="304" y="518" type="curve"/>
      <point x="306" y="518"/>
      <point x="306" y="518"/>
      <point x="308" y="518" type="curve"/>
      <point x="309" y="518" type="line"/>
      <point x="310" y="518"/>
      <point x="310" y="518"/>
      <point x="312" y="518" type="curve"/>
      <point x="383.333" y="518"/>
      <point x="444.167" y="492.833"/>
      <point x="494.5" y="442.5" type="curve" smooth="yes"/>
      <point x="544.833" y="392.167"/>
      <point x="570" y="331.333"/>
      <point x="570" y="260" type="curve" smooth="yes"/>
      <point x="570" y="188.667"/>
      <point x="544.833" y="128"/>
      <point x="494.5" y="78" type="curve" smooth="yes"/>
      <point x="444.167" y="28"/>
      <point x="383.333" y="3"/>
      <point x="312" y="3" type="curve"/>
      <point x="311" y="3"/>
      <point x="311" y="3"/>
      <point x="310" y="3" type="curve" smooth="yes"/>
    </contour>
  </outline>
</glyph>
<glyph name="p" format="2">
  <advance width="534"/>
  <unicode hex="0070"/>
  <outline>
    <contour>
      <point x="202" y="356" type="curve"/>
      <point x="202" y="149" type="line"/>
      <point x="210" y="147"/>
      <point x="218" y="146"/>
      <point x="226" y="146" type="curve"/>
      <point x="256" y="146"/>
      <point x="281.333" y="156.333"/>
      <point x="302" y="177" type="curve" smooth="yes"/>
      <point x="322.667" y="197.667"/>
      <point x="333" y="223"/>
      <point x="333" y="253" type="curve"/>
      <point x="333" y="282.333"/>
      <point x="322.667" y="307.333"/>
      <point x="302" y="328" type="curve" smooth="yes"/>
      <point x="281.333" y="348.667"/>
      <point x="256" y="359"/>
      <point x="226" y="359" type="curve"/>
      <point x="218" y="359"/>
      <point x="210" y="358"/>
    </contour>
    <contour>
      <point x="202" y="-202" type="line"/>
      <point x="50" y="-202" type="line"/>
      <point x="50" y="509" type="line"/>
      <point x="202" y="509" type="line"/>
      <point x="207.333" y="509.667"/>
      <point x="215.333" y="510"/>
      <point x="226" y="510" type="curve"/>
      <point x="297.333" y="510"/>
      <point x="358.167" y="485"/>
      <point x="408.5" y="435" type="curve" smooth="yes"/>
      <point x="458.833" y="385"/>
      <point x="484" y="324.333"/>
      <point x="484" y="253" type="curve" smooth="yes"/>
      <point x="484" y="181.667"/>
      <point x="458.833" y="120.833"/>
      <point x="408.5" y="70.5" type="curve" smooth="yes"/>
      <point x="358.167" y="20.1667"/>
      <point x="297.333" y="-5"/>
      <point x="226" y="-5" type="curve"/>
      <point x="215.333" y="-5"/>
      <point x="207.333" y="-4.66667"/>
      <point x="202" y="-4" type="curve"/>
    </contour>
  </outline>
</glyph>
<glyph name="q" format="2">
  <advance width="534"/>
  <unicode hex="0071"/>
  <outline>
    <contour>
      <point x="332" y="356" type="line"/>
      <point x="324" y="358"/>
      <point x="316" y="359"/>
      <point x="308" y="359" type="curve"/>
      <point x="278" y="359"/>
      <point x="252.667" y="348.667"/>
      <point x="232" y="328" type="curve" smooth="yes"/>
      <point x="211.333" y="307.333"/>
      <point x="201" y="282.333"/>
      <point x="201" y="253" type="curve"/>
      <point x="201" y="223"/>
      <point x="211.333" y="197.667"/>
      <point x="232" y="177" type="curve" smooth="yes"/>
      <point x="252.667" y="156.333"/>
      <point x="278" y="146"/>
      <point x="308" y="146" type="curve"/>
      <point x="316" y="146"/>
      <point x="324" y="147"/>
      <point x="332" y="149" type="curve"/>
    </contour>
    <contour>
      <point x="332" y="-202" type="line"/>
      <point x="332" y="-4" type="line"/>
      <point x="326.667" y="-4.66667"/>
      <point x="318.667" y="-5"/>
      <point x="308" y="-5" type="curve"/>
      <point x="236.667" y="-5"/>
      <point x="175.833" y="20.1667"/>
      <point x="125.5" y="70.5" type="curve" smooth="yes"/>
      <point x="75.1667" y="120.833"/>
      <point x="50" y="181.667"/>
      <point x="50" y="253" type="curve" smooth="yes"/>
      <point x="50" y="324.333"/>
      <point x="75.1667" y="385"/>
      <point x="125.5" y="435" type="curve" smooth="yes"/>
      <point x="175.833" y="485"/>
      <point x="236.667" y="510"/>
      <point x="308" y="510" type="curve"/>
      <point x="318.667" y="510"/>
      <point x="326.667" y="509.667"/>
      <point x="332" y="509" type="curve"/>
      <point x="484" y="509" type="line"/>
      <point x="484" y="-202" type="line"/>
    </contour>
  </outline>
</glyph>
<glyph name="r" format="2">
  <advance width="587"/>
  <unicode hex="0072"/>
  <outline>
    <contour>
      <point x="50" y="522" type="line"/>
      <point x="219" y="522" type="line"/>
      <point x="219" y="512" type="line"/>
      <point x="245" y="520"/>
      <point x="271.667" y="524"/>
      <point x="299" y="524" type="curve"/>
      <point x="352.333" y="524"/>
      <point x="400.5" y="507"/>
      <point x="443.5" y="473" type="curve" smooth="yes"/>
      <point x="486.5" y="439"/>
      <point x="520" y="394"/>
      <point x="539" y="342" type="curve"/>
      <point x="539" y="340" type="line"/>
      <point x="403" y="287" type="line"/>
      <point x="392" y="324" type="line"/>
      <point x="384" y="348"/>
      <point x="351" y="355"/>
      <point x="338" y="362" type="curve" smooth="yes"/>
      <point x="326" y="369"/>
      <point x="313" y="373"/>
      <point x="299" y="373" type="curve"/>
      <point x="267" y="373"/>
      <point x="240.333" y="361.333"/>
      <point x="219" y="338" type="curve"/>
      <point x="219" y="6" type="line"/>
      <point x="50" y="6" type="line"/>
    </contour>
  </outline>
</glyph>
<glyph name="s" format="2">
  <advance width="508"/>
  <unicode hex="0073"/>
  <outline>
    <contour>
      <point x="69.3916" y="47" type="curve"/>
      <point x="136.392" y="159" type="line"/>
      <point x="141.059" y="154.333"/>
      <point x="148.392" y="150.333"/>
      <point x="158.392" y="147" type="curve"/>
      <point x="185.059" y="135.667"/>
      <point x="209" y="113"/>
      <point x="230" y="116" type="curve" smooth="yes"/>
      <point x="251" y="119"/>
      <point x="322" y="110"/>
      <point x="335" y="126" type="curve"/>
      <point x="351" y="144"/>
      <point x="343" y="157"/>
      <point x="313" y="165" type="curve"/>
      <point x="305" y="167"/>
      <point x="233.392" y="206.333"/>
      <point x="205.392" y="211" type="curve"/>
      <point x="161.392" y="228.333"/>
      <point x="126.059" y="248.5"/>
      <point x="99.3918" y="271.5" type="curve" smooth="yes"/>
      <point x="72.725" y="294.5"/>
      <point x="56.7249" y="320"/>
      <point x="51.3916" y="348" type="curve" smooth="yes"/>
      <point x="46.0583" y="376"/>
      <point x="56.0583" y="404.667"/>
      <point x="81.3916" y="434" type="curve"/>
      <point x="112.725" y="472"/>
      <point x="161.725" y="494.833"/>
      <point x="228.392" y="502.5" type="curve" smooth="yes"/>
      <point x="295.059" y="510.167"/>
      <point x="360.392" y="500.333"/>
      <point x="424.392" y="473" type="curve"/>
      <point x="436.392" y="467.667"/>
      <point x="443.725" y="464"/>
      <point x="446.392" y="462" type="curve"/>
      <point x="379.392" y="332" type="line"/>
      <point x="370.059" y="338"/>
      <point x="362.725" y="342"/>
      <point x="357.392" y="344" type="curve"/>
      <point x="330.059" y="354.667"/>
      <point x="305" y="389"/>
      <point x="293" y="394" type="curve" smooth="yes"/>
      <point x="276" y="401"/>
      <point x="201" y="413"/>
      <point x="179" y="376" type="curve"/>
      <point x="167" y="356"/>
      <point x="186" y="297"/>
      <point x="192" y="293" type="curve" smooth="yes"/>
      <point x="200" y="286"/>
      <point x="257" y="279"/>
      <point x="287" y="270" type="curve"/>
      <point x="321" y="262"/>
      <point x="336.059" y="253.167"/>
      <point x="355.392" y="243.5" type="curve" smooth="yes"/>
      <point x="374.725" y="233.833"/>
      <point x="393.225" y="222.333"/>
      <point x="410.892" y="209" type="curve" smooth="yes"/>
      <point x="428.559" y="195.667"/>
      <point x="441.225" y="182.5"/>
      <point x="448.892" y="169.5" type="curve" smooth="yes"/>
      <point x="456.559" y="156.5"/>
      <point x="459.559" y="141.833"/>
      <point x="457.892" y="125.5" type="curve" smooth="yes"/>
      <point x="456.225" y="109.167"/>
      <point x="448.059" y="92.3333"/>
      <point x="433.392" y="75" type="curve"/>
      <point x="402.059" y="37"/>
      <point x="353.059" y="13.8333"/>
      <point x="286.392" y="5.5" type="curve" smooth="yes"/>
      <point x="219.725" y="-2.83333"/>
      <point x="154.725" y="6.66667"/>
      <point x="91.3916" y="34" type="curve"/>
      <point x="86.0583" y="35.3333"/>
      <point x="78.7249" y="39.6667"/>
    </contour>
  </outline>
</glyph>
<glyph name="t" format="2">
  <advance width="514"/>
  <unicode hex="0074"/>
  <outline>
    <contour>
      <point x="464" y="6" type="line"/>
      <point x="441.333" y="0"/>
      <point x="417.667" y="-3"/>
      <point x="393" y="-3" type="curve"/>
      <point x="335" y="-3"/>
      <point x="283.667" y="14.3333"/>
      <point x="239" y="49" type="curve" smooth="yes"/>
      <point x="194.333" y="83.6667"/>
      <point x="164" y="128.667"/>
      <point x="148" y="184" type="curve"/>
      <point x="147" y="364" type="line"/>
      <point x="50" y="364" type="line"/>
      <point x="50" y="516" type="line"/>
      <point x="146" y="516" type="line"/>
      <point x="145" y="761" type="line"/>
      <point x="312" y="761" type="line"/>
      <point x="312" y="516" type="line"/>
      <point x="409" y="516" type="line"/>
      <point x="409" y="364" type="line"/>
      <point x="312" y="364" type="line"/>
      <point x="312" y="185" type="line"/>
      <point x="333.333" y="160.333"/>
      <point x="360.333" y="148"/>
      <point x="393" y="148" type="curve"/>
      <point x="419.667" y="148"/>
      <point x="443.333" y="156.667"/>
      <point x="464" y="174" type="curve"/>
    </contour>
  </outline>
</glyph>
<glyph name="u" format="2">
  <advance width="597"/>
  <unicode hex="0075"/>
  <outline>
    <contour>
      <point x="547" y="2" type="line"/>
      <point x="378" y="2" type="line"/>
      <point x="378" y="12" type="line"/>
      <point x="352" y="4"/>
      <point x="325.333" y="0"/>
      <point x="298" y="0" type="curve"/>
      <point x="240" y="0"/>
      <point x="188.667" y="17.3333"/>
      <point x="144" y="52" type="curve" smooth="yes"/>
      <point x="99.3333" y="86.6667"/>
      <point x="69" y="131.667"/>
      <point x="53" y="187" type="curve"/>
      <point x="50" y="518" type="line"/>
      <point x="217" y="518" type="line"/>
      <point x="217" y="188" type="line"/>
      <point x="238.333" y="163.333"/>
      <point x="265.333" y="151"/>
      <point x="298" y="151" type="curve"/>
      <point x="330" y="151"/>
      <point x="356.667" y="162.667"/>
      <point x="378" y="186" type="curve"/>
      <point x="378" y="518" type="line"/>
      <point x="547" y="518" type="line"/>
    </contour>
  </outline>
</glyph>
<glyph name="v" format="2">
  <advance width="652"/>
  <unicode hex="0076"/>
  <outline>
    <contour>
      <point x="0" y="511" type="line"/>
      <point x="152" y="511" type="line"/>
      <point x="276" y="144" type="line"/>
      <point x="400" y="511" type="line"/>
      <point x="552" y="511" type="line"/>
      <point x="352" y="0" type="line"/>
      <point x="200" y="0" type="line"/>
    </contour>
  </outline>
</glyph>
<glyph name="w" format="2">
  <advance width="1044"/>
  <unicode hex="0077"/>
  <outline>
    <contour>
      <point x="396" y="511" type="line"/>
      <point x="548" y="511" type="line"/>
      <point x="668" y="144" type="line"/>
      <point x="792" y="511" type="line"/>
      <point x="944" y="511" type="line"/>
      <point x="744" y="0" type="line"/>
      <point x="596" y="0" type="line"/>
      <point x="472" y="317" type="line"/>
      <point x="348" y="0" type="line"/>
      <point x="200" y="0" type="line"/>
      <point x="0" y="511" type="line"/>
      <point x="148" y="511" type="line"/>
      <point x="272" y="144" type="line"/>
    </contour>
  </outline>
</glyph>
<glyph name="x" format="2">
  <advance width="724"/>
  <unicode hex="0078"/>
  <outline>
    <contour>
      <point x="0" y="513" type="line"/>
      <point x="186" y="511" type="line"/>
      <point x="315" y="360" type="line"/>
      <point x="448" y="512" type="line"/>
      <point x="623" y="511" type="line"/>
      <point x="403" y="258" type="line"/>
      <point x="624" y="0" type="line"/>
      <point x="449" y="-2" type="line"/>
      <point x="312" y="155" type="line"/>
      <point x="179" y="2" type="line"/>
      <point x="1" y="-1" type="line"/>
      <point x="224" y="256" type="line"/>
    </contour>
  </outline>
</glyph>
<glyph name="y" format="2">
  <advance width="652"/>
  <unicode hex="0079"/>
  <outline>
    <contour>
      <point x="0" y="511" type="line"/>
      <point x="171" y="511" type="line"/>
      <point x="295" y="144" type="line"/>
      <point x="400" y="511" type="line"/>
      <point x="585" y="514" type="line"/>
      <point x="306" y="-200" type="line"/>
      <point x="158" y="-204" type="line"/>
      <point x="227" y="0" type="line"/>
    </contour>
  </outline>
</glyph>
<glyph name="z" format="2">
  <advance width="512"/>
  <unicode hex="007A"/>
  <outline>
    <contour>
      <point x="0" y="10" type="line"/>
      <point x="0" y="162" type="line"/>
      <point x="243" y="366" type="line"/>
      <point x="0" y="366" type="line"/>
      <point x="0" y="518" type="line"/>
      <point x="453" y="518" type="line"/>
      <point x="453" y="366" type="line"/>
      <point x="251" y="162" type="line"/>
      <point x="453" y="162" type="line"/>
      <point x="453" y="10" type="line"/>
    </contour>
  </outline>
</glyph>
<glyph name="braceleft" format="2">
  <advance width="372"/>
  <unicode hex="007B"/>
  <outline>
    <contour>
      <point x="322" y="-85" type="line"/>
      <point x="312" y="-89.6667"/>
      <point x="299.667" y="-92"/>
      <point x="285" y="-92" type="curve"/>
      <point x="255.667" y="-92"/>
      <point x="229.5" y="-78"/>
      <point x="206.5" y="-50" type="curve" smooth="yes"/>
      <point x="183.5" y="-22"/>
      <point x="168" y="14"/>
      <point x="160" y="58" type="curve"/>
      <point x="159" y="228" type="line"/>
      <point x="50" y="358" type="line"/>
      <point x="159" y="485" type="line"/>
      <point x="160" y="655" type="line"/>
      <point x="168" y="699"/>
      <point x="183.5" y="735"/>
      <point x="206.5" y="763" type="curve" smooth="yes"/>
      <point x="229.5" y="791"/>
      <point x="255.667" y="805"/>
      <point x="285" y="805" type="curve"/>
      <point x="299.667" y="805"/>
      <point x="312" y="802.667"/>
      <point x="322" y="798" type="curve"/>
      <point x="322" y="663" type="line"/>
      <point x="311.333" y="677"/>
      <point x="299" y="684"/>
      <point x="285" y="684" type="curve"/>
      <point x="269" y="684"/>
      <point x="255.333" y="674"/>
      <point x="244" y="654" type="curve"/>
      <point x="245" y="470" type="line"/>
      <point x="163" y="369" type="line"/>
      <point x="244" y="228" type="line"/>
      <point x="244" y="58" type="line"/>
      <point x="254.667" y="38.6667"/>
      <point x="268.333" y="29"/>
      <point x="285" y="29" type="curve"/>
      <point x="299" y="29"/>
      <point x="311.333" y="36"/>
      <point x="322" y="50" type="curve"/>
    </contour>
  </outline>
</glyph>
<glyph name="bar" format="2">
  <advance width="222"/>
  <unicode hex="007C"/>
  <outline>
    <contour>
      <point x="50" y="871" type="line"/>
      <point x="172" y="871" type="line"/>
      <point x="172" y="-99" type="line"/>
      <point x="50" y="-99" type="line"/>
    </contour>
  </outline>
</glyph>
<glyph name="braceright" format="2">
  <advance width="372"/>
  <unicode hex="007D"/>
  <outline>
    <contour>
      <point x="50" y="-85" type="curve"/>
      <point x="50" y="50" type="line"/>
      <point x="60.6667" y="36"/>
      <point x="73" y="29"/>
      <point x="87" y="29" type="curve"/>
      <point x="103.667" y="29"/>
      <point x="117.333" y="38.6667"/>
      <point x="128" y="58" type="curve"/>
      <point x="128" y="228" type="line"/>
      <point x="209" y="369" type="line"/>
      <point x="127" y="470" type="line"/>
      <point x="128" y="654" type="line"/>
      <point x="116.667" y="674"/>
      <point x="103" y="684"/>
      <point x="87" y="684" type="curve"/>
      <point x="73" y="684"/>
      <point x="60.6667" y="677"/>
      <point x="50" y="663" type="curve"/>
      <point x="50" y="798" type="line"/>
      <point x="60" y="802.667"/>
      <point x="72.3333" y="805"/>
      <point x="87" y="805" type="curve"/>
      <point x="116.333" y="805"/>
      <point x="142.5" y="791"/>
      <point x="165.5" y="763" type="curve" smooth="yes"/>
      <point x="188.5" y="735"/>
      <point x="204" y="699"/>
      <point x="212" y="655" type="curve"/>
      <point x="213" y="485" type="line"/>
      <point x="322" y="358" type="line"/>
      <point x="213" y="228" type="line"/>
      <point x="212" y="58" type="line"/>
      <point x="204" y="14"/>
      <point x="188.5" y="-22"/>
      <point x="165.5" y="-50" type="curve" smooth="yes"/>
      <point x="142.5" y="-78"/>
      <point x="116.333" y="-92"/>
      <point x="87" y="-92" type="curve"/>
      <point x="72.3333" y="-92"/>
      <point x="60" y="-89.6667"/>
    </contour>
  </outline>
</glyph>
<glyph name="asciitilde" format="2">
  <advance width="599"/>
  <unicode hex="007E"/>
  <outline>
    <contour>
      <point x="549" y="577" type="line"/>
      <point x="549" y="425" type="line"/>
      <point x="548.333" y="422.333"/>
      <point x="542.833" y="415"/>
      <point x="532.5" y="403" type="curve" smooth="yes"/>
      <point x="522.167" y="391"/>
      <point x="506.333" y="378.167"/>
      <point x="485" y="364.5" type="curve" smooth="yes"/>
      <point x="463.667" y="350.833"/>
      <point x="442.333" y="344"/>
      <point x="421" y="344" type="curve"/>
      <point x="321" y="344" type="line"/>
      <point x="299.667" y="344"/>
      <point x="274.167" y="353.333"/>
      <point x="244.5" y="372" type="curve" smooth="yes"/>
      <point x="214.833" y="390.667"/>
      <point x="189.333" y="400"/>
      <point x="168" y="400" type="curve"/>
      <point x="152.667" y="400"/>
      <point x="135.167" y="395.333"/>
      <point x="115.5" y="386" type="curve" smooth="yes"/>
      <point x="95.8333" y="376.667"/>
      <point x="80" y="367.333"/>
      <point x="68" y="358" type="curve"/>
      <point x="50" y="344" type="line"/>
      <point x="50" y="496" type="line"/>
      <point x="92.6667" y="533.333"/>
      <point x="130.667" y="552"/>
      <point x="164" y="552" type="curve"/>
      <point x="186" y="552"/>
      <point x="212.667" y="542.833"/>
      <point x="244" y="524.5" type="curve" smooth="yes"/>
      <point x="275.333" y="506.167"/>
      <point x="302" y="497"/>
      <point x="324" y="497" type="curve"/>
      <point x="369" y="497"/>
      <point x="369" y="497"/>
      <point x="413" y="497" type="curve"/>
      <point x="433.667" y="497"/>
      <point x="455.333" y="503.667"/>
      <point x="478" y="517" type="curve" smooth="yes"/>
      <point x="500.667" y="530.333"/>
      <point x="518" y="543.667"/>
      <point x="530" y="557" type="curve"/>
    </contour>
  </outline>
</glyph>
<glyph name="exclamdown" format="2">
  <advance width="252"/>
  <unicode hex="00A1"/>
  <outline>
    <contour>
      <point x="202" y="772" type="line"/>
      <point x="202" y="630" type="line"/>
      <point x="50" y="630" type="line"/>
      <point x="50" y="772" type="line"/>
    </contour>
    <contour>
      <point x="202" y="512" type="line"/>
      <point x="202" y="-2" type="line"/>
      <point x="50" y="-2" type="line"/>
      <point x="50" y="512" type="line"/>
    </contour>
  </outline>
</glyph>
<glyph name="cent" format="2">
  <advance width="384"/>
  <unicode hex="00A2"/>
  <outline>
    <contour>
      <point x="334" y="4" type="line"/>
      <point x="325.333" y="3.33333"/>
      <point x="316.667" y="3"/>
      <point x="308" y="3" type="curve"/>
      <point x="300" y="3"/>
      <point x="292.333" y="3.33333"/>
      <point x="285" y="4" type="curve"/>
      <point x="285" y="-99" type="line"/>
      <point x="238" y="-99" type="line"/>
      <point x="238" y="13" type="line"/>
      <point x="183.333" y="27.6667"/>
      <point x="138.333" y="57.8333"/>
      <point x="103" y="103.5" type="curve" smooth="yes"/>
      <point x="67.6667" y="149.167"/>
      <point x="50" y="201.333"/>
      <point x="50" y="260" type="curve"/>
      <point x="50" y="318.667"/>
      <point x="67.6667" y="370.833"/>
      <point x="103" y="416.5" type="curve" smooth="yes"/>
      <point x="138.333" y="462.167"/>
      <point x="183.333" y="492.667"/>
      <point x="238" y="508" type="curve"/>
      <point x="238" y="700" type="line"/>
      <point x="285" y="700" type="line"/>
      <point x="285" y="517" type="line"/>
      <point x="292.333" y="517.667"/>
      <point x="300" y="518"/>
      <point x="308" y="518" type="curve"/>
      <point x="316.667" y="518"/>
      <point x="325.333" y="517.667"/>
      <point x="334" y="517" type="curve"/>
      <point x="334" y="364" type="line"/>
      <point x="325.333" y="366"/>
      <point x="316.667" y="367"/>
      <point x="308" y="367" type="curve"/>
      <point x="300" y="367"/>
      <point x="292.333" y="366.333"/>
      <point x="285" y="365" type="curve"/>
      <point x="285" y="156" type="line"/>
      <point x="292.333" y="154.667"/>
      <point x="300" y="154"/>
      <point x="308" y="154" type="curve"/>
      <point x="316.667" y="154"/>
      <point x="325.333" y="155"/>
      <point x="334" y="157" type="curve"/>
    </contour>
    <contour>
      <point x="238" y="342" type="line"/>
      <point x="213.333" y="320.667"/>
      <point x="201" y="293.333"/>
      <point x="201" y="260" type="curve"/>
      <point x="201" y="227.333"/>
      <point x="213.333" y="200.333"/>
      <point x="238" y="179" type="curve"/>
    </contour>
  </outline>
</glyph>
<glyph name="sterling" format="2">
  <advance width="864"/>
  <unicode hex="00A3"/>
  <outline>
    <contour>
      <point x="512" y="752" type="curve"/>
      <point x="512" y="584" type="line"/>
      <point x="491.333" y="601.333"/>
      <point x="467.667" y="610"/>
      <point x="441" y="610" type="curve"/>
      <point x="408.333" y="610"/>
      <point x="381.333" y="597.667"/>
      <point x="360" y="573" type="curve"/>
      <point x="360" y="511" type="line"/>
      <point x="457" y="511" type="line"/>
      <point x="457" y="359" type="line"/>
      <point x="360" y="359" type="line"/>
      <point x="360" y="166" type="line"/>
      <point x="626" y="166" type="line"/>
      <point x="651.333" y="187.333"/>
      <point x="664" y="214.667"/>
      <point x="664" y="248" type="curve"/>
      <point x="664" y="274.667"/>
      <point x="655.333" y="298"/>
      <point x="638" y="318" type="curve"/>
      <point x="806" y="318" type="line"/>
      <point x="811.333" y="295.333"/>
      <point x="814" y="272"/>
      <point x="814" y="248" type="curve"/>
      <point x="814" y="189.333"/>
      <point x="796.667" y="137.667"/>
      <point x="762" y="93" type="curve" smooth="yes"/>
      <point x="727.333" y="48.3333"/>
      <point x="682.667" y="18"/>
      <point x="628" y="2" type="curve"/>
      <point x="360" y="1" type="line"/>
      <point x="360" y="-3" type="line"/>
      <point x="193" y="-3" type="line"/>
      <point x="193" y="0" type="line"/>
      <point x="50" y="0" type="line"/>
      <point x="50" y="166" type="line"/>
      <point x="194" y="166" type="line"/>
      <point x="195" y="359" type="line"/>
      <point x="98" y="359" type="line"/>
      <point x="98" y="511" type="line"/>
      <point x="196" y="511" type="line"/>
      <point x="196" y="574" type="line"/>
      <point x="212" y="629.333"/>
      <point x="242.333" y="674.333"/>
      <point x="287" y="709" type="curve" smooth="yes"/>
      <point x="331.667" y="743.667"/>
      <point x="383" y="761"/>
      <point x="441" y="761" type="curve"/>
      <point x="465.667" y="761"/>
      <point x="489.333" y="758"/>
    </contour>
  </outline>
</glyph>
<glyph name="yen" format="2">
  <advance width="612"/>
  <unicode hex="00A5"/>
  <outline>
    <contour>
      <point x="179" y="451" type="line"/>
      <point x="-20" y="765" type="line"/>
      <point x="132" y="765" type="line"/>
      <point x="256" y="594" type="line"/>
      <point x="380" y="765" type="line"/>
      <point x="532" y="765" type="line"/>
      <point x="332" y="450" type="line"/>
      <point x="331" y="450" type="line"/>
      <point x="331" y="396" type="line"/>
      <point x="530" y="396" type="line"/>
      <point x="530" y="334" type="line"/>
      <point x="331" y="334" type="line"/>
      <point x="331" y="258" type="line"/>
      <point x="530" y="258" type="line"/>
      <point x="530" y="196" type="line"/>
      <point x="331" y="196" type="line"/>
      <point x="331" y="1" type="line"/>
      <point x="179" y="1" type="line"/>
      <point x="179" y="196" type="line"/>
      <point x="-14" y="196" type="line"/>
      <point x="-14" y="258" type="line"/>
      <point x="179" y="258" type="line"/>
      <point x="179" y="334" type="line"/>
      <point x="-14" y="334" type="line"/>
      <point x="-14" y="396" type="line"/>
      <point x="179" y="396" type="line"/>
    </contour>
  </outline>
</glyph>
<glyph name="brokenbar" format="2">
  <advance width="252"/>
  <unicode hex="00A6"/>
  <outline>
    <contour>
      <point x="202" y="833" type="line"/>
      <point x="202" y="459" type="line"/>
      <point x="50" y="459" type="line"/>
      <point x="50" y="833" type="line"/>
    </contour>
    <contour>
      <point x="202" y="370" type="line"/>
      <point x="202" y="-30" type="line"/>
      <point x="50" y="-30" type="line"/>
      <point x="50" y="370" type="line"/>
    </contour>
  </outline>
</glyph>
<glyph name="section" format="2">
  <advance width="599"/>
  <unicode hex="00A7"/>
  <outline>
    <contour>
      <point x="50" y="108" type="curve"/>
      <point x="125" y="233" type="line"/>
      <point x="133" y="226.333"/>
      <point x="140.333" y="221.333"/>
      <point x="147" y="218" type="curve"/>
      <point x="172.333" y="203.333"/>
      <point x="199" y="199.5"/>
      <point x="227" y="206.5" type="curve" smooth="yes"/>
      <point x="255" y="213.5"/>
      <point x="276.667" y="229"/>
      <point x="292" y="253" type="curve"/>
      <point x="306.667" y="279"/>
      <point x="305.833" y="303.167"/>
      <point x="289.5" y="325.5" type="curve" smooth="yes"/>
      <point x="273.167" y="347.833"/>
      <point x="250.667" y="361.333"/>
      <point x="222" y="366" type="curve"/>
      <point x="177.333" y="390"/>
      <point x="141.5" y="417.667"/>
      <point x="114.5" y="449" type="curve" smooth="yes"/>
      <point x="87.5" y="480.333"/>
      <point x="70.5" y="516.833"/>
      <point x="63.5" y="558.5" type="curve" smooth="yes"/>
      <point x="56.5" y="600.167"/>
      <point x="67.3333" y="644"/>
      <point x="96" y="690" type="curve"/>
      <point x="122" y="732.667"/>
      <point x="158.333" y="764.667"/>
      <point x="205" y="786" type="curve"/>
      <point x="183" y="809.333"/>
      <point x="166.5" y="833.667"/>
      <point x="155.5" y="859" type="curve" smooth="yes"/>
      <point x="144.5" y="884.333"/>
      <point x="140.333" y="912.667"/>
      <point x="143" y="944" type="curve" smooth="yes"/>
      <point x="145.667" y="975.333"/>
      <point x="156.667" y="1007"/>
      <point x="176" y="1039" type="curve"/>
      <point x="210.667" y="1097"/>
      <point x="262.333" y="1134.5"/>
      <point x="331" y="1151.5" type="curve" smooth="yes"/>
      <point x="399.667" y="1168.5"/>
      <point x="465.333" y="1160.33"/>
      <point x="528" y="1127" type="curve"/>
      <point x="530" y="1125"/>
      <point x="533.5" y="1122.5"/>
      <point x="538.5" y="1119.5" type="curve" smooth="yes"/>
      <point x="543.5" y="1116.5"/>
      <point x="547" y="1114"/>
      <point x="549" y="1112" type="curve"/>
      <point x="474" y="987" type="line"/>
      <point x="466" y="993.667"/>
      <point x="458.667" y="998.667"/>
      <point x="452" y="1002" type="curve"/>
      <point x="426.667" y="1016"/>
      <point x="399.833" y="1019.5"/>
      <point x="371.5" y="1012.5" type="curve" smooth="yes"/>
      <point x="343.167" y="1005.5"/>
      <point x="321.667" y="989.667"/>
      <point x="307" y="965" type="curve"/>
      <point x="290.333" y="937.667"/>
      <point x="288.833" y="907.667"/>
      <point x="302.5" y="875" type="curve" smooth="yes"/>
      <point x="316.167" y="842.333"/>
      <point x="339" y="823.333"/>
      <point x="371" y="818" type="curve"/>
      <point x="386.333" y="810"/>
      <point x="400.333" y="802"/>
      <point x="413" y="794" type="curve"/>
      <point x="425" y="789.333"/>
      <point x="436.667" y="784"/>
      <point x="448" y="778" type="curve"/>
      <point x="450" y="776"/>
      <point x="453.5" y="773.5"/>
      <point x="458.5" y="770.5" type="curve" smooth="yes"/>
      <point x="463.5" y="767.5"/>
      <point x="467" y="765"/>
      <point x="469" y="763" type="curve"/>
      <point x="465" y="756" type="line"/>
      <point x="541.667" y="690.667"/>
      <point x="554" y="615.333"/>
      <point x="502" y="530" type="curve"/>
      <point x="471.333" y="478"/>
      <point x="426" y="442"/>
      <point x="366" y="422" type="curve"/>
      <point x="458.667" y="352.667"/>
      <point x="477.333" y="272.333"/>
      <point x="422" y="181" type="curve"/>
      <point x="387.333" y="122.333"/>
      <point x="335.833" y="84.5"/>
      <point x="267.5" y="67.5" type="curve" smooth="yes"/>
      <point x="199.167" y="50.5"/>
      <point x="133.667" y="59"/>
      <point x="71" y="93" type="curve"/>
      <point x="69" y="95"/>
      <point x="65.5" y="97.5"/>
      <point x="60.5" y="100.5" type="curve" smooth="yes"/>
      <point x="55.5" y="103.5"/>
      <point x="52" y="106"/>
    </contour>
    <contour>
      <point x="214" y="575" type="curve"/>
      <point x="218" y="571.667"/>
      <point x="222.333" y="569"/>
      <point x="227" y="567" type="curve"/>
      <point x="252.333" y="552.333"/>
      <point x="279" y="548.5"/>
      <point x="307" y="555.5" type="curve" smooth="yes"/>
      <point x="335" y="562.5"/>
      <point x="356.667" y="578"/>
      <point x="372" y="602" type="curve"/>
      <point x="380.667" y="617.333"/>
      <point x="383.667" y="632.667"/>
      <point x="381" y="648" type="curve"/>
      <point x="378.333" y="650"/>
      <point x="375.333" y="651.667"/>
      <point x="372" y="653" type="curve"/>
      <point x="346.667" y="667"/>
      <point x="319.833" y="670.5"/>
      <point x="291.5" y="663.5" type="curve" smooth="yes"/>
      <point x="263.167" y="656.5"/>
      <point x="241.667" y="640.667"/>
      <point x="227" y="616" type="curve"/>
      <point x="219.667" y="603.333"/>
      <point x="215.333" y="589.667"/>
    </contour>
  </outline>
</glyph>
<glyph name="dieresis" format="2">
  <advance width="452"/>
  <unicode hex="00A8"/>
  <outline>
    <contour>
      <point x="50" y="-2" type="line"/>
      <point x="50" y="140" type="line"/>
      <point x="202" y="140" type="line"/>
      <point x="202" y="-2" type="line"/>
    </contour>
    <contour>
      <point x="250" y="-2" type="line"/>
      <point x="250" y="140" type="line"/>
      <point x="402" y="140" type="line"/>
      <point x="402" y="-2" type="line"/>
    </contour>
  </outline>
</glyph>
<glyph name="copyright" format="2">
  <advance width="796"/>
  <unicode hex="00A9"/>
  <outline>
    <contour>
      <point x="691" y="378" type="curve"/>
      <point x="691" y="460.667"/>
      <point x="662.5" y="531.333"/>
      <point x="605.5" y="590" type="curve" smooth="yes"/>
      <point x="548.5" y="648.667"/>
      <point x="479.333" y="678"/>
      <point x="398" y="678" type="curve" smooth="yes"/>
      <point x="316.667" y="678"/>
      <point x="247.5" y="648.667"/>
      <point x="190.5" y="590" type="curve" smooth="yes"/>
      <point x="133.5" y="531.333"/>
      <point x="105" y="460.667"/>
      <point x="105" y="378" type="curve"/>
      <point x="105" y="294.667"/>
      <point x="133.5" y="223.667"/>
      <point x="190.5" y="165" type="curve" smooth="yes"/>
      <point x="247.5" y="106.333"/>
      <point x="316.667" y="77"/>
      <point x="398" y="77" type="curve" smooth="yes"/>
      <point x="479.333" y="77"/>
      <point x="548.5" y="106.333"/>
      <point x="605.5" y="165" type="curve" smooth="yes"/>
      <point x="662.5" y="223.667"/>
      <point x="691" y="294.667"/>
    </contour>
    <contour>
      <point x="746" y="380" type="curve"/>
      <point x="746" y="314.667"/>
      <point x="730.5" y="254.5"/>
      <point x="699.5" y="199.5" type="curve" smooth="yes"/>
      <point x="668.5" y="144.5"/>
      <point x="626.333" y="101"/>
      <point x="573" y="69" type="curve" smooth="yes"/>
      <point x="519.667" y="37"/>
      <point x="461.333" y="21"/>
      <point x="398" y="21" type="curve" smooth="yes"/>
      <point x="334.667" y="21"/>
      <point x="276.333" y="37"/>
      <point x="223" y="69" type="curve" smooth="yes"/>
      <point x="169.667" y="101"/>
      <point x="127.5" y="144.5"/>
      <point x="96.5" y="199.5" type="curve" smooth="yes"/>
      <point x="65.5" y="254.5"/>
      <point x="50" y="314.667"/>
      <point x="50" y="380" type="curve"/>
      <point x="50" y="444.667"/>
      <point x="65.5" y="504.5"/>
      <point x="96.5" y="559.5" type="curve" smooth="yes"/>
      <point x="127.5" y="614.5"/>
      <point x="169.667" y="658"/>
      <point x="223" y="690" type="curve" smooth="yes"/>
      <point x="276.333" y="722"/>
      <point x="334.667" y="738"/>
      <point x="398" y="738" type="curve" smooth="yes"/>
      <point x="461.333" y="738"/>
      <point x="519.667" y="722"/>
      <point x="573" y="690" type="curve" smooth="yes"/>
      <point x="626.333" y="658"/>
      <point x="668.5" y="614.5"/>
      <point x="699.5" y="559.5" type="curve" smooth="yes"/>
      <point x="730.5" y="504.5"/>
      <point x="746" y="444.667"/>
    </contour>
    <contour>
      <point x="459" y="196" type="line"/>
      <point x="453.667" y="195.333"/>
      <point x="448.333" y="195"/>
      <point x="443" y="195" type="curve"/>
      <point x="398.333" y="195"/>
      <point x="360.333" y="210.667"/>
      <point x="329" y="242" type="curve" smooth="yes"/>
      <point x="297.667" y="273.333"/>
      <point x="282" y="311"/>
      <point x="282" y="355" type="curve"/>
      <point x="282" y="399.667"/>
      <point x="297.667" y="437.833"/>
      <point x="329" y="469.5" type="curve" smooth="yes"/>
      <point x="360.333" y="501.167"/>
      <point x="398.333" y="517"/>
      <point x="443" y="517" type="curve"/>
      <point x="448.333" y="517"/>
      <point x="453.667" y="516.667"/>
      <point x="459" y="516" type="curve"/>
      <point x="459" y="420" type="line"/>
      <point x="453.667" y="421.333"/>
      <point x="448.333" y="422"/>
      <point x="443" y="422" type="curve"/>
      <point x="424.333" y="422"/>
      <point x="408.5" y="415.667"/>
      <point x="395.5" y="403" type="curve" smooth="yes"/>
      <point x="382.5" y="390.333"/>
      <point x="376" y="374.333"/>
      <point x="376" y="355" type="curve"/>
      <point x="376" y="337"/>
      <point x="382.5" y="321.5"/>
      <point x="395.5" y="308.5" type="curve" smooth="yes"/>
      <point x="408.5" y="295.5"/>
      <point x="424.333" y="289"/>
      <point x="443" y="289" type="curve"/>
      <point x="448.333" y="289"/>
      <point x="453.667" y="289.667"/>
      <point x="459" y="291" type="curve"/>
    </contour>
  </outline>
</glyph>
<glyph name="guillemotleft" format="2">
  <advance width="1244"/>
  <unicode hex="00AB"/>
  <outline>
    <contour>
      <point x="594" y="663" type="line"/>
      <point x="594" y="511" type="line"/>
      <point x="188" y="338" type="line"/>
      <point x="594" y="158" type="line"/>
      <point x="594" y="6" type="line"/>
      <point x="50" y="250" type="line"/>
      <point x="50" y="251" type="line"/>
      <point x="50" y="402" type="line"/>
      <point x="50" y="403" type="line"/>
    </contour>
    <contour>
      <point x="1194" y="663" type="line"/>
      <point x="1194" y="511" type="line"/>
      <point x="788" y="338" type="line"/>
      <point x="1194" y="158" type="line"/>
      <point x="1194" y="6" type="line"/>
      <point x="650" y="250" type="line"/>
      <point x="650" y="251" type="line"/>
      <point x="650" y="402" type="line"/>
      <point x="650" y="403" type="line"/>
    </contour>
  </outline>
</glyph>
<glyph name="logicalnot" format="2">
  <advance width="1000"/>
  <unicode hex="00AC"/>
  <outline>
    <contour>
      <point x="185" y="526" type="line"/>
      <point x="697" y="526" type="line"/>
      <point x="697" y="228" type="line"/>
      <point x="565" y="228" type="line"/>
      <point x="565" y="391" type="line"/>
      <point x="185" y="391" type="line"/>
    </contour>
  </outline>
</glyph>
<glyph name="registered" format="2">
  <advance width="656"/>
  <unicode hex="00AE"/>
  <outline>
    <contour>
      <point x="563" y="379" type="curve"/>
      <point x="563" y="445"/>
      <point x="540.167" y="501.333"/>
      <point x="494.5" y="548" type="curve" smooth="yes"/>
      <point x="448.833" y="594.667"/>
      <point x="393.333" y="618"/>
      <point x="328" y="618" type="curve" smooth="yes"/>
      <point x="262.667" y="618"/>
      <point x="207.167" y="594.667"/>
      <point x="161.5" y="548" type="curve" smooth="yes"/>
      <point x="115.833" y="501.333"/>
      <point x="93" y="445"/>
      <point x="93" y="379" type="curve"/>
      <point x="93" y="312.333"/>
      <point x="115.833" y="255.5"/>
      <point x="161.5" y="208.5" type="curve" smooth="yes"/>
      <point x="207.167" y="161.5"/>
      <point x="262.667" y="138"/>
      <point x="328" y="138" type="curve" smooth="yes"/>
      <point x="393.333" y="138"/>
      <point x="448.833" y="161.5"/>
      <point x="494.5" y="208.5" type="curve" smooth="yes"/>
      <point x="540.167" y="255.5"/>
      <point x="563" y="312.333"/>
    </contour>
    <contour>
      <point x="606" y="380" type="curve"/>
      <point x="606" y="300.667"/>
      <point x="578.833" y="233"/>
      <point x="524.5" y="177" type="curve" smooth="yes"/>
      <point x="470.167" y="121"/>
      <point x="404.667" y="93"/>
      <point x="328" y="93" type="curve" smooth="yes"/>
      <point x="251.333" y="93"/>
      <point x="185.833" y="121"/>
      <point x="131.5" y="177" type="curve" smooth="yes"/>
      <point x="77.1667" y="233"/>
      <point x="50" y="300.667"/>
      <point x="50" y="380" type="curve"/>
      <point x="50" y="459.333"/>
      <point x="77.1667" y="526.833"/>
      <point x="131.5" y="582.5" type="curve" smooth="yes"/>
      <point x="185.833" y="638.167"/>
      <point x="251.333" y="666"/>
      <point x="328" y="666" type="curve" smooth="yes"/>
      <point x="404.667" y="666"/>
      <point x="470.167" y="638.167"/>
      <point x="524.5" y="582.5" type="curve" smooth="yes"/>
      <point x="578.833" y="526.833"/>
      <point x="606" y="459.333"/>
    </contour>
    <contour>
      <point x="291" y="246" type="line"/>
      <point x="236" y="246" type="line"/>
      <point x="236" y="528" type="line"/>
      <point x="291" y="528" type="line"/>
      <point x="293" y="528.667"/>
      <point x="296" y="529"/>
      <point x="300" y="529" type="curve"/>
      <point x="326" y="529"/>
      <point x="348.167" y="519.833"/>
      <point x="366.5" y="501.5" type="curve" smooth="yes"/>
      <point x="384.833" y="483.167"/>
      <point x="394" y="461"/>
      <point x="394" y="435" type="curve"/>
      <point x="394" y="415"/>
      <point x="388.167" y="396.833"/>
      <point x="376.5" y="380.5" type="curve" smooth="yes"/>
      <point x="364.833" y="364.167"/>
      <point x="350" y="353"/>
      <point x="332" y="347" type="curve"/>
      <point x="404" y="243" type="line"/>
      <point x="353" y="243" type="line"/>
      <point x="293" y="341" type="line"/>
      <point x="292" y="341"/>
      <point x="292" y="341"/>
      <point x="291" y="341" type="curve"/>
    </contour>
    <contour>
      <point x="291" y="473" type="curve"/>
      <point x="291" y="397" type="line"/>
      <point x="294.333" y="396.333"/>
      <point x="297.333" y="396"/>
      <point x="300" y="396" type="curve"/>
      <point x="310.667" y="396"/>
      <point x="319.833" y="399.833"/>
      <point x="327.5" y="407.5" type="curve" smooth="yes"/>
      <point x="335.167" y="415.167"/>
      <point x="339" y="424.333"/>
      <point x="339" y="435" type="curve"/>
      <point x="339" y="445.667"/>
      <point x="335.167" y="454.833"/>
      <point x="327.5" y="462.5" type="curve" smooth="yes"/>
      <point x="319.833" y="470.167"/>
      <point x="310.667" y="474"/>
      <point x="300" y="474" type="curve"/>
      <point x="297.333" y="474"/>
      <point x="294.333" y="473.667"/>
    </contour>
  </outline>
</glyph>
<glyph name="plusminus" format="2">
  <advance width="644"/>
  <unicode hex="00B1"/>
  <outline>
    <contour>
      <point x="246" y="692" type="line"/>
      <point x="398" y="692" type="line"/>
      <point x="398" y="496" type="line"/>
      <point x="594" y="496" type="line"/>
      <point x="594" y="344" type="line"/>
      <point x="398" y="344" type="line"/>
      <point x="398" y="149" type="line"/>
      <point x="246" y="149" type="line"/>
      <point x="246" y="344" type="line"/>
      <point x="50" y="344" type="line"/>
      <point x="50" y="496" type="line"/>
      <point x="246" y="496" type="line"/>
    </contour>
    <contour>
      <point x="594" y="122" type="line"/>
      <point x="594" y="-30" type="line"/>
      <point x="50" y="-30" type="line"/>
      <point x="50" y="122" type="line"/>
    </contour>
  </outline>
</glyph>
<glyph name="mu" format="2">
  <advance width="597"/>
  <unicode hex="00B5"/>
  <outline>
    <contour>
      <point x="50" y="-189" type="line"/>
      <point x="50" y="524" type="line"/>
      <point x="219" y="524" type="line"/>
      <point x="219" y="192" type="line"/>
      <point x="240.333" y="168.667"/>
      <point x="267" y="157"/>
      <point x="299" y="157" type="curve"/>
      <point x="331.667" y="157"/>
      <point x="358.667" y="169.333"/>
      <point x="380" y="194" type="curve"/>
      <point x="380" y="524" type="line"/>
      <point x="547" y="524" type="line"/>
      <point x="544" y="193" type="line"/>
      <point x="528" y="137.667"/>
      <point x="497.667" y="92.6667"/>
      <point x="453" y="58" type="curve" smooth="yes"/>
      <point x="408.333" y="23.3333"/>
      <point x="357" y="6"/>
      <point x="299" y="6" type="curve"/>
      <point x="271.667" y="6"/>
      <point x="245" y="10"/>
      <point x="219" y="18" type="curve"/>
      <point x="219" y="-189" type="line"/>
    </contour>
  </outline>
</glyph>
<glyph name="paragraph" format="2">
  <advance width="752"/>
  <unicode hex="00B6"/>
  <outline>
    <contour>
      <point x="332" y="3" type="line"/>
      <point x="332" y="266" type="line"/>
      <point x="326.667" y="265.333"/>
      <point x="318.667" y="265"/>
      <point x="308" y="265" type="curve"/>
      <point x="236.667" y="265"/>
      <point x="175.833" y="290.167"/>
      <point x="125.5" y="340.5" type="curve" smooth="yes"/>
      <point x="75.1667" y="390.833"/>
      <point x="50" y="451.667"/>
      <point x="50" y="523" type="curve" smooth="yes"/>
      <point x="50" y="594.333"/>
      <point x="75.1667" y="655"/>
      <point x="125.5" y="705" type="curve" smooth="yes"/>
      <point x="175.833" y="755"/>
      <point x="236.667" y="780"/>
      <point x="308" y="780" type="curve"/>
      <point x="318.667" y="780"/>
      <point x="326.667" y="779.667"/>
      <point x="332" y="779" type="curve"/>
      <point x="484" y="779" type="line"/>
      <point x="484" y="3" type="line"/>
    </contour>
    <contour>
      <point x="550" y="774" type="line"/>
      <point x="702" y="774" type="line"/>
      <point x="702" y="-2" type="line"/>
      <point x="550" y="-2" type="line"/>
    </contour>
  </outline>
</glyph>
<glyph name="periodcentered" format="2">
  <advance width="252"/>
  <unicode hex="00B7"/>
  <outline>
    <contour>
      <point x="50" y="398" type="line"/>
      <point x="50" y="540" type="line"/>
      <point x="202" y="540" type="line"/>
      <point x="202" y="398" type="line"/>
    </contour>
  </outline>
</glyph>
<glyph name="guillemotright" format="2">
  <advance width="1244"/>
  <unicode hex="00BB"/>
  <outline>
    <contour>
      <point x="650" y="663" type="line"/>
      <point x="1194" y="403" type="line"/>
      <point x="1194" y="402" type="line"/>
      <point x="1194" y="251" type="line"/>
      <point x="1194" y="250" type="line"/>
      <point x="650" y="6" type="line"/>
      <point x="650" y="158" type="line"/>
      <point x="1056" y="338" type="line"/>
      <point x="650" y="511" type="line"/>
    </contour>
    <contour>
      <point x="50" y="663" type="line"/>
      <point x="594" y="403" type="line"/>
      <point x="594" y="402" type="line"/>
      <point x="594" y="251" type="line"/>
      <point x="594" y="250" type="line"/>
      <point x="50" y="6" type="line"/>
      <point x="50" y="158" type="line"/>
      <point x="456" y="338" type="line"/>
      <point x="50" y="511" type="line"/>
    </contour>
  </outline>
</glyph>
<glyph name="questiondown" format="2">
  <advance width="384"/>
  <unicode hex="00BF"/>
  <outline>
    <contour>
      <point x="334" y="-1" type="line"/>
      <point x="328" y="-1.66667"/>
      <point x="319.333" y="-2"/>
      <point x="308" y="-2" type="curve"/>
      <point x="236.667" y="-2"/>
      <point x="175.833" y="23"/>
      <point x="125.5" y="73" type="curve" smooth="yes"/>
      <point x="75.1667" y="123"/>
      <point x="50" y="183.667"/>
      <point x="50" y="255" type="curve"/>
      <point x="50" y="303"/>
      <point x="62" y="347"/>
      <point x="86" y="387" type="curve" smooth="yes"/>
      <point x="110" y="427"/>
      <point x="142" y="458"/>
      <point x="182" y="480" type="curve"/>
      <point x="182" y="597" type="line"/>
      <point x="334" y="597" type="line"/>
      <point x="334" y="512" type="line"/>
      <point x="334" y="387" type="line"/>
      <point x="334" y="359" type="line"/>
      <point x="326" y="361"/>
      <point x="317.333" y="362"/>
      <point x="308" y="362" type="curve"/>
      <point x="278" y="362"/>
      <point x="252.667" y="351.667"/>
      <point x="232" y="331" type="curve" smooth="yes"/>
      <point x="211.333" y="310.333"/>
      <point x="201" y="285"/>
      <point x="201" y="255" type="curve"/>
      <point x="201" y="225.667"/>
      <point x="211.333" y="200.667"/>
      <point x="232" y="180" type="curve" smooth="yes"/>
      <point x="252.667" y="159.333"/>
      <point x="278" y="149"/>
      <point x="308" y="149" type="curve"/>
      <point x="317.333" y="149"/>
      <point x="326" y="150"/>
      <point x="334" y="152" type="curve"/>
    </contour>
    <contour>
      <point x="334" y="829" type="line"/>
      <point x="334" y="687" type="line"/>
      <point x="182" y="687" type="line"/>
      <point x="182" y="829" type="line"/>
    </contour>
  </outline>
</glyph>
<glyph name="AE" format="2">
  <advance width="1024"/>
  <unicode hex="00C6"/>
  <outline>
    <contour>
      <point x="865" y="485" type="line"/>
      <point x="866" y="333" type="line"/>
      <point x="558" y="333" type="line"/>
      <point x="558" y="149" type="line"/>
      <point x="973" y="149" type="line"/>
      <point x="974" y="-3" type="line"/>
      <point x="407" y="-3" type="line"/>
      <point x="407" y="-2" type="line"/>
      <point x="406" y="-2" type="line"/>
      <point x="406" y="227" type="line"/>
      <point x="261" y="227" type="line"/>
      <point x="202" y="0" type="line"/>
      <point x="50" y="0" type="line"/>
      <point x="250" y="778" type="line"/>
      <point x="973" y="778" type="line"/>
      <point x="974" y="626" type="line"/>
      <point x="558" y="626" type="line"/>
      <point x="558" y="485" type="line"/>
    </contour>
    <contour>
      <point x="407" y="367" type="line"/>
      <point x="341" y="535" type="line"/>
      <point x="297" y="367" type="line"/>
    </contour>
  </outline>
</glyph>
<glyph name="Eth" format="2">
  <advance width="690"/>
  <unicode hex="00D0"/>
  <outline>
    <contour>
      <point x="110" y="768" type="line"/>
      <point x="120" y="764.667"/>
      <point x="144.667" y="764.667"/>
      <point x="184" y="768" type="curve" smooth="yes"/>
      <point x="223.333" y="771.333"/>
      <point x="248" y="773"/>
      <point x="258" y="773" type="curve"/>
      <point x="363.333" y="773"/>
      <point x="453.333" y="734.667"/>
      <point x="528" y="658" type="curve" smooth="yes"/>
      <point x="602.667" y="581.333"/>
      <point x="640" y="488.667"/>
      <point x="640" y="380" type="curve"/>
      <point x="640" y="308.667"/>
      <point x="623.167" y="243"/>
      <point x="589.5" y="183" type="curve" smooth="yes"/>
      <point x="555.833" y="123"/>
      <point x="510" y="75.3333"/>
      <point x="452" y="40" type="curve" smooth="yes"/>
      <point x="394" y="4.66667"/>
      <point x="330.667" y="-13.3333"/>
      <point x="262" y="-14" type="curve"/>
      <point x="110" y="-14" type="line"/>
      <point x="110" y="344" type="line"/>
      <point x="50" y="344" type="line"/>
      <point x="50" y="496" type="line"/>
      <point x="110" y="496" type="line"/>
    </contour>
    <contour>
      <point x="262" y="143" type="line"/>
      <point x="324.667" y="144.333"/>
      <point x="377.833" y="167.833"/>
      <point x="421.5" y="213.5" type="curve" smooth="yes"/>
      <point x="465.167" y="259.167"/>
      <point x="487" y="314"/>
      <point x="487" y="378" type="curve"/>
      <point x="487" y="442"/>
      <point x="465.167" y="496.667"/>
      <point x="421.5" y="542" type="curve" smooth="yes"/>
      <point x="377.833" y="587.333"/>
      <point x="324.667" y="610.667"/>
      <point x="262" y="612" type="curve"/>
      <point x="262" y="496" type="line"/>
      <point x="321" y="496" type="line"/>
      <point x="321" y="344" type="line"/>
      <point x="262" y="344" type="line"/>
    </contour>
  </outline>
</glyph>
<glyph name="multiply" format="2">
  <advance width="724"/>
  <unicode hex="00D7"/>
  <outline>
    <contour>
      <point x="50" y="713" type="line"/>
      <point x="236" y="711" type="line"/>
      <point x="365" y="560" type="line"/>
      <point x="498" y="712" type="line"/>
      <point x="673" y="711" type="line"/>
      <point x="453" y="458" type="line"/>
      <point x="674" y="200" type="line"/>
      <point x="499" y="198" type="line"/>
      <point x="362" y="355" type="line"/>
      <point x="229" y="202" type="line"/>
      <point x="51" y="199" type="line"/>
      <point x="274" y="456" type="line"/>
    </contour>
  </outline>
</glyph>
<glyph name="Oslash" format="2">
  <advance width="864"/>
  <unicode hex="00D8"/>
  <outline>
    <contour>
      <point x="599" y="538" type="curve"/>
      <point x="375" y="150" type="line"/>
      <point x="393.667" y="145.333"/>
      <point x="412.667" y="143"/>
      <point x="432" y="143" type="curve"/>
      <point x="495.333" y="143"/>
      <point x="549.333" y="165.833"/>
      <point x="594" y="211.5" type="curve" smooth="yes"/>
      <point x="638.667" y="257.167"/>
      <point x="661" y="312.667"/>
      <point x="661" y="378" type="curve"/>
      <point x="661" y="440"/>
      <point x="640.333" y="493.333"/>
    </contour>
    <contour>
      <point x="495" y="603" type="line"/>
      <point x="474.333" y="609"/>
      <point x="453.333" y="612"/>
      <point x="432" y="612" type="curve"/>
      <point x="368.667" y="612"/>
      <point x="314.667" y="589.167"/>
      <point x="270" y="543.5" type="curve" smooth="yes"/>
      <point x="225.333" y="497.833"/>
      <point x="203" y="442.667"/>
      <point x="203" y="378" type="curve" smooth="yes"/>
      <point x="203" y="313.333"/>
      <point x="225" y="258"/>
      <point x="269" y="212" type="curve"/>
    </contour>
    <contour>
      <point x="814" y="380" type="curve"/>
      <point x="814" y="271.333"/>
      <point x="776.667" y="178.5"/>
      <point x="702" y="101.5" type="curve" smooth="yes"/>
      <point x="627.333" y="24.5"/>
      <point x="537.333" y="-14"/>
      <point x="432" y="-14" type="curve"/>
      <point x="384.667" y="-14"/>
      <point x="339" y="-5.33333"/>
      <point x="295" y="12" type="curve"/>
      <point x="240" y="-83" type="line"/>
      <point x="134" y="-22" type="line"/>
      <point x="190" y="75" type="line"/>
      <point x="146.667" y="111.667"/>
      <point x="112.5" y="156.5"/>
      <point x="87.5" y="209.5" type="curve" smooth="yes"/>
      <point x="62.5" y="262.5"/>
      <point x="50" y="319.333"/>
      <point x="50" y="380" type="curve"/>
      <point x="50" y="488.667"/>
      <point x="87.3333" y="581.333"/>
      <point x="162" y="658" type="curve" smooth="yes"/>
      <point x="236.667" y="734.667"/>
      <point x="326.667" y="773"/>
      <point x="432" y="773" type="curve"/>
      <point x="482" y="773"/>
      <point x="530" y="763.333"/>
      <point x="576" y="744" type="curve"/>
      <point x="619" y="818" type="line"/>
      <point x="725" y="757" type="line"/>
      <point x="680" y="679" type="line"/>
      <point x="722" y="642.333"/>
      <point x="754.833" y="598"/>
      <point x="778.5" y="546" type="curve" smooth="yes"/>
      <point x="802.167" y="494"/>
      <point x="814" y="438.667"/>
    </contour>
  </outline>
</glyph>
<glyph name="Thorn" format="2">
  <advance width="534"/>
  <unicode hex="00DE"/>
  <outline>
    <contour>
      <point x="202" y="561" type="curve"/>
      <point x="202" y="354" type="line"/>
      <point x="210" y="352"/>
      <point x="218" y="351"/>
      <point x="226" y="351" type="curve"/>
      <point x="256" y="351"/>
      <point x="281.333" y="361.333"/>
      <point x="302" y="382" type="curve" smooth="yes"/>
      <point x="322.667" y="402.667"/>
      <point x="333" y="428"/>
      <point x="333" y="458" type="curve"/>
      <point x="333" y="487.333"/>
      <point x="322.667" y="512.333"/>
      <point x="302" y="533" type="curve" smooth="yes"/>
      <point x="281.333" y="553.667"/>
      <point x="256" y="564"/>
      <point x="226" y="564" type="curve"/>
      <point x="218" y="564"/>
      <point x="210" y="563"/>
    </contour>
    <contour>
      <point x="202" y="3" type="line"/>
      <point x="50" y="3" type="line"/>
      <point x="50" y="903" type="line"/>
      <point x="197" y="903" type="line"/>
      <point x="202" y="714" type="line"/>
      <point x="207.333" y="714.667"/>
      <point x="215.333" y="715"/>
      <point x="226" y="715" type="curve"/>
      <point x="297.333" y="715"/>
      <point x="358.167" y="690"/>
      <point x="408.5" y="640" type="curve" smooth="yes"/>
      <point x="458.833" y="590"/>
      <point x="484" y="529.333"/>
      <point x="484" y="458" type="curve" smooth="yes"/>
      <point x="484" y="386.667"/>
      <point x="458.833" y="325.833"/>
      <point x="408.5" y="275.5" type="curve" smooth="yes"/>
      <point x="358.167" y="225.167"/>
      <point x="297.333" y="200"/>
      <point x="226" y="200" type="curve"/>
      <point x="215.333" y="200"/>
      <point x="207.333" y="200.333"/>
      <point x="202" y="201" type="curve"/>
    </contour>
  </outline>
</glyph>
<glyph name="germandbls" format="2">
  <advance width="836"/>
  <unicode hex="00DF"/>
  <outline>
    <contour>
      <point x="283" y="47" type="curve"/>
      <point x="350" y="159" type="line"/>
      <point x="354.667" y="154.333"/>
      <point x="362" y="150.333"/>
      <point x="372" y="147" type="curve"/>
      <point x="398.667" y="135.667"/>
      <point x="422.5" y="131.333"/>
      <point x="443.5" y="134" type="curve" smooth="yes"/>
      <point x="464.5" y="136.667"/>
      <point x="481.667" y="146"/>
      <point x="495" y="162" type="curve"/>
      <point x="510.333" y="180"/>
      <point x="503" y="193"/>
      <point x="473" y="201" type="curve"/>
      <point x="465" y="203"/>
      <point x="447" y="206.333"/>
      <point x="419" y="211" type="curve"/>
      <point x="375" y="228.333"/>
      <point x="339.667" y="248.5"/>
      <point x="313" y="271.5" type="curve" smooth="yes"/>
      <point x="286.333" y="294.5"/>
      <point x="270.333" y="320"/>
      <point x="265" y="348" type="curve" smooth="yes"/>
      <point x="259.667" y="376"/>
      <point x="269.667" y="404.667"/>
      <point x="295" y="434" type="curve"/>
      <point x="300.333" y="440.667"/>
      <point x="308.667" y="451.333"/>
      <point x="320" y="466" type="curve" smooth="yes"/>
      <point x="331.333" y="480.667"/>
      <point x="340" y="491.5"/>
      <point x="346" y="498.5" type="curve" smooth="yes"/>
      <point x="352" y="505.5"/>
      <point x="360.5" y="514.5"/>
      <point x="371.5" y="525.5" type="curve" smooth="yes"/>
      <point x="382.5" y="536.5"/>
      <point x="392.667" y="544.167"/>
      <point x="402" y="548.5" type="curve" smooth="yes"/>
      <point x="411.333" y="552.833"/>
      <point x="422.5" y="556.833"/>
      <point x="435.5" y="560.5" type="curve" smooth="yes"/>
      <point x="448.5" y="564.167"/>
      <point x="462.5" y="564.833"/>
      <point x="477.5" y="562.5" type="curve" smooth="yes"/>
      <point x="492.5" y="560.167"/>
      <point x="508.667" y="555.667"/>
      <point x="526" y="549" type="curve"/>
      <point x="527" y="549"/>
      <point x="527" y="549"/>
      <point x="528" y="549" type="curve"/>
      <point x="558" y="549"/>
      <point x="583.333" y="559.333"/>
      <point x="604" y="580" type="curve" smooth="yes"/>
      <point x="624.667" y="600.667"/>
      <point x="635" y="626"/>
      <point x="635" y="656" type="curve"/>
      <point x="635" y="676"/>
      <point x="603.167" y="691.333"/>
      <point x="539.5" y="702" type="curve" smooth="yes"/>
      <point x="475.833" y="712.667"/>
      <point x="409.667" y="716.167"/>
      <point x="341" y="712.5" type="curve" smooth="yes"/>
      <point x="272.333" y="708.833"/>
      <point x="231" y="699"/>
      <point x="217" y="683" type="curve"/>
      <point x="217" y="2" type="line"/>
      <point x="50" y="2" type="line"/>
      <point x="53" y="684" type="line"/>
      <point x="69" y="739.333"/>
      <point x="99.3333" y="784.333"/>
      <point x="144" y="819" type="curve"/>
      <point x="171.333" y="840.333"/>
      <point x="211.333" y="855.167"/>
      <point x="264" y="863.5" type="curve" smooth="yes"/>
      <point x="316.667" y="871.833"/>
      <point x="372.333" y="872.667"/>
      <point x="431" y="866" type="curve" smooth="yes"/>
      <point x="489.667" y="859.333"/>
      <point x="545.833" y="847.833"/>
      <point x="599.5" y="831.5" type="curve" smooth="yes"/>
      <point x="653.167" y="815.167"/>
      <point x="697.667" y="791.333"/>
      <point x="733" y="760" type="curve" smooth="yes"/>
      <point x="768.333" y="728.667"/>
      <point x="786" y="694"/>
      <point x="786" y="656" type="curve"/>
      <point x="786" y="604.667"/>
      <point x="782.167" y="563.333"/>
      <point x="774.5" y="532" type="curve" smooth="yes"/>
      <point x="766.833" y="500.667"/>
      <point x="756.333" y="478.667"/>
      <point x="743" y="466" type="curve" smooth="yes"/>
      <point x="729.667" y="453.333"/>
      <point x="714.667" y="445.333"/>
      <point x="698" y="442" type="curve" smooth="yes"/>
      <point x="681.333" y="438.667"/>
      <point x="662.833" y="438.167"/>
      <point x="642.5" y="440.5" type="curve" smooth="yes"/>
      <point x="622.167" y="442.833"/>
      <point x="602.333" y="444.667"/>
      <point x="583" y="446" type="curve" smooth="yes"/>
      <point x="563.667" y="447.333"/>
      <point x="543.667" y="444.5"/>
      <point x="523" y="437.5" type="curve" smooth="yes"/>
      <point x="502.333" y="430.5"/>
      <point x="484.667" y="418"/>
      <point x="470" y="400" type="curve"/>
      <point x="459.333" y="388"/>
      <point x="452.5" y="373"/>
      <point x="449.5" y="355" type="curve" smooth="yes"/>
      <point x="446.5" y="337"/>
      <point x="449.333" y="320"/>
      <point x="458" y="304" type="curve" smooth="yes"/>
      <point x="466.667" y="288"/>
      <point x="481" y="278.333"/>
      <point x="501" y="275" type="curve"/>
      <point x="527" y="263.667"/>
      <point x="549.667" y="253.167"/>
      <point x="569" y="243.5" type="curve" smooth="yes"/>
      <point x="588.333" y="233.833"/>
      <point x="606.833" y="222.333"/>
      <point x="624.5" y="209" type="curve" smooth="yes"/>
      <point x="642.167" y="195.667"/>
      <point x="654.833" y="182.5"/>
      <point x="662.5" y="169.5" type="curve" smooth="yes"/>
      <point x="670.167" y="156.5"/>
      <point x="673.167" y="141.833"/>
      <point x="671.5" y="125.5" type="curve" smooth="yes"/>
      <point x="669.833" y="109.167"/>
      <point x="661.667" y="92.3333"/>
      <point x="647" y="75" type="curve"/>
      <point x="615.667" y="37"/>
      <point x="566.667" y="13.8333"/>
      <point x="500" y="5.5" type="curve" smooth="yes"/>
      <point x="433.333" y="-2.83333"/>
      <point x="368.333" y="6.66667"/>
      <point x="305" y="34" type="curve"/>
      <point x="299.667" y="35.3333"/>
      <point x="292.333" y="39.6667"/>
    </contour>
  </outline>
</glyph>
<glyph name="ae" format="2">
  <advance width="905"/>
  <unicode hex="00E6"/>
  <outline>
    <contour>
      <point x="854" y="260" type="curve"/>
      <point x="854" y="253.333"/>
      <point x="854.167" y="244.167"/>
      <point x="854.5" y="232.5" type="curve" smooth="yes"/>
      <point x="854.833" y="220.833"/>
      <point x="855" y="212.667"/>
      <point x="855" y="208" type="curve"/>
      <point x="508" y="205" type="line"/>
      <point x="528.667" y="171"/>
      <point x="558" y="154"/>
      <point x="596" y="154" type="curve"/>
      <point x="618.667" y="154"/>
      <point x="664.5" y="154.833"/>
      <point x="733.5" y="156.5" type="curve" smooth="yes"/>
      <point x="802.5" y="158.167"/>
      <point x="839.667" y="160"/>
      <point x="845" y="162" type="curve"/>
      <point x="845" y="6" type="line"/>
      <point x="832.333" y="4"/>
      <point x="749.333" y="3"/>
      <point x="596" y="3" type="curve"/>
      <point x="564.667" y="3"/>
      <point x="534.333" y="8.33333"/>
      <point x="505" y="19" type="curve"/>
      <point x="332" y="1" type="line"/>
      <point x="332" y="9" type="line"/>
      <point x="326.667" y="8.33333"/>
      <point x="318.667" y="8"/>
      <point x="308" y="8" type="curve"/>
      <point x="236.667" y="8"/>
      <point x="175.833" y="33.1667"/>
      <point x="125.5" y="83.5" type="curve" smooth="yes"/>
      <point x="75.1667" y="133.833"/>
      <point x="50" y="194.667"/>
      <point x="50" y="266" type="curve"/>
      <point x="50" y="336.667"/>
      <point x="75" y="395.833"/>
      <point x="125" y="443.5" type="curve" smooth="yes"/>
      <point x="175" y="491.167"/>
      <point x="236" y="515"/>
      <point x="308" y="515" type="curve"/>
      <point x="318.667" y="515"/>
      <point x="326.667" y="514.667"/>
      <point x="332" y="514" type="curve"/>
      <point x="505" y="514" type="line"/>
      <point x="596" y="518" type="line"/>
      <point x="667.333" y="518"/>
      <point x="728.167" y="492.833"/>
      <point x="778.5" y="442.5" type="curve" smooth="yes"/>
      <point x="828.833" y="392.167"/>
      <point x="854" y="331.333"/>
    </contour>
    <contour>
      <point x="332" y="369" type="line"/>
      <point x="324" y="371"/>
      <point x="316" y="372"/>
      <point x="308" y="372" type="curve"/>
      <point x="278" y="372"/>
      <point x="252.667" y="361.667"/>
      <point x="232" y="341" type="curve" smooth="yes"/>
      <point x="211.333" y="320.333"/>
      <point x="201" y="295.333"/>
      <point x="201" y="266" type="curve"/>
      <point x="201" y="236"/>
      <point x="211.333" y="210.667"/>
      <point x="232" y="190" type="curve" smooth="yes"/>
      <point x="252.667" y="169.333"/>
      <point x="278" y="159"/>
      <point x="308" y="159" type="curve"/>
      <point x="316" y="159"/>
      <point x="324" y="160"/>
      <point x="332" y="162" type="curve"/>
    </contour>
    <contour>
      <point x="503" y="297" type="curve"/>
      <point x="695" y="294" type="line"/>
      <point x="692.333" y="296.667"/>
      <point x="685.667" y="304.333"/>
      <point x="675" y="317" type="curve" smooth="yes"/>
      <point x="664.333" y="329.667"/>
      <point x="656" y="339.167"/>
      <point x="650" y="345.5" type="curve" smooth="yes"/>
      <point x="644" y="351.833"/>
      <point x="635.833" y="358.333"/>
      <point x="625.5" y="365" type="curve" smooth="yes"/>
      <point x="615.167" y="371.667"/>
      <point x="605.333" y="375"/>
      <point x="596" y="375" type="curve"/>
      <point x="584" y="375"/>
      <point x="572.833" y="371"/>
      <point x="562.5" y="363" type="curve" smooth="yes"/>
      <point x="552.167" y="355"/>
      <point x="540.167" y="342.5"/>
      <point x="526.5" y="325.5" type="curve" smooth="yes"/>
      <point x="512.833" y="308.5"/>
      <point x="505" y="299"/>
    </contour>
  </outline>
</glyph>
<glyph name="eth" format="2">
  <advance width="612"/>
  <unicode hex="00F0"/>
  <outline>
    <contour>
      <point x="135" y="780" type="line"/>
      <point x="287" y="780" type="line"/>
      <point x="292.333" y="775.333"/>
      <point x="297.333" y="771"/>
      <point x="302" y="767" type="curve"/>
      <point x="340" y="805" type="line"/>
      <point x="427" y="729" type="line"/>
      <point x="387" y="689" type="line"/>
      <point x="418.333" y="657"/>
      <point x="445.333" y="625.5"/>
      <point x="468" y="594.5" type="curve" smooth="yes"/>
      <point x="490.667" y="563.5"/>
      <point x="511" y="526.333"/>
      <point x="529" y="483" type="curve" smooth="yes"/>
      <point x="547" y="439.667"/>
      <point x="557.833" y="395.167"/>
      <point x="561.5" y="349.5" type="curve" smooth="yes"/>
      <point x="565.167" y="303.833"/>
      <point x="561" y="251.167"/>
      <point x="549" y="191.5" type="curve" smooth="yes"/>
      <point x="537" y="131.833"/>
      <point x="515.333" y="69.3333"/>
      <point x="484" y="4" type="curve"/>
      <point x="332" y="4" type="line"/>
      <point x="324" y="3.33333"/>
      <point x="316" y="3"/>
      <point x="308" y="3" type="curve"/>
      <point x="236.667" y="3"/>
      <point x="175.833" y="28"/>
      <point x="125.5" y="78" type="curve" smooth="yes"/>
      <point x="75.1667" y="128"/>
      <point x="50" y="188.667"/>
      <point x="50" y="260" type="curve" smooth="yes"/>
      <point x="50" y="331.333"/>
      <point x="75.1667" y="392.167"/>
      <point x="125.5" y="442.5" type="curve" smooth="yes"/>
      <point x="175.833" y="492.833"/>
      <point x="236.667" y="518"/>
      <point x="308" y="518" type="curve"/>
      <point x="316" y="518"/>
      <point x="324" y="517.667"/>
      <point x="332" y="517" type="curve"/>
      <point x="282" y="584" type="line"/>
      <point x="245" y="547" type="line"/>
      <point x="158" y="623" type="line"/>
      <point x="212" y="677" type="line"/>
    </contour>
    <contour>
      <point x="310" y="367" type="curve"/>
      <point x="301.333" y="367"/>
      <point x="293.333" y="366"/>
      <point x="286" y="364" type="curve"/>
      <point x="286" y="365" type="line"/>
      <point x="261.333" y="359.667"/>
      <point x="241" y="347.333"/>
      <point x="225" y="328" type="curve" smooth="yes"/>
      <point x="209" y="308.667"/>
      <point x="201" y="286"/>
      <point x="201" y="260" type="curve"/>
      <point x="201" y="234.667"/>
      <point x="209" y="212.333"/>
      <point x="225" y="193" type="curve" smooth="yes"/>
      <point x="241" y="173.667"/>
      <point x="261.333" y="161.333"/>
      <point x="286" y="156" type="curve"/>
      <point x="286" y="157" type="line"/>
      <point x="293.333" y="155"/>
      <point x="301.333" y="154"/>
      <point x="310" y="154" type="curve"/>
      <point x="318" y="154"/>
      <point x="326" y="155"/>
      <point x="334" y="157" type="curve"/>
      <point x="334" y="156" type="line"/>
      <point x="358.667" y="161.333"/>
      <point x="379" y="173.667"/>
      <point x="395" y="193" type="curve" smooth="yes"/>
      <point x="411" y="212.333"/>
      <point x="419" y="234.667"/>
      <point x="419" y="260" type="curve"/>
      <point x="419" y="286"/>
      <point x="411" y="308.667"/>
      <point x="395" y="328" type="curve" smooth="yes"/>
      <point x="379" y="347.333"/>
      <point x="358.667" y="359.667"/>
      <point x="334" y="365" type="curve"/>
      <point x="334" y="364" type="line"/>
      <point x="326" y="366"/>
      <point x="318" y="367"/>
    </contour>
  </outline>
</glyph>
<glyph name="divide" format="2">
  <advance width="644"/>
  <unicode hex="00F7"/>
  <outline>
    <contour>
      <point x="250" y="151" type="line"/>
      <point x="250" y="293" type="line"/>
      <point x="402" y="293" type="line"/>
      <point x="402" y="151" type="line"/>
    </contour>
    <contour>
      <point x="250" y="551" type="line"/>
      <point x="250" y="693" type="line"/>
      <point x="402" y="693" type="line"/>
      <point x="402" y="551" type="line"/>
    </contour>
    <contour>
      <point x="594" y="496" type="line"/>
      <point x="594" y="344" type="line"/>
      <point x="50" y="344" type="line"/>
      <point x="50" y="496" type="line"/>
    </contour>
  </outline>
</glyph>
<glyph name="oslash" format="2">
  <advance width="620"/>
  <unicode hex="00F8"/>
  <outline>
    <contour>
      <point x="324" y="155" type="line"/>
      <point x="329" y="156"/>
      <point x="329" y="156"/>
      <point x="334" y="157" type="curve"/>
      <point x="334" y="156" type="line"/>
      <point x="358.667" y="161.333"/>
      <point x="379" y="173.667"/>
      <point x="395" y="193" type="curve" smooth="yes"/>
      <point x="411" y="212.333"/>
      <point x="419" y="234.667"/>
      <point x="419" y="260" type="curve"/>
      <point x="419" y="274.667"/>
      <point x="416" y="289"/>
      <point x="410" y="303" type="curve"/>
    </contour>
    <contour>
      <point x="306" y="367" type="line"/>
      <point x="298.667" y="366.333"/>
      <point x="292" y="365.333"/>
      <point x="286" y="364" type="curve"/>
      <point x="286" y="365" type="line"/>
      <point x="261.333" y="359.667"/>
      <point x="241" y="347.333"/>
      <point x="225" y="328" type="curve" smooth="yes"/>
      <point x="209" y="308.667"/>
      <point x="201" y="286"/>
      <point x="201" y="260" type="curve"/>
      <point x="201" y="242"/>
      <point x="205.333" y="225"/>
      <point x="214" y="209" type="curve"/>
    </contour>
    <contour>
      <point x="50" y="260" type="curve"/>
      <point x="50" y="331.333"/>
      <point x="74.8333" y="392.167"/>
      <point x="124.5" y="442.5" type="curve" smooth="yes"/>
      <point x="174.167" y="492.833"/>
      <point x="235.333" y="518"/>
      <point x="308" y="518" type="curve"/>
      <point x="309" y="518" type="line"/>
      <point x="310" y="518"/>
      <point x="310" y="518"/>
      <point x="312" y="518" type="curve"/>
      <point x="338" y="518"/>
      <point x="363.333" y="514.333"/>
      <point x="388" y="507" type="curve"/>
      <point x="458" y="625" type="line"/>
      <point x="564" y="564" type="line"/>
      <point x="493" y="444" type="line"/>
      <point x="544.333" y="393.333"/>
      <point x="570" y="332"/>
      <point x="570" y="260" type="curve"/>
      <point x="570" y="188.667"/>
      <point x="544.833" y="128"/>
      <point x="494.5" y="78" type="curve" smooth="yes"/>
      <point x="444.167" y="28"/>
      <point x="383.333" y="3"/>
      <point x="312" y="3" type="curve"/>
      <point x="311" y="3"/>
      <point x="311" y="3"/>
      <point x="310" y="3" type="curve" smooth="yes"/>
      <point x="309" y="3" type="line"/>
      <point x="308" y="3" type="line"/>
      <point x="284.667" y="3"/>
      <point x="262" y="6"/>
      <point x="240" y="12" type="curve"/>
      <point x="184" y="-83" type="line"/>
      <point x="78" y="-22" type="line"/>
      <point x="133" y="71" type="line"/>
      <point x="107" y="95"/>
      <point x="86.6667" y="123.333"/>
      <point x="72" y="156" type="curve" smooth="yes"/>
      <point x="57.3333" y="188.667"/>
      <point x="50" y="223.333"/>
    </contour>
  </outline>
</glyph>
<glyph name="thorn" format="2">
  <advance width="534"/>
  <unicode hex="00FE"/>
  <outline>
    <contour>
      <point x="202" y="359" type="curve"/>
      <point x="202" y="152" type="line"/>
      <point x="210" y="150"/>
      <point x="218" y="149"/>
      <point x="226" y="149" type="curve"/>
      <point x="256" y="149"/>
      <point x="281.333" y="159.333"/>
      <point x="302" y="180" type="curve" smooth="yes"/>
      <point x="322.667" y="200.667"/>
      <point x="333" y="226"/>
      <point x="333" y="256" type="curve"/>
      <point x="333" y="285.333"/>
      <point x="322.667" y="310.333"/>
      <point x="302" y="331" type="curve" smooth="yes"/>
      <point x="281.333" y="351.667"/>
      <point x="256" y="362"/>
      <point x="226" y="362" type="curve"/>
      <point x="218" y="362"/>
      <point x="210" y="361"/>
    </contour>
    <contour>
      <point x="202" y="-199" type="line"/>
      <point x="50" y="-199" type="line"/>
      <point x="50" y="701" type="line"/>
      <point x="197" y="701" type="line"/>
      <point x="202" y="512" type="line"/>
      <point x="207.333" y="512.667"/>
      <point x="215.333" y="513"/>
      <point x="226" y="513" type="curve"/>
      <point x="297.333" y="513"/>
      <point x="358.167" y="488"/>
      <point x="408.5" y="438" type="curve" smooth="yes"/>
      <point x="458.833" y="388"/>
      <point x="484" y="327.333"/>
      <point x="484" y="256" type="curve" smooth="yes"/>
      <point x="484" y="184.667"/>
      <point x="458.833" y="123.833"/>
      <point x="408.5" y="73.5" type="curve" smooth="yes"/>
      <point x="358.167" y="23.1667"/>
      <point x="297.333" y="-2"/>
      <point x="226" y="-2" type="curve"/>
      <point x="215.333" y="-2"/>
      <point x="207.333" y="-1.66667"/>
      <point x="202" y="-1" type="curve"/>
    </contour>
  </outline>
</glyph>
<glyph name="Hbar" format="2">
  <advance width="747"/>
  <unicode hex="0126"/>
  <outline>
    <contour>
      <point x="252" y="561" type="line"/>
      <point x="252" y="485" type="line"/>
      <point x="500" y="485" type="line"/>
      <point x="500" y="561" type="line"/>
    </contour>
    <contour>
      <point x="500" y="774" type="line"/>
      <point x="652" y="774" type="line"/>
      <point x="652" y="713" type="line"/>
      <point x="697" y="713" type="line"/>
      <point x="697" y="561" type="line"/>
      <point x="652" y="561" type="line"/>
      <point x="652" y="-2" type="line"/>
      <point x="500" y="-2" type="line"/>
      <point x="500" y="333" type="line"/>
      <point x="252" y="333" type="line"/>
      <point x="252" y="-2" type="line"/>
      <point x="100" y="-2" type="line"/>
      <point x="100" y="561" type="line"/>
      <point x="50" y="561" type="line"/>
      <point x="50" y="713" type="line"/>
      <point x="100" y="713" type="line"/>
      <point x="100" y="774" type="line"/>
      <point x="252" y="774" type="line"/>
      <point x="252" y="713" type="line"/>
      <point x="500" y="713" type="line"/>
    </contour>
  </outline>
</glyph>
<glyph name="hbar" format="2">
  <advance width="658"/>
  <unicode hex="0127"/>
  <outline>
    <contour>
      <point x="338" y="731" type="line"/>
      <point x="338" y="579" type="line"/>
      <point x="280" y="579" type="line"/>
      <point x="280" y="512" type="line"/>
      <point x="306" y="520"/>
      <point x="332.667" y="524"/>
      <point x="360" y="524" type="curve"/>
      <point x="418" y="524"/>
      <point x="469.333" y="506.667"/>
      <point x="514" y="472" type="curve" smooth="yes"/>
      <point x="558.667" y="437.333"/>
      <point x="589" y="392.333"/>
      <point x="605" y="337" type="curve"/>
      <point x="608" y="6" type="line"/>
      <point x="441" y="6" type="line"/>
      <point x="441" y="336" type="line"/>
      <point x="419.667" y="360.667"/>
      <point x="392.667" y="373"/>
      <point x="360" y="373" type="curve"/>
      <point x="328" y="373"/>
      <point x="301.333" y="361.333"/>
      <point x="280" y="338" type="curve"/>
      <point x="280" y="6" type="line"/>
      <point x="111" y="6" type="line"/>
      <point x="111" y="579" type="line"/>
      <point x="50" y="579" type="line"/>
      <point x="50" y="731" type="line"/>
      <point x="111" y="731" type="line"/>
      <point x="111" y="768" type="line"/>
      <point x="280" y="768" type="line"/>
      <point x="280" y="731" type="line"/>
    </contour>
  </outline>
</glyph>
<glyph name="dotlessi" format="2">
  <advance width="252"/>
  <unicode hex="0131"/>
  <outline>
    <contour>
      <point x="50" y="512" type="line"/>
      <point x="202" y="512" type="line"/>
      <point x="202" y="-2" type="line"/>
      <point x="50" y="-2" type="line"/>
    </contour>
  </outline>
</glyph>
<glyph name="Lcaron" format="2">
  <advance width="718"/>
  <unicode hex="013D"/>
  <outline>
    <contour>
      <point x="50" y="774" type="line"/>
      <point x="202" y="774" type="line"/>
      <point x="202" y="149" type="line"/>
      <point x="667" y="149" type="line"/>
      <point x="668" y="-3" type="line"/>
      <point x="51" y="-3" type="line"/>
      <point x="51" y="-2" type="line"/>
      <point x="50" y="-2" type="line"/>
    </contour>
    <contour>
      <point x="252" y="520" type="line"/>
      <point x="252" y="777" type="line"/>
      <point x="404" y="777" type="line"/>
      <point x="359" y="520" type="line"/>
    </contour>
  </outline>
</glyph>
<glyph name="lcaron" format="2">
  <advance width="462"/>
  <unicode hex="013E"/>
  <outline>
    <contour>
      <point x="369" y="6" type="line"/>
      <point x="346.333" y="0"/>
      <point x="322.667" y="-3"/>
      <point x="298" y="-3" type="curve"/>
      <point x="240" y="-3"/>
      <point x="188.667" y="14.3333"/>
      <point x="144" y="49" type="curve" smooth="yes"/>
      <point x="99.3333" y="83.6667"/>
      <point x="69" y="128.667"/>
      <point x="53" y="184" type="curve"/>
      <point x="50" y="761" type="line"/>
      <point x="217" y="761" type="line"/>
      <point x="217" y="185" type="line"/>
      <point x="238.333" y="160.333"/>
      <point x="265.333" y="148"/>
      <point x="298" y="148" type="curve"/>
      <point x="324.667" y="148"/>
      <point x="348.333" y="156.667"/>
      <point x="369" y="174" type="curve"/>
    </contour>
    <contour>
      <point x="260" y="504" type="line"/>
      <point x="260" y="761" type="line"/>
      <point x="412" y="761" type="line"/>
      <point x="367" y="504" type="line"/>
    </contour>
  </outline>
</glyph>
<glyph name="Lslash" format="2">
  <advance width="869"/>
  <unicode hex="0141"/>
  <outline>
    <contour>
      <point x="50" y="494" type="line"/>
      <point x="507" y="630" type="line"/>
      <point x="508" y="478" type="line"/>
      <point x="50" y="342" type="line"/>
    </contour>
    <contour>
      <point x="201" y="774" type="line"/>
      <point x="353" y="774" type="line"/>
      <point x="353" y="149" type="line"/>
      <point x="818" y="149" type="line"/>
      <point x="819" y="-3" type="line"/>
      <point x="202" y="-3" type="line"/>
      <point x="202" y="-2" type="line"/>
      <point x="201" y="-2" type="line"/>
    </contour>
  </outline>
</glyph>
<glyph name="lslash" format="2">
  <advance width="563"/>
  <unicode hex="0142"/>
  <outline>
    <contour>
      <point x="78" y="308" type="line"/>
      <point x="78" y="428" type="line"/>
      <point x="497" y="616" type="line"/>
      <point x="497" y="500" type="line"/>
    </contour>
    <contour>
      <point x="513" y="6" type="line"/>
      <point x="490.333" y="0"/>
      <point x="466.667" y="-3"/>
      <point x="442" y="-3" type="curve"/>
      <point x="384" y="-3"/>
      <point x="332.667" y="14.3333"/>
      <point x="288" y="49" type="curve" smooth="yes"/>
      <point x="243.333" y="83.6667"/>
      <point x="213" y="128.667"/>
      <point x="197" y="184" type="curve"/>
      <point x="194" y="761" type="line"/>
      <point x="361" y="761" type="line"/>
      <point x="361" y="185" type="line"/>
      <point x="382.333" y="160.333"/>
      <point x="409.333" y="148"/>
      <point x="442" y="148" type="curve"/>
      <point x="468.667" y="148"/>
      <point x="492.333" y="156.667"/>
      <point x="513" y="174" type="curve"/>
    </contour>
  </outline>
</glyph>
<glyph name="OE" format="2">
  <advance width="1068"/>
  <unicode hex="0152"/>
  <outline>
    <contour>
      <point x="432" y="612" type="curve"/>
      <point x="368.667" y="612"/>
      <point x="314.667" y="589.167"/>
      <point x="270" y="543.5" type="curve" smooth="yes"/>
      <point x="225.333" y="497.833"/>
      <point x="203" y="442.667"/>
      <point x="203" y="378" type="curve"/>
      <point x="203" y="312.667"/>
      <point x="225.333" y="257.167"/>
      <point x="270" y="211.5" type="curve" smooth="yes"/>
      <point x="314.667" y="165.833"/>
      <point x="368.667" y="143"/>
      <point x="432" y="143" type="curve"/>
      <point x="438" y="143"/>
      <point x="444" y="143.333"/>
      <point x="450" y="144" type="curve"/>
      <point x="450" y="611" type="line"/>
      <point x="444" y="611.667"/>
      <point x="438" y="612"/>
    </contour>
    <contour>
      <point x="909" y="485" type="line"/>
      <point x="910" y="333" type="line"/>
      <point x="602" y="333" type="line"/>
      <point x="602" y="149" type="line"/>
      <point x="1017" y="149" type="line"/>
      <point x="1018" y="-3" type="line"/>
      <point x="505" y="-3" type="line"/>
      <point x="505" y="-7" type="line"/>
      <point x="481" y="-11.6667"/>
      <point x="456.667" y="-14"/>
      <point x="432" y="-14" type="curve"/>
      <point x="326.667" y="-14"/>
      <point x="236.667" y="24.5"/>
      <point x="162" y="101.5" type="curve" smooth="yes"/>
      <point x="87.3333" y="178.5"/>
      <point x="50" y="271.333"/>
      <point x="50" y="380" type="curve" smooth="yes"/>
      <point x="50" y="488.667"/>
      <point x="87.3333" y="581.333"/>
      <point x="162" y="658" type="curve" smooth="yes"/>
      <point x="236.667" y="734.667"/>
      <point x="326.667" y="773"/>
      <point x="432" y="773" type="curve"/>
      <point x="441" y="773"/>
      <point x="441" y="773"/>
      <point x="450" y="773" type="curve"/>
      <point x="450" y="774" type="line"/>
      <point x="450" y="778" type="line"/>
      <point x="1017" y="778" type="line"/>
      <point x="1018" y="626" type="line"/>
      <point x="602" y="626" type="line"/>
      <point x="602" y="485" type="line"/>
    </contour>
  </outline>
</glyph>
